<svg xmlns="http://www.w3.org/2000/svg" viewBox="0 0 432.65 689.46"><defs><style>.a{fill:#fff;}</style></defs><title>face_5</title><path class="a" d="M450.27,686c-3.13-6.07-1.18-11.31-1.3-16.43-.42-13.05-4.76-24.07-16.23-31.32-8.55-5.41-17.09-3.59-21.51,5.42a50.47,50.47,0,0,0-.09,45.37c2.88,6,9.2,7,15.24,7.64,7.23.71,13.9-1.83,21.21-4.46,9.16,10.86,14.74,23.57,18.94,36.46,4.58,14.17,12.21,22,27.68,22,7.65,0,13.06-1.85,15.62-9.45a83.18,83.18,0,0,0,5-25.1c.18-12.8,4.15-25,5.29-37.57.43-4.13,3.4-5.41,6.18-7.21,14.76-9.57,27.47-21.65,40.6-33.21a63.35,63.35,0,0,0,12.71-16.87,8.24,8.24,0,0,0,.48-8.42c-10.23-20.4-3.54-37.59,17-47.88,9.49-4.75,18.49-2.81,27.13-.31,7.26,2.13,11.25.07,15.23-5a25.59,25.59,0,0,1,2.28-2.49c4.24-4.2,8.69-9.91,15.1-4.93s3.43,11.3-.67,16.7c-11.51,15.4-26.16,28.17-37.13,44.68,1.17,4.74,5.27,4.79,9.43,4.06,14.65-2.51,29.67-.45,44.33-4.48,9.26-2.52,10.08-1.05,11.2,9.86-8,1.69-14.73,6.15-21.64,10.47-10.7,6.62-22.9,2.85-32.53-.6-19.36-7-32.69-1.5-47.49,11.16-11.94,10.24-20.53,21.08-24.75,35.86-.59,2.11-1.81,4.19-.06,6.37,2.33,1.78,4.16.11,5.94-1.09,6.8-4.53,14.11-8,21.78-3.06,8.59,5.57,13.67,13.75,12.94,24.44a65.49,65.49,0,0,1-21.93,45c-6.65,6.07-8.68,12.31-7,20.78,2.1,10.63,4,21.28,8.86,31.07,3.5,7,3.35,13.34-1.54,19.81-6.5,8.62-8.5,18-3.33,28.27a11.33,11.33,0,0,1,0,11.81,106.62,106.62,0,0,0-17.87,49.9c-5.82-11.63,4.56-26-6.46-37.58-5.78,7.35-2,14.79-1.83,21.72.11,4.31,2.35,8.76-2.77,12A9.93,9.93,0,0,1,531.2,908c-3-2.77-7.77-3.31-8.81-.5-3.69,9.9-14.28,15.17-18.37,28.44,18.39-3.82,34.6-6.14,49.9-12.89,6.69,18,1.8,29.85-15.85,35.83-15.63,5.3-35.1-4.08-39.83-20.17-6.52-22.19-17.43-43.3-34.84-59.83a11.9,11.9,0,0,1-4.12-8.73,44.36,44.36,0,0,0-10.19-26.7,17.57,17.57,0,0,1-2.59-17.73A65.4,65.4,0,0,0,449,814.82c1.53-9.54-2.51-15.74-11.59-19-6.31-2.23-12.65-4.4-18.75-7.21a45.52,45.52,0,0,1-22.42-60.35,46.39,46.39,0,0,1,3.94-6.92c3.91-5.65,2.28-8.94-3.41-11.09a98.31,98.31,0,0,1-37.59-26.69A41.92,41.92,0,0,0,330,669.1,254.92,254.92,0,0,1,260.25,654c-1.85-5.82,4.06-5.51,5-9.1-3.12-4.6-10.6-3.26-13.81-10.93,12.71,1.94,24.11,4.24,33.29,11.74a28.27,28.27,0,0,0,15.92,6.67c10,1,19.94,2.58,29.94,3.49,7.31.68,14-1.32,20.71-8a81,81,0,0,1-21.69-31.09c-4.44-10.9-15.15-20.18-10.41-35.18,6.11,3.14,9.18,9.1,16.28,7.68,3.9-.79,4.52,4,5.57,7.23,8.94,27.11,25.17,49.63,44.27,70.34,3.68,4,3.76,3.91,10.76,5.39-.41-18.39,1.92-35.56,23.85-40.34,12.43-2.78,25.29,3.38,32.45,14.87A34.94,34.94,0,0,1,450.27,686Zm107,60.39c4-15.93,12.38-25,26.47-29.76,7.82-2.64,6-11.1,4.8-17.58-.9-4.57-2.23-10-8.76-9.6-9.75.55-18.84,2.14-25.28,11.14a76.87,76.87,0,0,0-14.26,32.27c-.84,5.06-2.36,10.8,2.2,16.51,4.1-4.41,8.34-7.17,14.83-3ZM424.7,782.45c-4.12-5.2-2.55-12-4.52-16.38-4.95-11.26.19-13.3,8.87-16.32,14.86-5.19-4.56-17.68,4.55-25,1.48-1.18-2.11-4.28-4.39-5.48a7,7,0,0,0-2.16-.56c-13.11-2.53-20.79,2.82-22.91,15.89a53.14,53.14,0,0,0,.54,23.34C407.71,768.87,412.49,778.63,424.7,782.45ZM601,606.78c12.38-1.29,18.24-5.27,24.21-11.7,6.76-7.25-.29-12.23-1.57-18.11-2.48-11.24-11.83-15.06-21.65-9.49-10.18,5.76-15.17,15.08-18.18,25.68-2.09,7.37,1.2,11.53,8.23,12.94A59.67,59.67,0,0,0,601,606.78Zm-40.35,221c-12.81,5.5-16.14,14.17-17.54,23.82-.73,4.95.22,9.74,7.59,10.46,7.26-9.18,7.31-20.57,10-34.28Zm-89.15,9.7c6.57,4.8,7.53,11.59,8.15,18.63.6,5.77,4.1,9.09,9.8,7.65,6.81-1.73,5.29-7.51,3.38-11.77-3.88-8.52-11-13.41-21.31-14.52Zm27.84,77.18a4.07,4.07,0,0,0,1.07-4.86c-2-4,1-10-4.78-12.55a3,3,0,0,0-4,1.38,3.05,3.05,0,0,0-.24.7c-1.66,5.67,1.85,9.78,4.76,14,.46.72,1.84.76,3.23,1.38ZM550,938.18c-7.13-5.6-12.35-2.14-20.42,1.88,8.51,1.27,14.17,2.93,20.42-1.88Zm-57-63.64c-2.28,4.92-3.64,8.28.46,11.76,3.22-3.66,3.6-7-.46-11.76Z" transform="translate(-251.41 -270.87)"/><path class="a" d="M428.41,683.28c-8.18,1-15.37-3.24-16.38-9.68s4.67-13.31,11.22-14.33a14.59,14.59,0,0,1,16.18,11.81C440.47,679.39,435.64,682.48,428.41,683.28Zm.49-6.26c2-4.71,1.73-8.69-3.54-10.48-2.33-.75-4.15,1.42-4.09,3.92.06,4.71,2.1,7.63,7.66,6.56Z" transform="translate(-251.41 -270.87)"/><path class="a" d="M612.61,579.83c3.41,6.39.24,11.83-4.13,15.84s-10.23,2.91-15.43.5C595.1,581.7,598.87,578.6,612.61,579.83Zm-12.73,12.39c6.72-.36,9.42-2.22,8.43-8.28C603.82,584.86,601.88,587.4,599.88,592.22Z" transform="translate(-251.41 -270.87)"/><path class="a" d="M481.51,563.14c-1.54-5.72-3.17-11.41-4.6-17.17-2.32-9.33-3.66-19.52-19-15.37l.37-2.37a51.72,51.72,0,0,1,6.35-6.38c13.67-9.8,27.53-19.38,41.24-29.15,7.4-5.27,7.21-8.67-.9-13a43.1,43.1,0,0,0-10.83-3.93c-11.48-2.5-10.7-2-15.26,8.7-4.24,10-11.48,18.33-22,26.08-1-11-1.54-20-2.91-28.83-.46-3-3.08-5.62-4.71-8.4-2.45,1.85-5,3.56-7.28,5.57a10.47,10.47,0,0,0-2,3.58c-3.74,8.27-9.59,16.68,4.35,24.31-10.41,3.41-17.73,1.12-21.9-4.31-6.19-8-10.16-17.74-15.28-26.62a13,13,0,0,0-4.94-5.43,49.67,49.67,0,0,0-11.86-3.53c-2.2-.35-4.6.35-6.92.59.27,2.26-.11,4.92.94,6.74,5.76,10.06,12,19.85,17.87,29.83,6.26,10.59,6.09,11.2-2.26,19.77-5.38,5.52-10.66,11.13-16,16.67-.12.12-.51-.08-1.27-.06,1.29-5.05,2.56-10.05,4.36-17.18l-15.57,5.52L370,527.44c3.44-4.23,7.06-8.34,10.24-12.74,1.16-1.62,2.36-4.38,1.68-5.81s-3.61-2.24-5.55-2.13c-9.1.26-18.19.65-27.25,1.35-10.46.8-11.16-.06-7.69-10.27q2.1-6.3,4-12.63c1.77-5.93-.22-9.29-6.5-10.74-18.49-4.28-18.36-4.38-7.08-20.21,2.13-2.92,3.11-6.61,4.64-9.95a75.38,75.38,0,0,0-11-.79c-6.16.43-12.27,1.43-18.41,2.29l-.86-2.22c6.66-5.67,12.8-11.92,20-16.66,19.09-12.49,28.85-31,36.11-51.64a124.49,124.49,0,0,1,7.75-16.44c5.07-9.61,4.62-11.76-4.49-18.33a23.94,23.94,0,0,1-3.1-2.68c-.33-.34-.37-1-.77-2.16,11-.45,10.73-6.72,8.68-15.2-1.7-7.15-1.37-14.79-1.73-22.21-.44-9-.68-18-1-27.4,6.51,8.68,12.69,17.88,19.88,26.21,6.57,7.64,14.23,14.34,21.44,21.45.38.38,1,.56,1.3,1,7.12,10.49,15.31,18.74,29.62,14.44,13.95,13.24,32.34.48,47.45,8.13a58.93,58.93,0,0,0,18.87,5.05,17,17,0,0,0,10.94-2.68c17.25-12.25,34.25-24.85,51.15-37.6,5.58-4.17,10.72-9.05,16.06-13.58l2.28,1.36c-3.32,11.22-6.85,22.41-9.87,33.68-1.27,4.83-1.18,10.15-2,15.21-.27,1.77-1.7,3.37-1.94,5.15a86.32,86.32,0,0,0-.41,9.24c-.07,2.62.11,5.27-.18,7.87-.15.93-1.18,1.83-1.91,2.66-9.62,11-13,23.46-11,38.12,1.06,7.78-.26,16-1,23.9-.72,7.44,1.05,13.37,6.85,18.46,7.81,6.84,15.12,14.24,24.31,23l-21.76,3.31c-9.22,1.39-9.59,2.24-6.59,11.2,2.37,7.07,4.25,14.35,6.35,21.52l-2.5,1.82c-5.64-2.56-11.23-5.11-16.93-7.44a25.32,25.32,0,0,0-6.17-.88c-.32,2.05-1.07,4.25-.63,6.14,2.13,9.27,4.6,18.47,7,27.67l-2.09,1.64-22.84-16.7-2.87,1.63,10.7,38.91c-5.91-2.6-9.86-4-13.44-5.94-7.22-4-14.3-8.34-21.36-12.68-4.22-2.6-6.58-1.45-7.84,3.19-1.64,6-3.44,11.92-5.16,17.89ZM435.57,425.32c-1.26-4.09-2.5-10.56-5.19-16.34-5.14-11-27.46-16.59-36.3-9.18-8.1,6.74-16.07,13.66-23.68,20.94a8.62,8.62,0,0,0-1.89,7.56,96.66,96.66,0,0,0,9.75,18.18C385,456.12,394.1,458.34,405,454c3.57-1.41,7.25-2.66,10.9-3.9C426.58,446.44,432,438.35,435.57,425.32ZM517,414.94c-12.9-.94-26.71,2.21-37.68,13.71-4.59,4.82-7.32,10.18-5.15,17.23,2.62,8.46,20.37,21.63,29.12,21.32a6.94,6.94,0,0,0,2.44-.35c10.71-5,21.81-9.27,28.17-20.47C541.8,432.39,535.09,417.71,517,414.94Z" transform="translate(-251.41 -270.87)"/></svg>