<svg xmlns="http://www.w3.org/2000/svg" viewBox="0 0 846.3 903.58"><defs><style>.a{fill:#fff;}</style></defs><title>face_9</title><path class="a" d="M842.36,546.27c-9.69,15.23-20.68,29.6-29.14,45.6-6,11.31-5.74,12.72,2.42,21.55,16.79,18.11,24.66,40.46,30.89,63.58a288.3,288.3,0,0,1,6.66,37.59c.49,4-.16,8.39,3.6,11.72,10.15,1.36,19.92,2.76,30-4,6.4-4.31,15.75-3.89,23.83-8.06L923,722.52c.61,4.87-2.32,5.81-4.94,7a169.51,169.51,0,0,1-53.29,14.23c-4.41.4-9.91-.28-10.71,5.8a9.86,9.86,0,0,0,6.42,11c9.6,3.74,11.67,11.19,12.28,20.56a64.15,64.15,0,0,0,20,42.41,57.27,57.27,0,0,1,15,22c3,8.22,8,15.74,12,23.54-4.94,3.54-8.39.78-12-1.1-6.68-3.58-13.17-8.18-15.68-15.2-7.63-21.23-27.69-34.67-34.46-56.27a4.67,4.67,0,0,0-5.38-3.82l-.28.05c-3.26,2-2.32,5.81-3,8.82A172.16,172.16,0,0,1,821.63,863c-4.26,5.93-4.89,11.2,0,16.61s6.08,13.43,10.7,19.35c4.19,5.34,8.57,7.55,14.55,2.9a21.75,21.75,0,0,1,8.81-4.28c9.16-1.94,13.77,2,14.47,12.2a6.94,6.94,0,0,1-1.52,2c-26.26,16-28.37,15.6-51.73-6.37-5.38-5.1-7.91-13.8-15.41-15.16-8-1.45-12.3,7.17-18.65,10.66C762.11,912.23,740.5,916,717.4,910c-13.37-3.49-13.25-3.19-21.2,8a70.61,70.61,0,0,1-10.11,10.84c-5.32,4.93-7.38,9.61-1.08,15.46,5.43,5,3.89,10.34-.63,15.11-3.08,3.08-5.81,7.69-11.27,5.13s-9.54-7-8.72-12.22c1.46-9.45,2-20,12.09-25.7A22.74,22.74,0,0,0,685,916.28c6.76-13,6.15-16.43-6.22-23.88-17.19-10.39-31-24.24-43.33-39.84a38,38,0,0,0-5.23-5.23c-.51-.51-1.54-.46-2.9-.8-5.09,2.82-6.65,8.67-9.39,13.43-4.25,7.47-7.58,15.48-11.82,23.07a61.58,61.58,0,0,0-8.4,30c-.15,11.22-2.35,22.7-10.61,32.07a60.69,60.69,0,0,1-16.62-15.72c5.63-8.84,8.39-17.92,3.77-27.91-2-4.37.08-8,2.56-11.4,12.7-17.38,21-37.13,30-56.46,4.61-9.8,5.62-19.57.37-29.61a155.58,155.58,0,0,1-11.55-31.65c-5.76-3.77-11.1-1.81-16.23-1-12.07,1.88-24.22,4.6-36.4,6.38-9.61,1.41-11.25.51-19.28-6.19,5.83-11.62,16.06-16.05,28.22-15.27,13.17.79,25-3.21,39.06-7.45-1.25-26.66-3.42-53.7,4.49-80.45-20.73-11.31-43.13-17.55-62-31.37a40.8,40.8,0,0,1,12.82-13.32c10.64,1.85,19.37,7.44,28.56,11.82s18.08,9.63,29.11,9.7c11.46-18,24.06-34.53,41.89-46.5,8.32-5.64,16.5-11.41,25.94-13.87,37.45-9.88,75-15.22,111.37,4.06,7.26,3.77,12,1.07,15.38-4.9,4.72-8.22,10.74-15.53,15.1-24,4.79-9.22,11.26-17.29,21.73-20.78Zm-92,256.57c5.5,2.32,9.47,1,13.42.12a262.75,262.75,0,0,0,52.27-17.76c14.94-6.53,21.43-18.39,22.66-33.83a192.16,192.16,0,0,0-6.36-64.75c-.91-3.42-.23-7.63-4.1-9.86-15.29.66-23.1-4-28.5-17.43-3.42-8.55-5.09-17.28-1.53-26.38,1.29-3.28,3.87-7.37,1.32-10.54-8.77-11-18.58-21.65-33.2-23.61-9.28-1.19-18.69-2.25-28.07-3.65a164.82,164.82,0,0,0-64.91,2.1c-11.25,2.7-12.94,5.09-12.26,16.84,1.74,3.21,6.45,2,8.14,6.57-2.33,8.59-9.8,13.51-16.19,19-18.75-6.61-18.75-6.61-17.9-18.84a5.91,5.91,0,0,0-2.28.12,14.38,14.38,0,0,0-3,2.16c-14.27,12.53-17.73,30-21.18,47.32-.82,4.07,1.17,7.17,3.82,7.77a7.42,7.42,0,0,0,7-2.43,7.07,7.07,0,0,1,6.93-1.31c7.64,11.45,10.45,20.5,8.16,29.73-3.61,14.61-13.45,23.92-28.37,29.6,3.91,11.55,1.71,23.86,9.11,34,5.23-1.74,6-6.21,8.15-9.51A32.11,32.11,0,0,1,637.08,746c12.18-5.48,22.23-1.08,25.9,11.55a67.33,67.33,0,0,0,4,12.86c5.18,9.72,7.57,18.84-2.32,26.33a6.87,6.87,0,0,0,5.23,4.43c17.67,6.37,36.26,6.7,54.75,8.06,11.32.86,14.08-2.21,12-13.78a282.51,282.51,0,0,1-3.3-41.68c-.68-22.36,1.86-45.7-15.36-64.21-1.74-1.75-2.77-4.21-4.36-6.11A24.36,24.36,0,0,1,709.11,658c3.82-9.06,1.6-16.72-.82-24.79a156.05,156.05,0,0,0-6.86-18.45c-2.63-6.57,1.33-10.43,6.14-12.94,5.5-2.85,8.2,1.64,10.23,5.82,1.43,2.94,2,6.34,3.59,9.15,2.77,4.83,2,11.67,8.24,14.55,26.67-6.19,37.42-4,47.82,21A28.47,28.47,0,0,1,777,675c-6.44,15.3-21.11,14.79-36.4,17C747.55,729.43,745.31,766.77,750.39,802.84Z" transform="translate(-76.75 -61.69)"/><path class="a" d="M772.83,737.93c4.86-7,14.18-8.92,21.84-13.47a7,7,0,0,1,8.1.56,25.36,25.36,0,0,1,3.7,38.59,52.82,52.82,0,0,1-8.15,7.45c-11.73,8.55-26.17,5.24-33.21-7.62C760.49,755,762.25,748.5,772.83,737.93Z" transform="translate(-76.75 -61.69)"/><path class="a" d="M690.7,697.12c13.63,4.1,16.37,11.55,9,22.93-6.49,10-16.32,14.25-26,11.15a21.11,21.11,0,0,1-14.11-20.78c.22-6,15.74-25,21.13-25.08C688.43,685.19,691.21,690.44,690.7,697.12Z" transform="translate(-76.75 -61.69)"/><path class="a" d="M547.15,371.67c2.74,7,0,12.54-.44,18.16-1,14.36,2.47,26.95,14.21,36.2,8.76,6.91,18.33,5.9,24.21-3.48a55.66,55.66,0,0,0,5.28-49.74c-2.47-6.89-9.28-8.76-15.84-10.12-7.85-1.6-15.45.42-23.77,2.47-8.8-13-13.47-27.54-16.6-42.15-3.41-16.06-10.88-25.51-27.84-27.31-8.38-.89-14.53.54-18.21,8.58a91.81,91.81,0,0,0-8.39,27c-1.65,14-7.4,26.92-10.09,40.59-.93,4.49-4.34,5.55-7.6,7.2-17.27,8.81-32.59,20.61-48.31,31.79a69.76,69.76,0,0,0-15.87,17.05,9.07,9.07,0,0,0-1.48,9.17c8.89,23.54-.42,41.63-24.15,50.56-11,4.12-20.61,1-29.79-2.76-7.72-3.16-12.33-1.36-17.27,3.75a28.47,28.47,0,0,1-2.79,2.47c-5.13,4.12-10.66,9.87-17.12,3.67s-2.47-12.78,2.64-18.23c14.38-15.57,31.9-27.91,45.82-44.76-.74-5.33-5.23-5.85-9.87-5.53-16.36,1.09-32.6-2.88-49.13-.15-10.44,1.71-11.18,0-11.15-12.09,8.93-.93,16.85-5,24.92-9,12.49-6,25.44-.52,35.61,4.36,20.43,9.87,35.68,5.38,53.34-6.81,14.27-9.87,24.93-20.77,31.24-36.49.89-2.25,2.47-4.39.79-7-2.34-2.22-4.54-.6-6.64.52-8,4.19-16.38,7.2-24.23.86-8.78-7.08-13.42-16.63-11.4-28.28a72.25,72.25,0,0,1,29.19-46.88c8-5.9,10.94-12.51,10.07-22-1.08-11.89-1.92-23.78-6.17-35.08-3-8.07-2.14-15,3.95-21.55,8.12-8.71,11.38-18.75,6.89-30.62a12.48,12.48,0,0,1,1.3-13,117.52,117.52,0,0,0,25.29-52.68c5.06,13.42-8,28,2.79,41.94,7.18-7.4,3.9-16,4.49-23.61.37-4.74-1.58-9.87,4.42-12.88A11,11,0,0,1,483.76,119c2.94,3.38,8.15,4.52,9.6,1.56,5.18-10.44,17.4-15,23.39-29.09-20.6,2.09-38.64,2.78-56.18,8.44C455.29,79.42,462,67,482,62.44c17.74-4,38,8.49,41.38,26.68,4.61,25.07,14.16,49.47,31.36,69.58a13.15,13.15,0,0,1,3.53,10,49,49,0,0,0,8.11,30.45,19.34,19.34,0,0,1,.82,19.74,73.64,73.64,0,0,0-4,11.62c-2.76,10.29,1,17.55,10.54,22.21,6.66,3.16,13.37,6.27,19.74,10a50.19,50.19,0,0,1,12.58,75.88c-4.93,5.75-3.53,9.55,2.47,12.56a108.29,108.29,0,0,1,38.17,33.56A46.24,46.24,0,0,0,677.16,404a280.64,280.64,0,0,1,74.72,24.5c1.36,6.59-5.08,5.57-6.49,9.4,2.89,5.4,11.25,4.79,13.89,13.57-13.72-3.58-26-7.4-35.16-16.68a31.2,31.2,0,0,0-16.7-9.13c-10.84-2.22-21.57-5.11-32.43-7.25-7.94-1.58-15.49-.15-23.64,6.46a89.27,89.27,0,0,1,20.24,36.57c3.63,12.46,14.31,23.86,7.4,39.77-6.34-4.14-9-11-17-10.28-4.36.41-4.49-4.94-5.28-8.57C650,451.57,634.8,425,616.22,400.12c-3.58-4.79-3.68-4.71-11.18-7.13-1.65,20.21-6.17,38.76-30.77,41.5-13.94,1.63-27.34-6.59-33.88-20A38.52,38.52,0,0,1,547.15,371.67ZM436.71,293.23c-6.25,17-16.44,26-32.43,29.61-8.88,2-7.89,11.47-7.27,18.73.46,5.1,1.3,11.17,8.51,11.52,10.76.52,20.9-.2,29-9.33A84.62,84.62,0,0,0,453.83,310c1.51-5.46,3.83-11.57-.52-18.36-5,4.37-10,6.91-16.6,1.58Zm149.5-24.4c3.93,6.16,1.43,13.39,3.09,18.48,4.14,12.9-1.73,14.56-11.6,16.87-16.88,4,3,19.92-7.85,26.95-1.75,1.13,1.83,4.93,4.2,6.51a7.85,7.85,0,0,0,2.29.87c14.09,4.27,23.12-.72,26.95-14.81A58.66,58.66,0,0,0,605.36,298C603.29,285.65,599.17,274.4,586.21,268.83ZM372.87,441.33c-13.72,0-20.6,3.7-27.88,10.07-8.24,7.18-1.09,13.44-.35,20,1.44,12.61,11.26,17.87,22.66,12.88,11.82-5.16,18.35-14.8,22.87-26.08,3.13-7.85,0-12.78-7.55-15.13A65.79,65.79,0,0,0,372.87,441.33Zm69.49-237.72c14.68-4.57,19.32-13.7,22-24.11,1.36-5.35.86-10.71-7.13-12.34-9,9.23-10.37,21.72-14.83,36.45Zm98.87-.44c-6.66-6-6.93-13.58-6.81-21.37,0-6.39-3.45-10.44-9.87-9.5-7.67,1.11-6.66,7.62-5.06,12.51,3.28,9.79,10.51,16,21.72,18.36Zm-21.71-87.82a4.46,4.46,0,0,0-1.73,5.2c1.7,4.67-2.25,10.91,3.8,14.32a3.34,3.34,0,0,0,4.59-1.06,3.6,3.6,0,0,0,.34-.75c2.47-6-.91-10.93-3.62-15.84-.42-.84-1.93-1-3.38-1.87Zm-53-31.61c7.18,7,13.3,3.75,22.61.27-9.18-2.37-15.2-4.84-22.61-.27ZM521.79,160c3.06-5.13,4.93-8.66.84-12.95-4,3.65-4.74,7.23-.84,12.95Z" transform="translate(-76.75 -61.69)"/><path class="a" d="M570.82,377.15c9.08-.17,16.48,5.3,16.85,12.48S581,403.7,573.73,404.07a16.1,16.1,0,0,1-16.39-14.81C557.15,380,562.8,377.2,570.82,377.15ZM569.56,384c-2.74,4.93-2.89,9.33,2.69,11.89,2.46,1.09,4.71-1.08,4.93-3.82.47-5.18-1.43-8.61-7.65-8.07Z" transform="translate(-76.75 -61.69)"/><path class="a" d="M357,469.56c-3-7.41,1.08-13,6.34-16.91s11.55-2,17,1.21C376.43,469.51,371.94,472.47,357,469.56Zm15.37-12.14c-7.4-.37-10.59,1.35-10.19,8.11C367.22,465,369.64,462.47,372.38,457.42Z" transform="translate(-76.75 -61.69)"/><path class="a" d="M547.15,371.67c2.74,7,0,12.54-.44,18.16-1,14.36,2.47,26.95,14.21,36.2,8.76,6.91,18.33,5.9,24.21-3.48a55.66,55.66,0,0,0,5.28-49.74c-2.47-6.89-9.28-8.76-15.84-10.12-7.85-1.6-15.45.42-23.77,2.47-8.8-13-13.47-27.54-16.6-42.15-3.41-16.06-10.88-25.51-27.84-27.31-8.38-.89-14.53.54-18.21,8.58a91.81,91.81,0,0,0-8.39,27c-1.65,14-7.4,26.92-10.09,40.59-.93,4.49-4.34,5.55-7.6,7.2-17.27,8.81-32.59,20.61-48.31,31.79a69.76,69.76,0,0,0-15.87,17.05,9.07,9.07,0,0,0-1.48,9.17c8.89,23.54-.42,41.63-24.15,50.56-11,4.12-20.61,1-29.79-2.76-7.72-3.16-12.33-1.36-17.27,3.75a28.47,28.47,0,0,1-2.79,2.47c-5.13,4.12-10.66,9.87-17.12,3.67s-2.47-12.78,2.64-18.23c14.38-15.57,31.9-27.91,45.82-44.76-.74-5.33-5.23-5.85-9.87-5.53-16.36,1.09-32.6-2.88-49.13-.15-10.44,1.71-11.18,0-11.15-12.09,8.93-.93,16.85-5,24.92-9,12.49-6,25.44-.52,35.61,4.36,20.43,9.87,35.68,5.38,53.34-6.81,14.27-9.87,24.93-20.77,31.24-36.49.89-2.25,2.47-4.39.79-7-2.34-2.22-4.54-.6-6.64.52-8,4.19-16.38,7.2-24.23.86-8.78-7.08-13.42-16.63-11.4-28.28a72.25,72.25,0,0,1,29.19-46.88c8-5.9,10.94-12.51,10.07-22-1.08-11.89-1.92-23.78-6.17-35.08-3-8.07-2.14-15,3.95-21.55,8.12-8.71,11.38-18.75,6.89-30.62a12.48,12.48,0,0,1,1.3-13,117.52,117.52,0,0,0,25.29-52.68c5.06,13.42-8,28,2.79,41.94,7.18-7.4,3.9-16,4.49-23.61.37-4.74-1.58-9.87,4.42-12.88A11,11,0,0,1,483.76,119c2.94,3.38,8.15,4.52,9.6,1.56,5.18-10.44,17.4-15,23.39-29.09-20.6,2.09-38.64,2.78-56.18,8.44C455.29,79.42,462,67,482,62.44c17.74-4,38,8.49,41.38,26.68,4.61,25.07,14.16,49.47,31.36,69.58a13.15,13.15,0,0,1,3.53,10,49,49,0,0,0,8.11,30.45,19.34,19.34,0,0,1,.82,19.74,73.64,73.64,0,0,0-4,11.62c-2.76,10.29,1,17.55,10.54,22.21,6.66,3.16,13.37,6.27,19.74,10a50.19,50.19,0,0,1,12.58,75.88c-4.93,5.75-3.53,9.55,2.47,12.56a108.29,108.29,0,0,1,38.17,33.56A46.24,46.24,0,0,0,677.16,404a280.64,280.64,0,0,1,74.72,24.5c1.36,6.59-5.08,5.57-6.49,9.4,2.89,5.4,11.25,4.79,13.89,13.57-13.72-3.58-26-7.4-35.16-16.68a31.2,31.2,0,0,0-16.7-9.13c-10.84-2.22-21.57-5.11-32.43-7.25-7.94-1.58-15.49-.15-23.64,6.46a89.27,89.27,0,0,1,20.24,36.57c3.63,12.46,14.31,23.86,7.4,39.77-6.34-4.14-9-11-17-10.28-4.36.41-4.49-4.94-5.28-8.57C650,451.57,634.8,425,616.22,400.12c-3.58-4.79-3.68-4.71-11.18-7.13-1.65,20.21-6.17,38.76-30.77,41.5-13.94,1.63-27.34-6.59-33.88-20A38.52,38.52,0,0,1,547.15,371.67ZM436.71,293.23c-6.25,17-16.44,26-32.43,29.61-8.88,2-7.89,11.47-7.27,18.73.46,5.1,1.3,11.17,8.51,11.52,10.76.52,20.9-.2,29-9.33A84.62,84.62,0,0,0,453.83,310c1.51-5.46,3.83-11.57-.52-18.36-5,4.37-10,6.91-16.6,1.58Zm149.5-24.4c3.93,6.16,1.43,13.39,3.09,18.48,4.14,12.9-1.73,14.56-11.6,16.87-16.88,4,3,19.92-7.85,26.95-1.75,1.13,1.83,4.93,4.2,6.51a7.85,7.85,0,0,0,2.29.87c14.09,4.27,23.12-.72,26.95-14.81A58.66,58.66,0,0,0,605.36,298C603.29,285.65,599.17,274.4,586.21,268.83ZM372.87,441.33c-13.72,0-20.6,3.7-27.88,10.07-8.24,7.18-1.09,13.44-.35,20,1.44,12.61,11.26,17.87,22.66,12.88,11.82-5.16,18.35-14.8,22.87-26.08,3.13-7.85,0-12.78-7.55-15.13A65.79,65.79,0,0,0,372.87,441.33Zm69.49-237.72c14.68-4.57,19.32-13.7,22-24.11,1.36-5.35.86-10.71-7.13-12.34-9,9.23-10.37,21.72-14.83,36.45Zm98.87-.44c-6.66-6-6.93-13.58-6.81-21.37,0-6.39-3.45-10.44-9.87-9.5-7.67,1.11-6.66,7.62-5.06,12.51,3.28,9.79,10.51,16,21.72,18.36Zm-21.71-87.82a4.46,4.46,0,0,0-1.73,5.2c1.7,4.67-2.25,10.91,3.8,14.32a3.34,3.34,0,0,0,4.59-1.06,3.6,3.6,0,0,0,.34-.75c2.47-6-.91-10.93-3.62-15.84-.42-.84-1.93-1-3.38-1.87Zm-53-31.61c7.18,7,13.3,3.75,22.61.27-9.18-2.37-15.2-4.84-22.61-.27ZM521.79,160c3.06-5.13,4.93-8.66.84-12.95-4,3.65-4.74,7.23-.84,12.95Z" transform="translate(-76.75 -61.69)"/><path class="a" d="M570.82,377.15c9.08-.17,16.48,5.3,16.85,12.48S581,403.7,573.73,404.07a16.1,16.1,0,0,1-16.39-14.81C557.15,380,562.8,377.2,570.82,377.15ZM569.56,384c-2.74,4.93-2.89,9.33,2.69,11.89,2.46,1.09,4.71-1.08,4.93-3.82.47-5.18-1.43-8.61-7.65-8.07Z" transform="translate(-76.75 -61.69)"/><path class="a" d="M357,469.56c-3-7.41,1.08-13,6.34-16.91s11.55-2,17,1.21C376.43,469.51,371.94,472.47,357,469.56Zm15.37-12.14c-7.4-.37-10.59,1.35-10.19,8.11C367.22,465,369.64,462.47,372.38,457.42Z" transform="translate(-76.75 -61.69)"/><path class="a" d="M362.14,959.93c-3.58-8.07-7.28-16.07-10.71-24.21-5.55-13.2-9.87-27.88-31.43-18.26v-3.58a77.31,77.31,0,0,1,7.87-10.83c17.86-17.57,36.05-34.84,54-52.36,9.67-9.45,8.61-14.41-4.32-18.9a64.48,64.48,0,0,0-16.83-3.31c-17.47-1-16.21-.49-20.46,16.31-3.94,15.7-12.68,29.61-26.4,43.43-4-15.89-6.86-29-10.9-41.75-1.36-4.27-5.83-7.55-8.86-11.28-3.19,3.29-6.54,6.4-9.43,9.87a15.93,15.93,0,0,0-2.15,5.73c-3.6,13-10.26,26.75,12,34.77-14.54,7.4-25.84,5.72-33.22-1.31-11-10.39-19-23.76-28.59-35.66a19.53,19.53,0,0,0-8.52-6.86,74.51,74.51,0,0,0-18.26-2.46c-3.3,0-6.68,1.58-10,2.46.91,3.26,1,7.26,2.94,9.7C209.6,864.9,221,877.88,232,891.21c11.64,14.14,11.52,15.07,1.2,29.61-6.63,9.35-13.12,18.82-19.74,28.2-.14.2-.76,0-1.87.2.74-7.73,1.46-15.37,2.47-26.28l-21.64,11.7L189.91,933c4.1-7,8.46-13.9,12.14-21.1,1.33-2.64,2.47-7,1.13-8.93s-5.82-2.47-8.66-1.85c-13.32,2.46-26.6,5.13-39.77,8.24-15.2,3.58-16.44,2.47-13.67-13.35q1.65-9.75,3-19.49c1.23-9.13-2.47-13.63-12-14.32-28.18-2-28-2.22-15-28.1,2.46-4.79,3.06-10.44,4.54-15.69a112.68,112.68,0,0,0-16.41,1.35c-9,2.05-17.72,4.94-26.55,7.6l-1.78-3.06c8.49-9.87,16.09-20.48,25.61-29.11,25.22-22.75,35.31-52.29,41.26-84.27a184.7,184.7,0,0,1,7.62-26c5.26-15.29,4.1-18.35-10.8-25.93a36.56,36.56,0,0,1-5.19-3.23c-.56-.42-.76-1.36-1.62-3,16.06-3.19,14.23-12.34,9.27-24.36-4.14-10.11-5.4-21.44-7.65-32.27-2.71-13.15-5.13-26.38-7.79-40.07,11.57,11.27,22.77,23.39,35.26,34,11.42,9.72,24.23,17.81,36.47,26.62.64.47,1.63.59,2.14,1.16,12.88,13.8,26.83,24.06,46.89,14.44,23.56,16.28,47.69-6.71,71.68,1.06a87.68,87.68,0,0,0,28.92,3.11A25.23,25.23,0,0,0,364.29,630C386.87,608,409,585.61,430.91,563c7.25-7.41,13.69-15.77,20.51-23.67l3.67,1.48c-2.32,17.28-4.93,34.55-6.78,51.82-.77,7.4.59,15.2.59,22.83,0,2.66-1.73,5.35-1.68,8a131.35,131.35,0,0,0,1.53,13.7c.49,3.87,1.36,7.72,1.53,11.62,0,1.41-1.31,3-2.2,4.34-11.62,18.39-13.74,37.51-7.4,58.61,3.36,11.2,3.28,23.54,4,35.41.65,11.1,4.62,19.41,14.32,25.58,13,8.27,25.51,17.47,41,28.23l-31.24,9.87c-13.25,4.17-13.59,5.5-7.13,18,5.11,9.87,9.55,20.13,14.29,30.2l-3.26,3.26c-8.88-2.47-17.69-4.94-26.62-7.06a37.42,37.42,0,0,0-9.28.13c0,3.08-.59,6.48.49,9.17,5.26,13.16,11,26.11,16.58,39.11l-2.69,2.89-37.43-19.32-3.85,3.06L434.54,945c-9.31-2.47-15.42-3.55-21.15-5.65-11.55-4.27-22.95-9-34.32-13.75-6.81-2.86-10-.61-10.81,6.49-1,9.18-2.32,18.34-3.48,27.52ZM262.9,767.71c-2.79-5.73-6.1-15-11.38-22.85-10.09-15-44.21-18.09-55.52-5.16-10.36,11.77-20.5,23.79-30,36.25a12.76,12.76,0,0,0-1,11.55,143.73,143.73,0,0,0,18.5,24.5c12.19,12.63,26,13.82,41,4.94,4.94-2.89,10.07-5.58,15.15-8.25C254.53,800.85,260.68,787.7,262.9,767.71Zm117.35-34c-19.19,1.58-38.79,9.37-52.28,28.82-5.65,8.14-8.44,16.65-3.63,26.52,5.8,11.85,34.94,27.14,47.74,24.68a10.28,10.28,0,0,0,3.51-1.06c14.61-9.87,30-18.66,36.74-36.6C420.82,753.72,407.57,733.66,380.25,733.76Z" transform="translate(-76.75 -61.69)"/></svg>