<svg xmlns="http://www.w3.org/2000/svg" viewBox="0 0 443.55 926.04"><defs><style>.a{fill:#fff;}</style></defs><title>face_12</title><path class="a" d="M583.45,479.85c-3.75-8.45-7.63-16.83-11.22-25.36-5.82-13.84-10.35-29.22-33-19.14V431.6a82,82,0,0,1,8.25-11.35c18.72-18.41,37.78-36.51,56.58-54.87,10.14-9.91,9-15.1-4.52-19.81A66.8,66.8,0,0,0,582,342.11c-18.31-1.09-17-.52-21.44,17.09-4.13,16.44-13.29,31-27.66,45.51-4.25-16.65-7.19-30.41-11.43-43.75-1.43-4.48-6.11-7.92-9.29-11.82-3.33,3.44-6.85,6.7-9.88,10.34a16.79,16.79,0,0,0-2.25,6c-3.77,13.65-10.75,28,12.57,36.44-15.23,7.75-27.07,6-34.8-1.37-11.48-10.89-19.94-24.91-30-37.37a20.38,20.38,0,0,0-8.92-7.19,77.82,77.82,0,0,0-19.14-2.58c-3.47,0-7,1.65-10.52,2.58.95,3.41,1,7.6,3.07,10.16,11.3,14.12,23.28,27.72,34.73,41.69,12.21,14.81,12.08,15.8,1.27,31-7,9.8-13.76,19.73-20.69,29.55-.15.21-.8,0-2,.21.77-8.09,1.52-16.11,2.58-27.54l-22.68,12.26L403,451.64c4.29-7.34,8.87-14.56,12.72-22.11,1.4-2.76,2.59-7.32,1.19-9.36s-6.1-2.58-9.08-1.94c-14,2.59-27.87,5.38-41.68,8.64-15.93,3.75-17.22,2.59-14.33-14q1.74-10.22,3.11-20.43c1.29-9.57-2.59-14.27-12.62-15-29.53-2.14-29.35-2.32-15.78-29.45,2.59-5,3.21-10.94,4.76-16.45A119.23,119.23,0,0,0,314.06,333c-9.39,2.14-18.57,5.17-27.83,8l-1.86-3.21c8.9-10.34,16.86-21.46,26.84-30.51,26.43-23.84,37-54.79,43.24-88.31a192.22,192.22,0,0,1,8-27.2c5.51-16,4.29-19.24-11.33-27.18a38.47,38.47,0,0,1-5.43-3.38c-.59-.44-.8-1.43-1.71-3.16,16.84-3.33,14.92-12.93,9.73-25.52-4.35-10.6-5.67-22.47-8-33.82-2.84-13.79-5.38-27.65-8.17-42,12.13,11.82,23.87,24.52,36.95,35.64,12,10.18,25.39,18.67,38.22,27.9.67.49,1.71.62,2.25,1.21,13.5,14.46,28.11,25.21,49.13,15.13,24.7,17.07,50-7,75.12,1.11a91.74,91.74,0,0,0,30.31,3.26,26.35,26.35,0,0,0,16.21-6.78c23.66-23,46.83-46.54,69.82-70.28,7.6-7.76,14.35-16.52,21.49-24.8l3.85,1.55c-2.43,18.11-5.17,36.21-7.11,54.31-.8,7.75.62,15.93.62,23.92,0,2.79-1.81,5.61-1.76,8.4a135.43,135.43,0,0,0,1.6,14.35c.52,4.06,1.43,8.1,1.61,12.18,0,1.48-1.37,3.1-2.3,4.55-12.18,19.27-14.41,39.31-7.76,61.42,3.52,11.74,3.44,24.67,4.16,37.1.67,11.64,4.84,20.35,15,26.82,13.68,8.66,26.74,18.31,43,29.58l-32.73,10.34c-13.89,4.37-14.25,5.77-7.48,18.86,5.36,10.34,10,21.1,15,31.65l-3.41,3.41c-9.31-2.59-18.54-5.17-27.9-7.4a40,40,0,0,0-9.72.13c0,3.24-.62,6.8.51,9.62,5.51,13.79,11.54,27.36,17.38,41l-2.82,3L637.49,403.6l-4,3.2,25.86,57.41c-9.75-2.59-16.16-3.72-22.16-5.92-12.1-4.48-24-9.41-36-14.41-7.14-3-10.5-.64-11.33,6.81-1.08,9.61-2.43,19.21-3.64,28.83Zm-104-201.43c-2.92-6-6.39-15.67-11.92-24-10.58-15.75-46.34-18.95-58.19-5.4-10.86,12.33-21.48,24.92-31.47,38a13.36,13.36,0,0,0-1.08,12.1,150.62,150.62,0,0,0,19.39,25.68c12.78,13.24,27.28,14.48,43,5.17,5.17-3,10.55-5.84,15.88-8.63C470.68,313.14,477.12,299.36,479.45,278.42Zm123-35.59c-20.12,1.66-40.65,9.83-54.79,30.21-5.93,8.53-8.85,17.45-3.8,27.79,6.07,12.42,36.61,28.45,50,25.86a10.49,10.49,0,0,0,3.67-1.11c15.31-10.34,31.4-19.55,38.51-38.35C644.94,263.75,631.06,242.73,602.43,242.83Z" transform="translate(-284.37 -39.04)"/><path class="a" d="M428.84,524.27c3.75,8.46,7.63,16.84,11.22,25.37,5.82,13.84,10.35,29.22,32.95,19.14v3.75a82,82,0,0,1-8.25,11.35C446,602.29,427,620.39,408.18,638.75c-10.14,9.9-9,15.1,4.53,19.81A67,67,0,0,0,430.34,662c18.31,1.09,17,.52,21.44-17.09,4.14-16.45,13.29-31,27.67-45.51,4.24,16.65,7.19,30.41,11.43,43.75,1.42,4.48,6.1,7.91,9.28,11.82,3.34-3.44,6.85-6.7,9.88-10.34a16.67,16.67,0,0,0,2.25-6c3.77-13.66,10.75-28-12.57-36.44,15.23-7.76,27.07-6,34.81,1.37,11.48,10.89,19.93,24.9,30,37.37a20.32,20.32,0,0,0,8.92,7.19,77.68,77.68,0,0,0,19.13,2.58c3.47,0,7-1.65,10.53-2.58-1-3.42-1-7.61-3.08-10.17-11.3-14.11-23.27-27.72-34.73-41.68-12.2-14.82-12.07-15.8-1.27-31,7-9.8,13.76-19.73,20.69-29.56.16-.2.8,0,2-.2-.78,8.09-1.53,16.11-2.59,27.54l22.68-12.26,2.58,1.71c-4.29,7.34-8.86,14.55-12.72,22.1-1.39,2.77-2.58,7.32-1.19,9.37s6.11,2.58,9.08,1.93c14-2.58,27.87-5.37,41.68-8.63,15.93-3.75,17.23-2.59,14.33,14q-1.74,10.21-3.1,20.43c-1.3,9.56,2.58,14.27,12.62,15,29.53,2.15,29.34,2.33,15.77,29.46-2.59,5-3.21,10.94-4.76,16.44a118,118,0,0,0,17.2-1.42c9.38-2.15,18.56-5.17,27.82-8l1.86,3.2c-8.89,10.35-16.86,21.47-26.84,30.52-26.43,23.84-37,54.79-43.23,88.3a195,195,0,0,1-8,27.21c-5.51,16-4.3,19.23,11.32,27.17a38.53,38.53,0,0,1,5.43,3.39c.6.44.8,1.42,1.71,3.16-16.84,3.33-14.92,12.92-9.72,25.52,4.34,10.6,5.66,22.47,8,33.82,2.85,13.78,5.38,27.64,8.17,42-12.12-11.82-23.86-24.52-36.95-35.64-12-10.19-25.39-18.67-38.22-27.9-.67-.49-1.7-.62-2.25-1.21-13.5-14.46-28.11-25.22-49.13-15.13-24.69-17.07-50,7-75.12-1.11a91.45,91.45,0,0,0-30.3-3.26A26.45,26.45,0,0,0,426.59,870c-23.66,23-46.83,46.55-69.82,70.29-7.6,7.75-14.35,16.52-21.48,24.8l-3.86-1.56c2.43-18.1,5.17-36.2,7.11-54.3.81-7.76-.62-15.93-.62-23.92,0-2.79,1.81-5.61,1.76-8.4a135.43,135.43,0,0,0-1.6-14.35c-.52-4.06-1.42-8.1-1.6-12.18,0-1.48,1.37-3.11,2.3-4.55,12.18-19.27,14.4-39.31,7.75-61.42-3.51-11.74-3.44-24.67-4.16-37.11-.67-11.63-4.83-20.35-15-26.81-13.68-8.66-26.73-18.31-43-29.58l32.74-10.35c13.88-4.37,14.25-5.76,7.47-18.85-5.35-10.34-10-21.1-15-31.65l3.41-3.41c9.31,2.58,18.54,5.17,27.9,7.39a39.12,39.12,0,0,0,9.73-.13c0-3.23.62-6.8-.52-9.62-5.51-13.78-11.53-27.35-17.38-41l2.82-3,39.23,20.25,4-3.21L353,539.92c9.75,2.58,16.16,3.72,22.16,5.92,12.11,4.47,24.05,9.41,36,14.4,7.14,3,10.5.65,11.33-6.8,1.09-9.62,2.43-19.21,3.65-28.83Zm104,201.44c2.92,6,6.38,15.67,11.92,23.95,10.57,15.75,46.33,19,58.18,5.4,10.86-12.33,21.49-24.93,31.47-38A13.38,13.38,0,0,0,635.5,705a150.42,150.42,0,0,0-19.39-25.67c-12.77-13.24-27.28-14.48-43-5.18-5.17,3-10.55,5.85-15.87,8.64C541.61,691,535.17,704.77,532.85,725.71Zm-123,35.58c20.12-1.65,40.65-9.82,54.8-30.2,5.92-8.53,8.84-17.45,3.8-27.8-6.08-12.41-36.62-28.44-50-25.86a10.78,10.78,0,0,0-3.67,1.12c-15.31,10.34-31.39,19.55-38.5,38.34C367.35,740.37,381.24,761.4,409.86,761.29Z" transform="translate(-284.37 -39.04)"/></svg>