<svg xmlns="http://www.w3.org/2000/svg" viewBox="0 0 831.29 875.26"><defs><style>.a{fill:#fff;}</style></defs><title>face_10</title><path class="a" d="M154.6,505.63c11.38-14.36,24-27.72,34.22-43,7.22-10.79,7.14-12.24-.18-22-15-20.05-20.63-43.44-24.48-67.44a292,292,0,0,1-2.78-38.64c-.07-4.07,1.05-8.46-2.39-12.22-10.11-2.44-19.83-4.88-30.72.9-6.92,3.67-16.32,2.26-24.91,5.62L91.78,319.2c-.11-5,3-5.62,5.72-6.51a171.9,171.9,0,0,1,55.29-8.76c4.5.06,10,1.32,11.42-4.72a10,10,0,0,0-5.32-11.81c-9.29-4.78-10.6-12.52-10.23-22a65.15,65.15,0,0,0-15.78-44.93A58,58,0,0,1,120,196.61c-2.15-8.61-6.38-16.73-9.66-25,5.35-3.05,8.55.09,12,2.37,6.37,4.32,12.43,9.65,14.23,17,5.47,22.24,24.31,37.92,28.87,60.44a4.73,4.73,0,0,0,5,4.43l.29,0c3.51-1.72,2.95-5.62,4-8.58a174.85,174.85,0,0,1,34.18-59.13c4.92-5.54,6.11-10.8,1.78-16.77s-4.71-14.2-8.76-20.66c-3.66-5.83-7.85-8.53-14.38-4.45a22.12,22.12,0,0,1-9.35,3.38c-9.45,1-13.69-3.43-13.32-13.83a6.88,6.88,0,0,1,1.74-1.83c28.2-13.42,30.28-12.76,51.56,11.87,4.89,5.71,6.52,14.77,14,16.93,7.93,2.31,13.17-5.94,20-8.8,22.09-9.3,44.31-10.81,67-2.29,13.13,4.93,13,4.62,22.25-5.89a71.07,71.07,0,0,1,11.34-9.87c5.89-4.43,8.46-8.93,2.72-15.5-5-5.66-2.84-10.85,2.22-15.18,3.45-2.8,6.68-7.16,11.92-4s8.9,8.11,7.52,13.25c-2.47,9.4-4.1,20-14.91,24.68a23,23,0,0,0-9.68,9.53c-8.18,12.37-7.93,15.94,3.77,24.77,16.26,12.29,28.75,27.73,39.55,44.77a38.48,38.48,0,0,0,4.73,5.84c.46.56,1.5.62,2.84,1.11,5.44-2.31,7.62-8,10.89-12.57,5.08-7.09,9.29-14.83,14.37-22a62.55,62.55,0,0,0,11.63-29.44c1.34-11.3,4.77-22.66,14.09-31.25a61.49,61.49,0,0,1,15.13,17.62c-6.62,8.33-10.36,17.2-6.74,27.78,1.58,4.62-.93,8-3.79,11.24-14.65,16.2-25.08,35.27-36.24,53.84-5.68,9.41-7.73,19.17-3.49,29.85a158.06,158.06,0,0,1,8.33,33.17c5.42,4.41,11,3,16.28,2.69,12.39-.63,24.94-2.1,37.42-2.61,9.85-.42,11.41.67,18.81,8.28-7.11,11.12-17.9,14.52-30.09,12.44-13.22-2.18-25.63.61-40.22,3.41-1.54,27-2.2,54.58-13,80.75,19.74,13.6,41.7,22.26,59.3,38.2a41.28,41.28,0,0,1-14.35,12.09c-10.55-3-18.77-9.54-27.59-14.93S416.82,432,405.69,430.79c-13.47,17-27.92,32.33-47.19,42.54-9,4.81-17.86,9.78-27.65,11.27-38.84,6-77.27,7.47-112-15.83-6.94-4.57-12-2.33-16,3.33-5.64,7.8-12.48,14.55-17.78,22.61-5.79,8.8-13.18,16.28-24.11,18.7ZM274.46,256.28c-5.31-2.92-9.46-2-13.53-1.53a266.52,266.52,0,0,0-54.65,12.43c-15.76,5-23.56,16.31-26.44,31.77a195.24,195.24,0,0,0-.39,66c.56,3.54-.57,7.72,3.11,10.38,15.5.94,22.9,6.45,26.93,20.6,2.55,9,3.32,18-1.23,26.79-1.65,3.18-4.69,7-2.45,10.5,7.7,12,16.48,23.82,31,27.33,9.24,2.17,18.62,4.24,28,6.63a167.14,167.14,0,0,0,65.75,4.72c11.65-1.54,13.61-3.78,14.16-15.7-1.43-3.43-6.31-2.69-7.54-7.5,3.27-8.42,11.32-12.6,18.34-17.43,18.24,8.65,18.24,8.65,16.09,20.91a6,6,0,0,0,2.32.12,15.13,15.13,0,0,0,3.23-1.88c15.72-11.14,21.05-28.39,26.36-45.54,1.26-4-.43-7.36-3-8.24a7.51,7.51,0,0,0-7.35,1.71A7.12,7.12,0,0,1,386,399c-6.52-12.36-8.4-21.79-5.12-30.87,5.18-14.36,16.1-22.74,31.76-26.89-2.73-12.07.78-24.28-5.62-35.27-5.47,1.21-6.68,5.64-9.23,8.74a32.51,32.51,0,0,1-14.92,10.91c-12.87,4.25-22.55-1.25-24.92-14.39a68.8,68.8,0,0,0-2.72-13.4c-4.2-10.36-5.66-19.82,5.12-26.34a7,7,0,0,0-4.82-5c-17.17-8.29-35.9-10.58-54.43-13.91-11.34-2-14.44.76-13.57,12.66a287.45,287.45,0,0,1-1,42.42c-1.67,22.64-6.7,45.94,8.74,66.44,1.58,1.95,2.36,4.54,3.76,6.63a24.74,24.74,0,0,1,1.91,26.21c-4.81,8.74-3.38,16.71-1.78,25.12a159.4,159.4,0,0,0,5,19.34c2,6.92-2.43,10.39-7.56,12.42-5.85,2.29-8.11-2.52-9.71-7-1.13-3.11-1.36-6.6-2.67-9.61-2.29-5.17-.83-12-6.78-15.55-27.58,3.44-38.21.13-46.07-26.19a28.82,28.82,0,0,1,2.85-22.92c8.11-14.77,22.87-12.72,38.54-13.36C269.6,330.69,275.79,293.23,274.46,256.28Z" transform="translate(-91.78 -79.96)"/><path class="a" d="M245,319.45c-5.64,6.51-15.26,7.51-23.47,11.3a7,7,0,0,1-8.11-1.42,25.72,25.72,0,0,1-2.81-36.27,25.4,25.4,0,0,1,3.14-3.08,53.39,53.39,0,0,1,9-6.66c12.73-7.4,27-2.53,32.71,11.19C259.23,303.5,256.76,309.89,245,319.45Z" transform="translate(-91.78 -79.96)"/><path class="a" d="M323.59,369.29c-13.33-5.57-15.31-13.38-6.64-24.09,7.6-9.39,18-12.67,27.44-8.51a21.41,21.41,0,0,1,12.06,22.46c-.86,6-18.52,23.57-24,23.09C324.62,381.58,322.38,376,323.59,369.29Z" transform="translate(-91.78 -79.96)"/><path class="a" d="M574.87,955.22c-3.63-8.19-7.38-16.3-10.87-24.57-5.63-13.4-10-28.3-31.9-18.53v-3.63a78.32,78.32,0,0,1,8-11c18.13-17.83,36.59-35.36,54.8-53.15,9.81-9.59,8.74-14.62-4.39-19.18a65,65,0,0,0-17.08-3.36c-17.73-1-16.45-.5-20.76,16.56-4,15.93-12.87,30-26.8,44.08-4.11-16.13-7-29.46-11.07-42.38-1.38-4.33-5.91-7.66-9-11.45-3.23,3.33-6.64,6.49-9.57,10a16,16,0,0,0-2.18,5.81c-3.66,13.23-10.42,27.15,12.17,35.29-14.75,7.52-26.22,5.81-33.71-1.33-11.12-10.54-19.31-24.11-29-36.19a19.7,19.7,0,0,0-8.64-7,75.27,75.27,0,0,0-18.53-2.5c-3.36,0-6.79,1.6-10.19,2.5.92,3.31,1,7.36,3,9.84,10.94,13.68,22.54,26.85,33.63,40.38,11.82,14.35,11.7,15.3,1.23,30-6.74,9.5-13.32,19.11-20,28.63-.15.2-.77,0-1.9.2.75-7.84,1.48-15.6,2.5-26.67l-22,11.87-2.51-1.65c4.16-7.12,8.6-14.11,12.33-21.42,1.35-2.68,2.5-7.09,1.15-9.07s-5.91-2.5-8.79-1.87c-13.53,2.5-27,5.21-40.38,8.36-15.42,3.63-16.68,2.51-13.87-13.55q1.68-9.89,3-19.78c1.26-9.27-2.5-13.83-12.22-14.53-28.6-2.08-28.43-2.26-15.28-28.53,2.51-4.86,3.11-10.59,4.61-15.93A116,116,0,0,0,314,813c-9.09,2.08-18,5-26.95,7.71l-1.81-3.1c8.62-10,16.33-20.79,26-29.56,25.6-23.09,35.84-53.07,41.88-85.53a187.59,187.59,0,0,1,7.74-26.35c5.33-15.52,4.16-18.63-11-26.32a36.68,36.68,0,0,1-5.26-3.28c-.58-.43-.78-1.38-1.66-3.06,16.31-3.23,14.46-12.52,9.42-24.72-4.21-10.26-5.48-21.76-7.76-32.76-2.76-13.34-5.21-26.77-7.92-40.67,11.75,11.45,23.12,23.74,35.79,34.51,11.6,9.87,24.6,18.09,37,27,.65.47,1.65.6,2.18,1.18,13.07,14,27.23,24.41,47.59,14.65,23.92,16.53,48.41-6.82,72.76,1.07a88.68,88.68,0,0,0,29.35,3.16,25.59,25.59,0,0,0,15.7-6.56C600,598,622.41,575.28,644.68,552.28c7.36-7.51,13.9-16,20.81-24l3.73,1.51c-2.35,17.53-5,35.06-6.89,52.59-.77,7.52.61,15.43.61,23.17,0,2.71-1.76,5.44-1.71,8.14a129.6,129.6,0,0,0,1.56,13.9c.5,3.93,1.37,7.84,1.55,11.8,0,1.43-1.33,3-2.23,4.41-11.8,18.65-14,38.07-7.51,59.48,3.4,11.37,3.33,23.89,4,35.94.65,11.27,4.68,19.71,14.52,26,13.25,8.39,25.9,17.74,41.66,28.66l-31.71,10c-13.45,4.24-13.8,5.59-7.24,18.26,5.18,10,9.69,20.44,14.5,30.66l-3.31,3.3c-9-2.5-17.95-5-27-7.16a38.57,38.57,0,0,0-9.42.13c0,3.13-.6,6.58.5,9.31,5.34,13.35,11.17,26.5,16.83,39.7L665.21,901l-38-19.61-3.91,3.11,25.05,55.6c-9.44-2.51-15.65-3.61-21.47-5.74-11.72-4.33-23.29-9.11-34.83-14-6.92-2.9-10.17-.62-11,6.59-1.06,9.32-2.36,18.61-3.54,27.92ZM474.14,760.11c-2.83-5.81-6.19-15.17-11.55-23.19-10.24-15.25-44.88-18.36-56.35-5.23-10.52,11.94-20.81,24.14-30.48,36.79a12.93,12.93,0,0,0-1.05,11.72,145.33,145.33,0,0,0,18.78,24.87c12.38,12.82,26.43,14,41.63,5,5-2.93,10.22-5.66,15.38-8.37C465.65,793.75,471.89,780.4,474.14,760.11Zm119.12-34.46c-19.49,1.6-39.37,9.52-53.07,29.25-5.74,8.27-8.57,16.91-3.69,26.93,5.89,12,35.47,27.55,48.47,25a10.29,10.29,0,0,0,3.55-1.07c14.83-10,30.41-18.94,37.3-37.15C634.43,745.91,621,725.55,593.26,725.65Z" transform="translate(-91.78 -79.96)"/><path class="a" d="M566.31,471.63C578.55,458,592,445.45,603.12,430.85c7.87-10.31,7.88-11.77,1.19-22-13.77-20.95-17.9-44.64-20.26-68.83a292.9,292.9,0,0,1-.37-38.74c.18-4.07,1.57-8.38-1.63-12.34-9.94-3.07-19.49-6.1-30.72-1-7.13,3.24-16.42,1.26-25.21,4.08l-11-10.37c.21-5,3.3-5.43,6.11-6.14A171.92,171.92,0,0,1,577,270.2c4.49.34,9.88,1.94,11.7-4a10,10,0,0,0-4.58-12.12c-9-5.34-9.81-13.15-8.85-22.63a65.13,65.13,0,0,0-13-45.83A58.16,58.16,0,0,1,551,161.06c-1.61-8.73-5.33-17.09-8.09-25.58,5.54-2.72,8.53.62,11.78,3.1,6.09,4.71,11.82,10.41,13.16,17.85,4.07,22.53,21.9,39.35,25.06,62.11a4.74,4.74,0,0,0,4.74,4.73h.29c3.6-1.5,3.29-5.43,4.49-8.32A174.94,174.94,0,0,1,640.16,158c5.26-5.22,6.77-10.39,2.82-16.62s-3.83-14.47-7.46-21.16c-3.3-6.05-7.31-9-14.08-5.34a22.11,22.11,0,0,1-9.54,2.8c-9.5.4-13.45-4.28-12.44-14.63a6.88,6.88,0,0,1,1.85-1.72c29-11.65,31-10.86,50.72,15,4.53,6,5.6,15.14,12.89,17.76,7.77,2.79,13.51-5.12,20.46-7.55,22.62-7.92,44.89-8,67,1.87,12.8,5.73,12.72,5.42,22.57-4.5a71.55,71.55,0,0,1,11.93-9.15c6.16-4,9-8.39,3.68-15.29-4.59-6-2.16-11,3.16-15,3.61-2.57,7.11-6.72,12.14-3.24s8.38,8.64,6.69,13.69c-3,9.22-5.34,19.74-16.41,23.7a23.13,23.13,0,0,0-10.26,8.91c-8.93,11.85-8.9,15.43,2.23,25,15.46,13.27,27,29.46,36.69,47.14a38.19,38.19,0,0,0,4.36,6.12c.43.59,1.47.71,2.77,1.29,5.57-2,8.11-7.57,11.65-11.88,5.51-6.76,10.19-14.22,15.71-21.11a62.69,62.69,0,0,0,13.44-28.65c2-11.2,6.16-22.33,16-30.32a61.53,61.53,0,0,1,14,18.52c-7.12,7.91-11.4,16.53-8.45,27.32,1.29,4.7-1.43,8-4.48,11-15.63,15.27-27.22,33.65-39.51,51.49C844,232.49,841.38,242.1,845,253a158.83,158.83,0,0,1,6.26,33.62c5.13,4.74,10.8,3.68,16.08,3.7,12.4.14,25-.55,37.5-.29,9.86.2,11.35,1.38,18.26,9.44-7.78,10.65-18.76,13.37-30.8,10.55-13-3-25.62-1-40.36.91-3.21,26.9-5.58,54.33-18,79.78,18.85,14.8,40.23,24.81,56.81,41.81a41.35,41.35,0,0,1-15.07,11.17c-10.34-3.63-18.14-10.68-26.61-16.61s-16.48-12.67-27.51-14.59C807.05,428.63,791.67,443,771.82,452c-9.28,4.25-18.44,8.66-28.3,9.54-39.14,3.61-77.59,2.66-110.81-22.74-6.64-5-11.79-3.07-16.21,2.33-6.11,7.43-13.36,13.74-19.15,21.46C591,471,583.19,478,572.12,479.78ZM701.39,230.2c-5.11-3.25-9.31-2.59-13.41-2.37a266.38,266.38,0,0,0-55.31,9c-16,4-24.53,14.82-28.36,30.07a195.07,195.07,0,0,0-4.48,65.89c.33,3.57-1.05,7.67,2.45,10.55,15.41,1.9,22.46,7.86,25.6,22.23,2,9.13,2.21,18.15-2.88,26.67-1.85,3.06-5.12,6.72-3.1,10.32,6.94,12.5,15,24.8,29.28,29.2,9.1,2.75,18.33,5.39,27.5,8.36A167.15,167.15,0,0,0,744,448.92c11.72-.82,13.82-2.93,15.1-14.8-1.2-3.51-6.12-3.07-7.05-7.95,3.78-8.2,12.08-11.88,19.39-16.26,17.67,9.77,17.67,9.77,14.76,21.87a5.86,5.86,0,0,0,2.31.26,14.63,14.63,0,0,0,3.33-1.67c16.39-10.15,22.77-27,29.14-43.82,1.5-3.93,0-7.37-2.53-8.41a7.52,7.52,0,0,0-7.44,1.25,7.14,7.14,0,0,1-7.15.15c-5.74-12.74-7-22.28-3.19-31.13,6.06-14,17.47-21.7,33.36-24.87-2-12.22,2.29-24.18-3.42-35.55-5.53.87-7,5.21-9.75,8.15a32.64,32.64,0,0,1-15.57,10c-13.11,3.44-22.43-2.64-24-15.9a69.52,69.52,0,0,0-1.88-13.55c-3.56-10.6-4.42-20.14,6.74-26a7,7,0,0,0-4.5-5.31C765,236,746.5,232.58,728.21,228.12c-11.19-2.76-14.47-.15-14.33,11.78a286.49,286.49,0,0,1-3.69,42.28c-3.06,22.49-9.53,45.44,4.61,66.86,1.45,2,2.07,4.67,3.34,6.84a24.73,24.73,0,0,1,.29,26.28c-5.35,8.43-4.41,16.47-3.34,25a158.26,158.26,0,0,0,3.77,19.61c1.54,7-3.07,10.23-8.32,11.93-6,1.93-7.93-3-9.26-7.54-.94-3.18-.94-6.68-2.06-9.76-2-5.3-.09-12-5.81-15.95-27.74,1.73-38.14-2.24-44.36-29a28.88,28.88,0,0,1,4.27-22.71c9-14.23,23.62-11.27,39.29-10.94C691.93,304.16,700.43,267.15,701.39,230.2Z" transform="translate(-91.78 -79.96)"/><path class="a" d="M668.05,291.41c-6,6.15-15.7,6.55-24.13,9.82a7.05,7.05,0,0,1-8-1.91,25.73,25.73,0,0,1-.55-36.38,25.31,25.31,0,0,1,3.32-2.88,54.18,54.18,0,0,1,9.4-6.09c13.18-6.6,27.08-.85,32,13.2C683.26,276.38,680.41,282.6,668.05,291.41Z" transform="translate(-91.78 -79.96)"/><path class="a" d="M743.42,346c-12.95-6.39-14.45-14.31-5.13-24.46,8.17-8.9,18.72-11.53,27.91-6.8A21.43,21.43,0,0,1,776.85,338c-1.23,5.95-20,22.38-25.36,21.56C743.69,358.36,741.79,352.64,743.42,346Z" transform="translate(-91.78 -79.96)"/></svg>