<svg xmlns="http://www.w3.org/2000/svg" viewBox="0 0 518.26 76.09"><defs><style>.a{fill:none;stroke:#fff;stroke-miterlimit:10;stroke-width:3px;}.b{fill:#fff;}</style></defs><title>rules-active</title><rect class="a" x="1.5" y="1.5" width="515.26" height="73.09" rx="12"/><path class="b" d="M38.68,69a15.16,15.16,0,0,1-11.52-4.66q-4.39-4.67-4.4-12.15,0-8,4.46-12.82t12-4.83a14.55,14.55,0,0,1,11.26,4.65q4.27,4.65,4.27,12.26a22.38,22.38,0,0,1-1.44,8.27,13.32,13.32,0,0,1-4.23,5.81l5.9,4.7L51,74.3l-6.74-6a21.09,21.09,0,0,1-2.67.52A22.42,22.42,0,0,1,38.68,69ZM39,39.52a9.23,9.23,0,0,0-7.45,3.38,13.44,13.44,0,0,0-2.83,8.92,13.46,13.46,0,0,0,2.77,8.88,9,9,0,0,0,7.27,3.35,9.12,9.12,0,0,0,7.4-3.21q2.67-3.21,2.67-8.93,0-5.91-2.59-9.15A8.75,8.75,0,0,0,39,39.52Z" transform="translate(-17.06 -14.98)"/><path class="b" d="M87.11,54.47q0,7.28-3.33,10.9T73.79,69q-6.42,0-9.63-3.51T61,54.91V35.1H66.6V54.86q0,4.59,1.89,6.88a6.86,6.86,0,0,0,5.65,2.31,6.66,6.66,0,0,0,5.49-2.24c1.22-1.48,1.83-3.71,1.83-6.67v-20h5.65Z" transform="translate(-17.06 -14.98)"/><path class="b" d="M114.15,68.44H95.36V35.1h18v4.79H101v9.3h11.51V54H101v9.71h13.14Z" transform="translate(-17.06 -14.98)"/><path class="b" d="M120.52,68.44V35.1H131.3c3.29,0,5.85.7,7.69,2.08A6.86,6.86,0,0,1,141.74,43a7.72,7.72,0,0,1-1.56,4.8A8.13,8.13,0,0,1,136,50.65v.1a8.18,8.18,0,0,1,5.27,2.54,7.73,7.73,0,0,1,2,5.41,8.78,8.78,0,0,1-3.17,7.08,12.56,12.56,0,0,1-8.33,2.66Zm5.65-28.83V49.1h3.69a6.59,6.59,0,0,0,4.35-1.34,4.56,4.56,0,0,0,1.6-3.71,3.89,3.89,0,0,0-1.48-3.35,7.61,7.61,0,0,0-4.47-1.09Zm0,14V63.93h4.72a7.13,7.13,0,0,0,4.73-1.43,4.84,4.84,0,0,0,1.68-3.89,4.33,4.33,0,0,0-1.74-3.71,8.43,8.43,0,0,0-5.07-1.29Z" transform="translate(-17.06 -14.98)"/><path class="b" d="M175.17,68.44h-6.51l-5.09-8.86a12,12,0,0,0-2.46-3.22,4.34,4.34,0,0,0-2.63-.94h-2.95v13h-5.65V35.1h10.88q5.2,0,8.17,2.33c2,1.55,3,3.86,3,6.92A9.14,9.14,0,0,1,170,50.19a10.81,10.81,0,0,1-5.2,3.51v.09a6.88,6.88,0,0,1,2.29,1.64A15.58,15.58,0,0,1,169,58.07ZM155.53,39.68V50.82h4.3a6,6,0,0,0,4.38-1.68,5.68,5.68,0,0,0,1.71-4.25,4.93,4.93,0,0,0-1.51-3.84,6.48,6.48,0,0,0-4.47-1.37Z" transform="translate(-17.06 -14.98)"/><path class="b" d="M176.27,68.44,188.73,35.1h6.41l12.37,33.34h-6.23l-2.79-8H185.17l-2.72,8Zm10.36-12.6H197L192.4,42.68c-.11-.34-.21-.68-.29-1s-.17-.78-.25-1.29h-.13c-.08.45-.16.85-.25,1.22s-.18.71-.29,1.05Z" transform="translate(-17.06 -14.98)"/><path class="b" d="M237.83,68.44h-6.51l-5.09-8.86a11.75,11.75,0,0,0-2.47-3.22,4.32,4.32,0,0,0-2.63-.94h-2.95v13h-5.65V35.1h10.88c3.47,0,6.2.78,8.17,2.33s3,3.86,3,6.92a9.08,9.08,0,0,1-1.9,5.84,10.78,10.78,0,0,1-5.19,3.51v.09a7,7,0,0,1,2.29,1.64,15.55,15.55,0,0,1,1.94,2.64ZM218.18,39.68V50.82h4.3a6,6,0,0,0,4.38-1.68,5.68,5.68,0,0,0,1.71-4.25,4.93,4.93,0,0,0-1.51-3.84,6.43,6.43,0,0,0-4.46-1.37Z" transform="translate(-17.06 -14.98)"/><path class="b" d="M280.74,68.44h-6.51l-5.09-8.86a11.75,11.75,0,0,0-2.47-3.22,4.32,4.32,0,0,0-2.63-.94h-3v13h-5.65V35.1h10.88c3.47,0,6.2.78,8.17,2.33s3,3.86,3,6.93a9.08,9.08,0,0,1-1.9,5.83,10.78,10.78,0,0,1-5.19,3.51v.09a6.88,6.88,0,0,1,2.29,1.64,15,15,0,0,1,1.94,2.64ZM261.09,39.68V50.82h4.3a6,6,0,0,0,4.39-1.68,5.71,5.71,0,0,0,1.7-4.25A4.93,4.93,0,0,0,270,41.05a6.43,6.43,0,0,0-4.46-1.37Z" transform="translate(-17.06 -14.98)"/><path class="b" d="M304.33,68.44H285.55V35.1h18v4.79H291.2v9.3h11.51V54H291.2v9.71h13.13Z" transform="translate(-17.06 -14.98)"/><path class="b" d="M324.49,69A15.16,15.16,0,0,1,313,64.34q-4.41-4.67-4.4-12.15,0-8,4.46-12.82t12-4.83a14.57,14.57,0,0,1,11.27,4.65q4.26,4.65,4.26,12.26a22.38,22.38,0,0,1-1.44,8.27,13.32,13.32,0,0,1-4.23,5.81l5.91,4.7-4,4.07-6.74-6a21.27,21.27,0,0,1-2.68.52A22.15,22.15,0,0,1,324.49,69Zm.3-29.48a9.24,9.24,0,0,0-7.45,3.38,13.49,13.49,0,0,0-2.82,8.92,13.51,13.51,0,0,0,2.76,8.88,9.84,9.84,0,0,0,14.67.14c1.78-2.14,2.68-5.12,2.68-8.93s-.87-7-2.6-9.15A8.74,8.74,0,0,0,324.79,39.52Z" transform="translate(-17.06 -14.98)"/><path class="b" d="M372.92,54.47q0,7.28-3.33,10.9t-10,3.63q-6.4,0-9.62-3.51t-3.21-10.58V35.1h5.65V54.86c0,3.06.63,5.35,1.88,6.89a6.89,6.89,0,0,0,5.65,2.3,6.69,6.69,0,0,0,5.5-2.24c1.22-1.48,1.83-3.71,1.83-6.67v-20h5.65Z" transform="translate(-17.06 -14.98)"/><path class="b" d="M386.86,68.44h-5.67V35.1h5.67Z" transform="translate(-17.06 -14.98)"/><path class="b" d="M392.86,66l2.51-4.37a17.44,17.44,0,0,0,4.25,2,14.72,14.72,0,0,0,4.33.6,7.27,7.27,0,0,0,4.5-1.24,4.64,4.64,0,0,0,.28-6.82,13,13,0,0,0-4.64-2.2c-3.42-1-5.94-2.23-7.53-3.73a7.91,7.91,0,0,1-2.4-6.08,8.83,8.83,0,0,1,3.11-6.89c2.07-1.84,4.88-2.76,8.45-2.76a19.92,19.92,0,0,1,4.62.54,20.13,20.13,0,0,1,4.47,1.65l-2.21,4.46A16.48,16.48,0,0,0,409,39.74a14.2,14.2,0,0,0-3.54-.45,6.62,6.62,0,0,0-4.13,1.15,3.85,3.85,0,0,0-1.5,3.24,3.5,3.5,0,0,0,1.37,2.92,16,16,0,0,0,4.75,2.1q5.22,1.52,7.52,3.86A8.84,8.84,0,0,1,415.74,59a9.26,9.26,0,0,1-3.13,7.21c-2.08,1.87-5.06,2.81-8.91,2.81a21.13,21.13,0,0,1-5.67-.76A19.8,19.8,0,0,1,392.86,66Z" transform="translate(-17.06 -14.98)"/><path class="b" d="M427.83,68.44h-5.68V35.1h5.68Z" transform="translate(-17.06 -14.98)"/><path class="b" d="M458,39.89H448.4V68.44h-5.65V39.89H433.2V35.1H458Z" transform="translate(-17.06 -14.98)"/><path class="b" d="M474.9,69a15.13,15.13,0,0,1-11.52-4.66Q459,59.68,459,52.19q0-8,4.46-12.81t12-4.84a14.7,14.7,0,0,1,11.33,4.67q4.32,4.65,4.31,12.24c0,5.34-1.48,9.61-4.44,12.78A15.28,15.28,0,0,1,474.9,69Zm.07-5a9.25,9.25,0,0,0,7.44-3.2c1.82-2.13,2.72-5.11,2.72-8.94s-.88-7-2.65-9.15a8.89,8.89,0,0,0-7.27-3.24,9.2,9.2,0,0,0-7.44,3.38A13.49,13.49,0,0,0,465,51.82c0,3.72.93,6.69,2.77,8.9A9,9,0,0,0,475,64.05Z" transform="translate(-17.06 -14.98)"/><path class="b" d="M494.92,66l2.51-4.37a17.39,17.39,0,0,0,4.24,2,14.83,14.83,0,0,0,4.34.6,7.27,7.27,0,0,0,4.5-1.24,4.64,4.64,0,0,0,.28-6.82,13.08,13.08,0,0,0-4.64-2.2q-5.14-1.48-7.53-3.73a7.91,7.91,0,0,1-2.4-6.08,8.83,8.83,0,0,1,3.11-6.89q3.09-2.76,8.45-2.76a19.89,19.89,0,0,1,9.09,2.19l-2.21,4.46A16.48,16.48,0,0,0,511,39.74a14.2,14.2,0,0,0-3.54-.45,6.62,6.62,0,0,0-4.13,1.15,3.85,3.85,0,0,0-1.5,3.24,3.5,3.5,0,0,0,1.37,2.92A16,16,0,0,0,508,48.7q5.22,1.52,7.52,3.86A8.84,8.84,0,0,1,517.8,59a9.29,9.29,0,0,1-3.13,7.21Q511.54,69,505.75,69a21.11,21.11,0,0,1-5.66-.76A19.8,19.8,0,0,1,494.92,66Z" transform="translate(-17.06 -14.98)"/></svg>