<svg xmlns="http://www.w3.org/2000/svg" viewBox="0 0 684.86 679.75"><defs><style>.a{fill:#fff;}</style></defs><title>face_6</title><path class="a" d="M234.49,915.64c20-23.34,42-44.92,60.13-69.85,12.79-17.62,12.74-20.06,1.11-36.91-23.92-34.59-31.79-74.16-36.71-114.64a489.19,489.19,0,0,1-2.16-65c.13-6.82,2.29-14.11-3.23-20.63-16.79-4.75-32.93-9.46-51.56-.48-11.83,5.72-27.5,2.75-42.12,7.83l-18.8-17c.15-8.35,5.32-9.23,10-10.54a288.17,288.17,0,0,1,93.26-11.14c7.54.39,16.64,2.87,19.46-7.18a16.82,16.82,0,0,0-8.16-20.14c-15.28-8.61-17-21.67-15.75-37.61a109.27,109.27,0,0,0-23.55-76.34,97.46,97.46,0,0,1-20-40.75c-3-14.57-9.61-28.45-14.58-42.58,9.17-4.78,14.33.7,19.88,4.74,10.4,7.64,20.23,17,22.77,29.4C232.18,424.55,262.76,452,269,490.09a7.93,7.93,0,0,0,8.13,7.74l.49,0c6-2.66,5.31-9.24,7.21-14.13a293.26,293.26,0,0,1,61.1-96.93c8.61-9,10.94-17.71,4.07-28s-7-24.11-13.36-35.2c-5.77-10-12.62-14.8-23.83-8.39a37.14,37.14,0,0,1-15.89,5.08c-15.91,1.05-22.73-6.65-21.44-24.05a11.41,11.41,0,0,1,3-3c48.13-20.69,51.59-19.45,85.67,23.22,7.83,9.89,10,25.18,22.31,29.28,13.15,4.38,22.47-9.12,34-13.47,37.63-14.18,75-15.28,112.47.47,21.68,9.11,21.55,8.58,37.67-8.44a120.17,120.17,0,0,1,19.65-15.83c10.16-7,14.76-14.42,5.55-25.79-7.93-9.82-4.06-18.39,4.71-25.32,6-4.46,11.65-11.57,20.24-5.93s14.39,14.16,11.76,22.69c-4.76,15.59-8.17,33.32-26.59,40.41a38.92,38.92,0,0,0-16.85,15.36c-14.51,20.22-14.32,26.22,4.74,41.77,26.46,21.64,46.41,48.33,63.41,77.6a65.25,65.25,0,0,0,7.56,10.09c.73,1,2.48,1.14,4.69,2.05,9.27-3.53,13.3-13,19.07-20.38,9-11.56,16.53-24.26,25.51-36a105.18,105.18,0,0,0,21.4-48.59c3-18.87,9.45-37.7,25.62-51.5a103.4,103.4,0,0,1,24.23,30.52c-11.63,13.55-18.47,28.18-13.09,46.15,2.36,7.84-2.07,13.42-7.07,18.58-25.61,26.23-44.32,57.53-64.22,87.94-10.13,15.41-14.2,31.64-7.77,49.82A265.29,265.29,0,0,1,705,594c8.8,7.75,18.27,5.74,27.12,5.57,20.81-.26,41.94-1.92,62.9-2,16.54-.06,19.09,1.86,31,15.1-12.63,18.18-30.93,23.18-51.24,18.92-22-4.5-43-.64-67.66,3.13-4.31,45.24-7.2,91.36-27,134.54,32.22,24.06,68.47,40,97,67.85a69.59,69.59,0,0,1-24.83,19.35c-17.5-5.69-30.85-17.21-45.3-26.81s-28.14-20.6-46.71-23.38c-23.68,27.62-48.9,52.4-81.85,68.27-15.39,7.49-30.58,15.25-47.08,17.12-65.51,7.61-130,7.55-186.76-33.74-11.33-8.1-19.89-4.68-27.1,4.56-9.95,12.71-21.86,23.58-31.26,36.76-10.28,14.38-23.14,26.43-41.63,29.79Zm217-410.31c-8.71-5.24-15.73-4-22.59-3.45a446.79,446.79,0,0,0-92.41,17.33c-26.75,7.39-40.55,25.82-46.37,51.56a327.28,327.28,0,0,0-4.9,110.68c.71,6-1.45,12.91,4.54,17.61,25.92,2.57,38,12.28,43.82,36.26,3.7,15.24,4.42,30.35-3.78,44.84-3,5.22-8.31,11.48-4.78,17.45,12.14,20.68,26.1,41,50.27,47.81,15.36,4.24,31,8.3,46.45,12.92a280.46,280.46,0,0,0,109.92,12.14c19.62-1.84,23-5.46,24.74-25.42-2.17-5.83-10.41-4.91-12.15-13,6-13.91,19.79-20.4,31.87-28,30,15.68,30,15.68,25.63,36.09,1.27.15,2.74.72,3.88.35a25,25,0,0,0,5.52-2.94c27.09-17.67,37.12-46.25,47.13-74.65,2.37-6.65-.24-12.37-4.57-14a12.61,12.61,0,0,0-12.43,2.39,12,12,0,0,1-12,.54c-10.12-21.14-12.67-37.09-6.58-52.09,9.61-23.75,28.45-37.08,55-43-3.8-20.41,2.88-40.65-7.14-59.49-9.25,1.67-11.56,9-16,14.06a54.54,54.54,0,0,1-25.71,17.33C606.89,634.8,591,625,587.88,602.79a115.72,115.72,0,0,0-3.69-22.65c-6.39-17.64-8.21-33.6,10.27-43.83a11.78,11.78,0,0,0-7.75-8.73c-28.26-15-59.51-20.05-90.36-26.81-18.88-4.17-24.27.34-23.56,20.34a482.46,482.46,0,0,1-4.5,71.06c-4.25,37.84-14.18,76.58,10.38,112,2.52,3.36,3.66,7.76,5.88,11.34a41.54,41.54,0,0,1,1.52,44.08c-8.63,14.34-6.74,27.78-4.6,42,1.43,11.16,4.32,22,7.11,32.74,2.85,11.73-4.76,17.27-13.48,20.34-10,3.47-13.43-4.74-15.83-12.29-1.71-5.28-1.85-11.16-3.85-16.28-3.51-8.81-.63-20.17-10.37-26.52-46.47,4-64.07-2.24-75.56-46.87a48.4,48.4,0,0,1,6.25-38.24c14.55-24.24,39.16-19.84,65.47-19.92C438.53,629.75,451.31,567.35,451.46,505.33Z" transform="translate(-141.15 -249.33)"/><path class="a" d="M398,609.33c-9.89,10.56-26.07,11.6-40.08,17.43a11.84,11.84,0,0,1-13.51-2.9,43.14,43.14,0,0,1,3.08-66A90.59,90.59,0,0,1,363,547.32c21.83-11.58,45.39-2.51,54.13,20.87C422.88,583.51,418.34,594.05,398,609.33Z" transform="translate(-141.15 -249.33)"/><path class="a" d="M526.56,698c-22-10.2-24.8-23.42-9.58-40.81,13.35-15.26,30.94-20.1,46.54-12.52a35.93,35.93,0,0,1,18.78,38.44c-1.83,10-32.56,38.32-41.67,37.16C527.5,718.61,524.09,709.09,526.56,698Z" transform="translate(-141.15 -249.33)"/></svg>