<svg xmlns="http://www.w3.org/2000/svg" viewBox="0 0 1500 1500"><defs><style>.a{fill:#fff;}</style></defs><title>face_9</title><path class="a" d="M1151.05,818.68c-6.64,23.4-15.3,46.2-20.06,70.12-3.35,16.9-2.51,18.64,11.43,26.89,28.65,16.92,47.42,42.76,64.37,70.21a388.51,388.51,0,0,1,23.08,46c2.16,5,3,10.9,9.15,13.76,13.64-2.15,26.8-4.11,37.21-16.74,6.61-8,18.85-11.09,27.67-19.59l19.12,6c2.67,6-.75,8.4-3.69,10.89A227.91,227.91,0,0,1,1256,1065c-5.54,2.22-12.9,3.46-11.6,11.61a13.3,13.3,0,0,0,12.54,11.76c13.83,1.13,19.38,9.95,23.78,21.82a86.45,86.45,0,0,0,42.22,47,77.09,77.09,0,0,1,27.9,22.64c7,9.46,16.34,17.26,24.59,25.76-5,6.48-10.54,4.25-15.86,3.19-10-2-20.16-5.5-26.11-13.59-18-24.48-49.1-34.1-66.16-59.39a6.3,6.3,0,0,0-8.42-2.87l-.34.18c-3.42,3.9-.75,8.4-.5,12.54a232.1,232.1,0,0,1-11.78,89.9c-3.21,9.3-2,16.35,6.35,21.47s13,15,21.26,20.86c7.47,5.29,14,6.46,19.91-1.86a29.24,29.24,0,0,1,9.73-8.91c11.08-6,18.54-2.76,23.38,10.17a9.3,9.3,0,0,1-1.2,3.14c-27.74,30.81-30.63,31.06-69.26,11.7-8.9-4.51-15.52-14.78-25.73-13.65-10.9,1.21-13.13,14-20,21-22.34,22.66-48.81,35.83-81,36.93-18.6.64-18.33,1-24.28,18.55a94.53,94.53,0,0,1-8.87,17.88c-5,8.43-5.83,15.26,4.56,20.38,8.95,4.42,9,11.86,5,19.76-2.79,5.17-4.53,12.17-12.57,11s-15-5.4-16-12.41c-1.75-12.78-5.18-26.65,5.71-37.85a30.68,30.68,0,0,0,7-16.61c3.73-19.34,1.6-23.59-17.24-28.45-26.19-6.79-49.37-19.35-71.29-34.75a51.93,51.93,0,0,0-8.77-4.75c-.85-.45-2.16,0-4,.08-5.49,5.62-5.25,13.76-7,21-2.62,11.28-3.84,22.91-6.39,34.34a83.18,83.18,0,0,0,.72,42c4.12,14.54,5.71,30.22-1.34,45.49a81.73,81.73,0,0,1-27.53-13.89c3.87-13.6,3.94-26.37-5.88-37.5-4.3-4.86-3-10.33-1.08-15.7,9.71-27.34,12.78-56,17-84.47,2.17-14.44-.29-27.44-10.93-38.38a209.72,209.72,0,0,1-27.11-36.42c-8.88-2.65-15,1.93-21.33,5-14.86,7.08-29.5,15.27-44.54,22.26-11.87,5.53-14.33,5-27.28-.57,3-17.25,14.55-26.91,30.55-30.58,17.32-4.06,31.12-13.8,47.58-24.67-11.89-33.94-25.1-68-25.19-105.61-31.12-6.62-62.46-6.06-92.16-16.63a55,55,0,0,1,11.43-22.13C813,1031,826.46,1034.88,840,1037s27.05,5.48,41.31,1.32c7.86-27.69,17.78-53.85,36.19-76.18,8.58-10.48,16.92-21.09,28.16-27.9,44.55-27.18,90.94-48.52,145.38-37.64,10.83,2.07,15.85-3.23,18-12.26,2.94-12.43,7.9-24.19,10.28-36.77,2.63-13.74,7.88-26.66,20-35.2Zm-20,366.74c8,.88,12.62-2.37,17.38-5a353.89,353.89,0,0,0,60.66-43.07c16.77-14.18,20.58-32,16.24-52.42a259.19,259.19,0,0,0-33.16-81.16c-2.49-4.06-3.23-9.75-9.1-11.15-19.48,6.75-31.36,3.76-43.5-11.53-7.71-9.73-13.23-20.35-12.14-33.48.4-4.73,2.16-11-2.35-14.12-15.57-10.83-32.33-20.8-52-17.69-12.44,2-25,4.29-37.65,6.1a221.83,221.83,0,0,0-83,27.7c-13.49,7.83-14.76,11.57-9.36,26.47,3.49,3.47,9.11.08,13.06,5.35.28,12-7.46,21.22-13.61,30.71-26.77-1.32-26.77-1.32-30.38-17.44-1,.31-2.21.39-2.9,1a19.76,19.76,0,0,0-3,3.93c-13.6,21.68-11.35,45.54-9.13,69.26.51,5.57,4.27,8.81,7.93,8.56a10,10,0,0,0,8.14-5.84,9.49,9.49,0,0,1,8.44-4.36c14.28,11.84,21.4,22.45,22,35.25,1,20.25-8.16,36.07-25.24,49.14,9.5,13.41,11.4,30.16,24.85,40.38,6.09-4.27,5.31-10.32,6.86-15.42a43.16,43.16,0,0,1,12.74-21c13.61-11.77,28.28-10,37.88,4.94a91.62,91.62,0,0,0,10.16,15.06c10.43,10.55,17,21.41,7.14,34.89a9.29,9.29,0,0,0,8.47,3.7c25.27,1.42,49.4-5.31,73.8-10.67,15-3.26,17.33-8.29,10.19-22.42a383.5,383.5,0,0,1-20.31-52.56c-9.48-28.6-15.18-59.73-44.55-77-2.93-1.58-5.2-4.36-8-6.21a32.83,32.83,0,0,1-15.69-31.16c1.44-13.17-4.37-22.2-10.61-31.7-4.73-7.55-10.4-14.39-16-21.17-5.93-7.48-2.31-14,3-19.09,6-5.79,11.22-1,15.44,3.59,3,3.23,5,7.41,8.17,10.42,5.44,5.17,7.13,14.29,16.23,15.62,32.07-18.27,46.78-19.62,69.83,8.64a38.32,38.32,0,0,1,8.18,29.56c-2.42,22.24-21.57,27.23-40.44,36C1099.16,1091.72,1110.66,1140.8,1131.1,1185.42Z"/><path class="a" d="M1135.08,1093c3.61-10.86,14.88-17,23-25.81a9.37,9.37,0,0,1,10.67-2.39,34.12,34.12,0,0,1,19.64,48.41,72,72,0,0,1-7.65,12.76c-11.85,15.55-31.78,16.84-45.81,2.94C1125.73,1119.77,1125.5,1110.69,1135.08,1093Z"/><path class="a" d="M1013.31,1071.89c19.18,0,25.58,8.61,20.41,26.15-4.54,15.39-15.57,24.69-29.3,24.42a28.42,28.42,0,0,1-26.23-21.4c-2-7.82,10.7-38.32,17.63-40.51C1005.79,1057.35,1011.39,1063.07,1013.31,1071.89Z"/><path class="a" d="M418.05,1382.84c1.18-11.79,2.16-23.57,3.56-35.34,2.27-19.09,7-39.08-24.57-42.15l2.37-4.18a104.36,104.36,0,0,1,16.37-7.42c32.49-8.65,65.17-16.74,97.71-25.29,17.56-4.61,19.61-11.1,7.5-24.91a85.67,85.67,0,0,0-17.44-15c-19.7-12.8-18.59-11.33-34.69,5.46-15,15.7-34.43,26.14-59.6,33.17,5.82-21.23,11.24-38.41,15-56,1.25-5.88-1.79-12.67-2.86-19-5.89,1.72-11.86,3.12-17.54,5.26a21.28,21.28,0,0,0-6.3,5.26c-12.84,12.81-29.71,24.4-9.06,48.52-21.87-1-33.94-10.46-37.89-23.55-5.89-19.39-6.44-40.34-9.72-60.57a26.1,26.1,0,0,0-5.38-13.65,99.93,99.93,0,0,0-19.67-15c-3.86-2.19-8.85-2.59-13.36-3.78-1.09,4.41-3.68,9.11-3,13.27,3.65,22.87,8.37,45.58,12.29,68.38,4.21,24.22,3.44,25.23-18.23,35.35-13.94,6.51-27.8,13.26-41.73,19.82-.31.13-.89-.51-2.32-1,6-8.52,11.89-17,20.3-29l-33-.71-1.8-3.53c9.43-5.46,19.09-10.6,28.16-16.57,3.3-2.19,7.51-6.51,7.24-9.67s-5.15-6.74-8.87-7.9c-17.19-6-34.44-11.65-51.88-16.76-20.11-5.91-20.81-8-7.1-24.64q8.4-10.28,16.39-20.78c7.49-9.84,6.15-17.53-4.56-24.68-31.52-21.08-31.21-21.17,1.07-42.78,6.06-4,10.49-10.15,15.71-15.3a152.48,152.48,0,0,0-20.05-9.3c-11.81-3.55-23.94-6-36-8.73l0-4.75c16.45-5.89,32.35-13.23,49.19-17,44.51-9.82,75.87-37.59,104-71a247.91,247.91,0,0,1,26.11-25.23c16.28-14.36,16.95-18.7,4.59-37.42a49.21,49.21,0,0,1-3.91-7.21c-.38-.87,0-2.09.1-4.59,20.85,6.93,24.79-5,27-22.27C384,836.14,390,822.09,394.55,808c5.56-17.14,11.51-34.18,17.48-51.92,6,20.83,11.06,42.39,18.59,63.05,6.89,18.92,16.46,36.86,24.9,55.25.44,1,1.51,1.77,1.73,2.78,5.88,24.63,15.34,45.86,45.13,47.93,16.7,34.63,60.1,23.8,82.93,48.77A117.41,117.41,0,0,0,617,996.63a33.89,33.89,0,0,0,22.34,2.72c40.92-10.68,81.59-22.19,122.21-34.07,13.37-3.83,26.43-9.32,39.61-14l3.31,4.17c-14.16,18.61-28.66,37-42.28,56-5.8,8.13-9.39,18.13-14.44,27-1.77,3.11-5.57,5.1-7.28,8.25a172,172,0,0,0-7.29,17c-2,4.85-3.54,9.91-5.93,14.57-.93,1.64-3.49,2.59-5.44,3.61-25.75,13.74-40.91,34.65-47.5,63.47-3.51,15.3-11.78,29.64-18.84,44-6.62,13.38-7.5,25.72-.27,39.34,9.74,18.3,18.18,37.31,29.15,60.15l-43-9.2c-18.23-3.92-19.51-2.59-20.25,16.26-.58,14.9-2.21,29.82-3.36,44.71l-6,1.64c-8.73-8.77-17.37-17.49-26.38-25.89a51.09,51.09,0,0,0-10.91-6c-2,3.6-5,7.18-5.51,11-2.59,18.83-4.47,37.76-6.59,56.63l-5,1.58-30.86-47.36-6.52,1-7.54,80.27c-9.22-9-15.64-14.37-20.93-20.61-10.64-12.64-20.81-25.7-30.93-38.8-6.05-7.86-11.28-7.36-16.91.4-7.3,10-14.87,19.86-22.31,29.8Zm11.68-290.08c.54-8.53,2.8-21.49,1.88-34.21-1.81-24.22-39.6-50.42-61.36-42.83-19.9,6.86-39.7,14.16-59.07,22.38a17.08,17.08,0,0,0-8.87,12.78,192.14,192.14,0,0,0,5.34,40.87c5.85,22.82,21.21,33.38,44.58,33,7.67-.1,15.44.17,23.14.43C398,1125.87,413.88,1114.6,429.73,1092.76ZM589.17,1131c-23.45-10.88-51.48-14.78-80.12-1-12,5.75-20.89,13.83-21.82,28.54-1.09,17.67,22.76,54.84,39.34,60.45a13.64,13.64,0,0,0,4.79,1.09c23.59-1.83,47.32-1.9,67.14-18.33C623.26,1181.16,621.1,1149,589.17,1131Z"/><path class="a" d="M822.81,554.88c3.44,11.16-1.43,19.41-2.76,28.08-3.24,22.12.75,42,17.89,57.69,12.78,11.7,27.72,11.22,37.89-2.63a86.45,86.45,0,0,0,13.85-76.46c-3-10.94-13.38-14.62-23.39-17.47-12-3.38-24-1.11-37.09,1.11C817,524.13,811.47,501,808.28,478c-3.44-25.27-13.94-40.76-40-45.48-12.89-2.33-22.57-.82-29.18,11.22A142.42,142.42,0,0,0,723,484.56c-4.15,21.52-14.53,40.85-20.25,61.72-2,6.85-7.36,8.1-12.6,10.29-27.75,11.68-52.83,28.2-78.45,43.72a108.38,108.38,0,0,0-26.52,24.61A14.09,14.09,0,0,0,581.87,639c11.08,37.47-5.39,64.43-43.18,75.56-17.44,5.13-32-.86-45.82-7.68-11.6-5.77-18.95-3.51-27.18,3.84a44.69,44.69,0,0,1-4.6,3.51c-8.42,5.79-17.64,14.07-26.94,3.74s-2.37-20.08,6.16-27.94c24.06-22.48,52.6-39.6,76.08-64.11-.54-8.34-7.44-9.66-14.66-9.69-25.46-.18-50.16-8.19-76.08-5.83-16.36,1.45-17.31-1.27-15.9-20,13.95-.43,26.69-5.91,39.63-11.11,20-7.94,39.47,2.1,54.66,10.83,30.52,17.61,54.65,12.39,83.41-4.47,23.21-13.67,41-29.35,52.54-53,1.63-3.38,4.32-6.52,2-10.73-3.38-3.71-7-1.43-10.34.05-12.82,5.59-26.2,9.29-37.63-1.43-12.8-12-18.9-27.29-14.44-45.1a112.26,112.26,0,0,1,50.56-69.29c13.06-8.22,18.36-18.13,18.1-32.9-.33-18.55-.27-37.07-5.56-55.06-3.78-12.84-1.61-23.48,8.57-32.91,13.57-12.57,19.76-27.75,14.16-46.65a19.4,19.4,0,0,1,3.5-19.92A182.68,182.68,0,0,0,714.11,140c6.3,21.37-15.54,42.44-.46,65.3,12-10.65,7.86-24.33,9.64-36.07,1.12-7.29-1.32-15.47,8.31-19.45a17,17,0,0,1,21.81,6.57c4.16,5.57,12.1,7.92,14.69,3.5,9.21-15.58,28.65-21.26,39.55-42.4-32.16.9-60.17-.08-88,6.67-5.84-32.36,6-50.86,37.52-55.61,27.94-4.21,57.93,17.48,61.06,46,4.29,39.36,16.3,78.25,40.64,111.36a20.32,20.32,0,0,1,4.33,15.95,76,76,0,0,0,9.1,48.09,30,30,0,0,1-1,30.67,115.21,115.21,0,0,0-7.44,17.55c-5.45,15.63-.51,27.29,13.79,35.6,10,5.65,20,11.24,29.43,17.81A78,78,0,0,1,918,510.5c-8.3,8.34-6.55,14.39,2.39,19.74a168.11,168.11,0,0,1,55.3,56.33,71.86,71.86,0,0,0,44.87,33.12,436.23,436.23,0,0,1,112.94,46.46c1.35,10.36-8.51,8.06-11.12,13.83,3.85,8.69,16.88,8.69,20,22.6-20.85-7.11-39.37-14.42-52.57-29.84a48.39,48.39,0,0,0-24.83-16c-16.53-4.67-32.82-10.37-49.4-14.93-12.12-3.35-24-2-37.35,7.32A138.77,138.77,0,0,1,1005.33,708c4.19,19.71,19.45,38.59,6.93,62.45-9.35-7.14-12.73-18.11-25.12-17.87-6.82.15-6.4-8.16-7.21-13.86-6.89-48.39-27.45-91.25-53.39-131.93-5-7.83-5.16-7.72-16.5-12.32-4.86,31.11-14,59.34-52.39,60.78-21.78.93-41.6-13.32-50.2-34.86A59.83,59.83,0,0,1,822.81,554.88ZM660.67,420.79c-11.61,25.62-28.42,38.37-53.6,42.17-14,2.08-13.53,16.87-13.41,28.18.15,8,.76,17.46,11.88,18.82,16.6,2,32.39,2.07,46-11.15a131.52,131.52,0,0,0,33.77-50.08c3-8.27,7.25-17.49,1.29-28.49-8.25,6.19-16.23,9.56-25.9.55ZM895,400c5.37,10,.69,20.91,2.67,29,4.95,20.47-4.33,22.36-19.89,24.83-26.6,4.26,2.36,31.18-15.22,40.84-2.85,1.56,2.26,7.85,5.75,10.57a12.24,12.24,0,0,0,3.46,1.6c21.34,8.21,35.89,1.52,43.42-19.87a91.27,91.27,0,0,0,6.14-39.51C919.56,428,914.46,410.14,895,400ZM544.92,642.91c-21.25-1.56-32.34,3.39-44.34,12.42-13.58,10.18-3.21,20.71-2.82,31,.78,19.69,15.4,28.95,33.62,22.53,18.9-6.64,30.12-20.84,38.4-37.79,5.75-11.8,1.46-19.8-10-24.29A100.86,100.86,0,0,0,544.92,642.91ZM679.64,282.62c23.26-5.4,31.48-19,36.76-34.84,2.71-8.14,2.56-16.49-9.64-19.92-15,13.26-18.53,32.45-27.12,54.76ZM832.83,293.2c-9.63-10.09-9.19-21.82-8.11-33.88.73-9.9-4.16-16.56-14.2-15.84-12,.85-11.19,11.05-9.27,18.8,4,15.55,14.47,25.93,31.55,30.91ZM809.21,154.7a6.93,6.93,0,0,0-3.27,7.86c2.11,7.42-4.72,16.64,4.25,22.6a5.19,5.19,0,0,0,7.24-1.11,5.47,5.47,0,0,0,.61-1.11c4.51-9.05-.16-17-3.81-24.95-.55-1.35-2.86-1.83-5-3.29Zm-78.42-55c10.33,11.6,20.17,7.33,35,3-13.95-4.72-23-9.23-35-3Zm76.84,124.47c5.33-7.6,8.63-12.85,2.78-20-6.53,5.21-8.16,10.66-2.78,20Z"/><path class="a" d="M858.83,566.06c14.09.77,24.93,10.09,24.69,21.26s-11.89,21-23.24,20.77a25,25,0,0,1-23.69-24.8C837.33,569,846.41,565.22,858.83,566.06Zm-2.72,10.4c-4.81,7.34-5.54,14.12,2.81,18.73,3.7,2,7.42-1.14,8.08-5.36,1.32-8-1.24-13.5-10.93-13.37Z"/><path class="a" d="M517.12,684.83c-3.81-11.81,3.17-20,11.75-25.46S547,657.55,555,663.18C547.21,687,539.92,691,517.12,684.83Zm25.2-17.05c-11.42-1.42-16.55.89-16.71,11.41C533.46,679,537.5,675.3,542.32,667.78Z"/></svg>