<svg xmlns="http://www.w3.org/2000/svg" viewBox="0 0 495.95 923.74"><defs><style>.a{fill:#fff;}</style></defs><title>face_8</title><path class="a" d="M637.87,513.33c-10.24,16.11-21.87,31.31-30.81,48.23-6.31,12-6.07,13.45,2.56,22.78,17.75,19.15,26.07,42.78,32.66,67.23a304.15,304.15,0,0,1,7,39.74c.52,4.21-.16,8.87,3.8,12.4,10.74,1.44,21.07,2.91,31.74-4.25,6.77-4.55,16.66-4.11,25.2-8.52l13,8.76c.65,5.15-2.45,6.15-5.22,7.36a179,179,0,0,1-56.34,15.06c-4.67.42-10.48-.3-11.33,6.12A10.43,10.43,0,0,0,657,739.9c10.15,4,12.34,11.83,13,21.74a67.82,67.82,0,0,0,21.2,44.85,60.64,60.64,0,0,1,15.9,23.28c3.15,8.69,8.41,16.64,12.71,24.89-5.22,3.74-8.87.83-12.64-1.17-7.06-3.78-13.93-8.65-16.58-16.06-8.07-22.46-29.28-36.66-36.44-59.5a4.93,4.93,0,0,0-5.68-4l-.3.06c-3.45,2.16-2.45,6.15-3.19,9.32a182.19,182.19,0,0,1-29,65c-4.5,6.27-5.17,11.84,0,17.56s6.42,14.21,11.31,20.46c4.43,5.65,9.06,8,15.39,3.06a23.08,23.08,0,0,1,9.32-4.52c9.68-2,14.55,2.09,15.29,12.9a7,7,0,0,1-1.61,2.08c-27.76,17-30,16.5-54.7-6.73-5.68-5.39-8.35-14.59-16.29-16-8.47-1.53-13,7.58-19.72,11.27-21.88,12-44.74,16-69.16,9.61-14.14-3.69-14-3.37-22.42,8.51a75.26,75.26,0,0,1-10.68,11.46c-5.63,5.22-7.81,10.16-1.15,16.34,5.74,5.33,4.12,10.94-.66,16-3.27,3.26-6.14,8.13-11.92,5.42s-10.09-7.43-9.22-12.91c1.55-10,2.08-21.2,12.78-27.18a24.16,24.16,0,0,0,9-10.92c7.13-13.71,6.49-17.38-6.59-25.26-18.17-11-32.79-25.62-45.81-42.12a39.66,39.66,0,0,0-5.54-5.53c-.53-.54-1.62-.48-3.06-.85-5.38,3-7,9.17-9.92,14.21-4.5,7.89-8,16.36-12.51,24.39a65.2,65.2,0,0,0-8.88,31.75c-.16,11.86-2.49,24-11.21,33.91a64.16,64.16,0,0,1-17.58-16.63c5.95-9.35,8.87-18.94,4-29.51-2.14-4.62.09-8.44,2.71-12.05,13.43-18.38,22.18-39.26,31.73-59.7,4.88-10.37,5.95-20.7.39-31.31A164.58,164.58,0,0,1,377,752.41c-6.09-4-11.73-1.92-17.16-1-12.77,2-25.61,4.87-38.48,6.75-10.17,1.5-11.9.54-20.39-6.55,6.16-12.28,17-17,29.83-16.14,13.93.83,26.5-3.4,41.31-7.88-1.33-28.19-3.62-56.78,4.74-85.07-21.92-12-45.6-18.56-65.57-33.17a43.34,43.34,0,0,1,13.56-14.08c11.26,2,20.48,7.86,30.2,12.49S374.14,617.92,385.8,618c12.12-19.06,25.44-36.51,44.29-49.16,8.8-6,17.46-12.07,27.44-14.67,39.59-10.44,79.25-16.09,117.76,4.3,7.67,4,12.64,1.12,16.25-5.19,5-8.69,11.37-16.42,16-25.35,5.05-9.74,11.9-18.28,23-22ZM540.62,784.62c5.81,2.46,10,1.06,14.19.13A277.27,277.27,0,0,0,610.08,766c15.8-6.9,22.66-19.44,24-35.77a203.31,203.31,0,0,0-6.74-68.47c-1-3.61-.24-8.06-4.33-10.42-16.16.7-24.43-4.21-30.13-18.43-3.61-9-5.39-18.26-1.62-27.89,1.36-3.47,4.09-7.79,1.4-11.15-9.28-11.64-19.65-22.89-35.11-25-9.81-1.25-19.76-2.38-29.68-3.86a174.14,174.14,0,0,0-68.63,2.22c-11.9,2.86-13.69,5.39-13,17.8,1.84,3.4,6.82,2.11,8.61,7-2.47,9.07-10.37,14.28-17.12,20-19.83-7-19.83-7-18.93-19.92a6.19,6.19,0,0,0-2.41.13,15,15,0,0,0-3.14,2.29c-15.09,13.24-18.74,31.69-22.4,50-.86,4.3,1.24,7.58,4,8.21a7.84,7.84,0,0,0,7.44-2.57,7.44,7.44,0,0,1,7.32-1.38c8.08,12.1,11.05,21.68,8.64,31.44-3.82,15.44-14.23,25.29-30,31.29,4.13,12.21,1.81,25.24,9.63,35.94,5.53-1.85,6.31-6.57,8.61-10.06a34,34,0,0,1,14.28-12.91c12.88-5.8,23.51-1.15,27.38,12.21a72.74,72.74,0,0,0,4.26,13.6c5.48,10.27,8,19.92-2.45,27.84a7.29,7.29,0,0,0,5.54,4.68c18.68,6.74,38.33,7.09,57.89,8.53,12,.9,14.89-2.35,12.69-14.58a299.7,299.7,0,0,1-3.49-44.07c-.72-23.64,2-48.32-16.23-67.9-1.85-1.84-2.93-4.44-4.61-6.45a25.79,25.79,0,0,1-4.82-27c4-9.57,1.7-17.67-.87-26.21a162.4,162.4,0,0,0-7.25-19.5c-2.78-7,1.41-11,6.5-13.69,5.81-3,8.67,1.73,10.81,6.16,1.51,3.1,2.12,6.7,3.8,9.67,2.93,5.11,2.16,12.34,8.71,15.38,28.21-6.55,39.57-4.26,50.57,22.16a30.1,30.1,0,0,1-.48,24.06c-6.81,16.18-22.33,15.64-38.49,18C537.61,707,535.25,746.49,540.62,784.62Z" transform="translate(-268.17 -32.64)"/><path class="a" d="M564.35,716c5.14-7.36,15-9.42,23.1-14.24a7.36,7.36,0,0,1,8.56.59,26.81,26.81,0,0,1,3.91,40.81A56,56,0,0,1,591.3,751c-12.4,9-27.67,5.53-35.11-8.06C551.3,734.06,553.17,727.17,564.35,716Z" transform="translate(-268.17 -32.64)"/><path class="a" d="M477.51,672.84c14.41,4.34,17.3,12.21,9.48,24.24-6.86,10.56-17.25,15.08-27.51,11.79a22.29,22.29,0,0,1-14.92-22c.24-6.33,16.64-26.42,22.34-26.51C475.11,660.22,478,665.78,477.51,672.84Z" transform="translate(-268.17 -32.64)"/><path class="a" d="M543,355.83c2.86,7.3,0,13.06-.46,18.93-1.08,15,2.57,28.09,14.82,37.74,9.13,7.2,19.11,6.15,25.23-3.63A58,58,0,0,0,588.05,357c-2.57-7.18-9.67-9.13-16.52-10.55-8.18-1.67-16.1.44-24.77,2.57-9.19-13.5-14-28.71-17.31-43.94-3.55-16.74-11.35-26.6-29-28.48-8.75-.92-15.16.57-19,9a95.5,95.5,0,0,0-8.75,28.09C471,328.27,465,341.73,462.17,356c-1,4.68-4.53,5.79-7.92,7.51-18,9.19-34,21.48-50.37,33.14a73.23,73.23,0,0,0-16.55,17.77,9.48,9.48,0,0,0-1.54,9.57c9.26,24.55-.44,43.4-25.19,52.72-11.42,4.29-21.48,1-31.05-2.88-8.05-3.3-12.86-1.42-18,3.91a33.83,33.83,0,0,1-2.91,2.57c-5.35,4.29-11.12,10.29-17.86,3.83s-2.57-13.32,2.76-19c15-16.23,33.26-29.1,47.77-46.67-.77-5.55-5.45-6.09-10.29-5.76-17.06,1.13-34-3-51.22-.15-10.88,1.77-11.65,0-11.63-12.61,9.31-1,17.57-5.27,26-9.39,13-6.3,26.53-.54,37.13,4.55,21.3,10.29,37.2,5.61,55.62-7.1,14.87-10.29,26-21.66,32.57-38.05.92-2.34,2.57-4.58.82-7.28-2.44-2.31-4.73-.61-6.92.54-8.31,4.38-17.08,7.52-25.26.9-9.16-7.38-14-17.34-11.89-29.48a75.35,75.35,0,0,1,30.43-48.88c8.34-6.15,11.4-13,10.5-22.92-1.13-12.4-2-24.8-6.43-36.58-3.16-8.41-2.24-15.64,4.12-22.46,8.46-9.08,11.86-19.55,7.17-31.93a13,13,0,0,1,1.37-13.5,122.64,122.64,0,0,0,26.37-54.93c5.27,14-8.31,29.17,2.9,43.74,7.49-7.72,4.07-16.68,4.69-24.62.38-4.94-1.65-10.29,4.6-13.43a11.41,11.41,0,0,1,14.92,3.32c3.06,3.52,8.49,4.7,10,1.62,5.4-10.89,18.14-15.65,24.39-30.34-21.48,2.19-40.29,2.91-58.58,8.8-5.51-21.38,1.49-34.34,22.38-39.07,18.5-4.2,39.64,8.84,43.14,27.81C523,87.37,533,112.82,550.9,133.78a13.69,13.69,0,0,1,3.68,10.47A51.09,51.09,0,0,0,563,176a20.16,20.16,0,0,1,.85,20.58,76.19,76.19,0,0,0-4.11,12.12c-2.88,10.73,1,18.29,11,23.15,7,3.29,14,6.54,20.58,10.47a52.3,52.3,0,0,1,13.12,79.11c-5.14,6-3.68,10,2.58,13.09a112.94,112.94,0,0,1,39.79,35,48.25,48.25,0,0,0,31.67,20A293,293,0,0,1,756.4,415c1.42,6.87-5.3,5.82-6.76,9.8,3,5.64,11.73,5,14.48,14.15-14.3-3.73-27.06-7.72-36.66-17.39A32.51,32.51,0,0,0,710,412.06c-11.29-2.31-22.48-5.32-33.8-7.56-8.28-1.65-16.16-.16-24.65,6.74a93.13,93.13,0,0,1,21.1,38.13c3.78,13,14.92,24.87,7.72,41.47-6.62-4.33-9.42-11.5-17.7-10.73-4.56.44-4.69-5.15-5.51-8.93-7-32.05-22.87-59.73-42.24-85.69-3.73-5-3.83-4.92-11.65-7.44-1.73,21.07-6.44,40.42-32.09,43.27-14.53,1.7-28.5-6.86-35.32-20.86A40.15,40.15,0,0,1,543,355.83ZM427.8,274c-6.51,17.73-17.13,27.09-33.8,30.87-9.26,2.09-8.24,12-7.59,19.53.49,5.32,1.36,11.65,8.87,12,11.22.54,21.79-.2,30.23-9.72a88.34,88.34,0,0,0,20.15-35.19c1.56-5.69,4-12.07-.54-19.14-5.23,4.55-10.4,7.2-17.32,1.64ZM583.68,248.6c4.09,6.43,1.49,14,3.21,19.27,4.32,13.45-1.8,15.18-12.09,17.59-17.6,4.17,3.11,20.77-8.18,28.1-1.83,1.18,1.9,5.14,4.37,6.79a8.29,8.29,0,0,0,2.4.9c14.69,4.45,24.1-.75,28.09-15.44a61.17,61.17,0,0,0,2.16-26.75C601.48,266.14,597.18,254.41,583.68,248.6ZM361.25,428.45c-14.31,0-21.48,3.86-29.07,10.5-8.6,7.48-1.13,14-.36,20.89,1.49,13.14,11.73,18.62,23.61,13.43,12.33-5.38,19.14-15.44,23.85-27.2,3.27-8.18,0-13.32-7.87-15.77A68.74,68.74,0,0,0,361.25,428.45ZM433.69,180.6c15.31-4.75,20.15-14.27,22.9-25.13,1.41-5.58.9-11.17-7.44-12.86-9.39,9.62-10.8,22.64-15.46,38Zm103.09-.46c-6.95-6.28-7.23-14.15-7.1-22.28,0-6.66-3.6-10.88-10.29-9.9-8,1.16-6.95,7.95-5.28,13,3.42,10.21,11,16.65,22.64,19.14ZM514.14,88.58a4.67,4.67,0,0,0-1.8,5.43c1.77,4.86-2.34,11.37,4,14.92a3.48,3.48,0,0,0,4.79-1.1,3.39,3.39,0,0,0,.35-.78c2.58-6.27-1-11.39-3.78-16.51-.43-.88-2-1.08-3.52-2ZM458.93,55.63c7.49,7.25,13.87,3.91,23.57.28-9.57-2.47-15.85-5-23.57-.28Zm57.58,79.54c3.19-5.35,5.14-9,.87-13.5-4.12,3.8-4.94,7.53-.87,13.5Z" transform="translate(-268.17 -32.64)"/><path class="a" d="M567.62,361.54c9.47-.18,17.19,5.53,17.57,13s-6.92,14.67-14.53,15.05a16.76,16.76,0,0,1-17.08-15.43C553.37,364.55,559.26,361.59,567.62,361.54Zm-1.31,7.1c-2.85,5.14-3,9.72,2.81,12.4,2.57,1.13,4.91-1.14,5.14-4,.49-5.4-1.49-9-8-8.41Z" transform="translate(-268.17 -32.64)"/><path class="a" d="M344.71,457.88c-3.14-7.72,1.13-13.56,6.61-17.62s12-2.11,17.7,1.26C365,457.83,360.27,460.92,344.71,457.88Zm16-12.66c-7.71-.38-11,1.42-10.62,8.47C355.36,453.17,357.88,450.5,360.73,445.22Z" transform="translate(-268.17 -32.64)"/></svg>