<svg xmlns="http://www.w3.org/2000/svg" viewBox="0 0 938.89 528.91"><defs><style>.a{fill:#fff;}</style></defs><title>face_7</title><path class="a" d="M206.67,743.49c5.87-19.24,13.4-37.94,17.73-57.63,3-13.92,2.39-15.37-9-22.42C192,649,176.9,627.32,163.35,604.35A318.32,318.32,0,0,1,145,566c-1.7-4.12-2.32-9.05-7.34-11.52-11.31,1.56-22.22,3-31,13.23-5.6,6.53-15.76,8.86-23.2,15.74l-15.71-5.24c-2.1-5,.77-6.93,3.24-8.94a188.68,188.68,0,0,1,53-31.12c4.62-1.74,10.73-2.65,9.78-9.4a11,11,0,0,0-10.17-9.94c-11.41-1.15-15.85-8.54-19.29-18.42a71.48,71.48,0,0,0-34.13-39.58A63.72,63.72,0,0,1,47.46,441.6c-5.65-7.93-13.22-14.53-19.91-21.7,4.25-5.27,8.78-3.33,13.16-2.37,8.24,1.86,16.58,4.87,21.36,11.66,14.5,20.53,40,29,53.72,50.18a5.21,5.21,0,0,0,6.91,2.51c.09-.05.19-.09.28-.15,2.9-3.16.77-6.92.62-10.35a191.8,191.8,0,0,1,11.22-74.12c2.81-7.64,1.92-13.48-4.9-17.85s-10.51-12.62-17.23-17.6c-6.09-4.48-11.45-5.56-16.49,1.22A24.25,24.25,0,0,1,88,370.24c-9.26,4.8-15.37,2-19.15-8.8a7.4,7.4,0,0,1,1-2.57c23.43-25,25.83-25.18,57.44-8.53,7.28,3.87,12.59,12.47,21,11.7,9-.83,11.08-11.36,16.86-17,18.84-18.36,40.93-28.82,67.53-29.2,15.39-.22,15.17-.5,20.37-14.93a78.34,78.34,0,0,1,7.63-14.64c4.25-6.88,5.07-12.51-3.43-16.92-7.32-3.8-7.25-9.95-3.81-16.41,2.39-4.23,4-10,10.57-8.86s12.34,4.72,13,10.53c1.24,10.58,3.84,22.11-5.35,31.18a25.45,25.45,0,0,0-6.07,13.62c-3.4,15.93-1.71,19.48,13.79,23.8,21.53,6,40.49,16.81,58.35,29.9a41.94,41.94,0,0,0,7.18,4.06c.69.4,1.78,0,3.34,0,4.63-4.55,4.57-11.29,6.09-17.22,2.35-9.28,3.55-18.87,5.85-28.28a68.84,68.84,0,0,0,.09-34.74c-3.17-12.09-4.22-25.07,1.86-37.58a67.44,67.44,0,0,1,22.53,11.94c-3.43,11.17-3.69,21.73,4.24,31.09,3.47,4.08,2.28,8.59.64,13-8.48,22.43-11.49,46.1-15.45,69.54-2,11.9-.22,22.69,8.4,31.9a173.76,173.76,0,0,1,21.81,30.55c7.3,2.34,12.45-1.35,17.71-3.77,12.41-5.61,24.64-12.14,37.19-17.67,9.9-4.38,11.93-3.89,22.54.92-2.81,14.21-12.47,22-25.76,24.78-14.38,3.07-25.95,10.89-39.73,19.6C425.63,479.51,436,507.9,435.45,539c25.61,6,51.53,6,75.9,15.26a45.48,45.48,0,0,1-9.81,18.11c-12,1.17-23-2.23-34.18-4.2s-22.27-5-34.13-1.77c-7,22.76-15.58,44.22-31.17,62.38-7.26,8.52-14.33,17.15-23.73,22.6-37.27,21.73-76,38.61-120.79,28.73-8.92-1.89-13.15,2.4-15.05,9.83-2.64,10.23-6.93,19.86-9.1,30.23-2.4,11.31-6.95,21.91-17.15,28.77Zm22.51-302.82c-6.59-.86-10.47,1.74-14.44,3.85a292.85,292.85,0,0,0-50.85,34.61c-14.1,11.44-17.54,26.11-14.28,43.06a214.06,214.06,0,0,0,26.07,67.63c2,3.4,2.51,8.12,7.33,9.37,16.22-5.26,26-2.6,35.78,10.25,6.21,8.16,10.6,17,9.48,27.87-.41,3.9-2,9.05,1.71,11.71,12.7,9.21,26.39,17.72,42.67,15.48,10.32-1.49,20.73-3.14,31.23-4.43A183.49,183.49,0,0,0,373,638.54c11.28-6.25,12.38-9.32,8.16-21.73-2.82-2.92-7.52-.21-10.7-4.64,0-9.91,6.52-17.41,11.76-25.15,22.1,1.52,22.1,1.52,24.82,14.91a6.48,6.48,0,0,0,2.41-.81,16.15,16.15,0,0,0,2.55-3.21c11.6-17.69,10.12-37.45,8.68-57.1-.33-4.61-3.39-7.35-6.41-7.2a8.28,8.28,0,0,0-6.83,4.69,7.83,7.83,0,0,1-7.05,3.47c-11.61-10-17.31-18.91-17.6-29.5-.46-16.75,7.34-29.68,21.67-40.2-7.63-11.24-8.93-25.12-19.88-33.79-5.1,3.43-4.56,8.44-5.92,12.63A35.81,35.81,0,0,1,367.74,468c-11.45,9.5-23.55,7.76-31.24-4.71a75.44,75.44,0,0,0-8.15-12.61c-8.45-8.9-13.73-18-5.33-29a7.69,7.69,0,0,0-6.94-3.2c-20.87-1.59-40.92,3.57-61.18,7.61-12.41,2.45-14.46,6.56-8.79,18.37A315.29,315.29,0,0,1,262,488.31c7.37,23.8,11.58,49.62,35.57,64.38,2.39,1.36,4.23,3.69,6.5,5.26a27.17,27.17,0,0,1,12.46,26c-1.41,10.86,3.24,18.43,8.25,26.38a172.35,172.35,0,0,0,12.84,17.77c4.78,6.28,1.68,11.59-2.75,15.72-5,4.69-9.29.68-12.71-3.22-2.4-2.72-4-6.2-6.57-8.75C311.2,627.51,310,620,302.45,618.7c-26.8,14.57-39,15.44-57.58-8.29a31.68,31.68,0,0,1-6.27-24.57c2.37-18.34,18.27-22.16,34-29.1C254.05,518.64,245.35,477.88,229.18,440.67Z" transform="translate(-27.55 -239.37)"/><path class="a" d="M224.38,517c-3.16,8.92-12.59,13.79-19.46,21a7.75,7.75,0,0,1-8.86,1.81,28.26,28.26,0,0,1-15.44-40.34A59.88,59.88,0,0,1,187.16,489c10.05-12.66,26.55-13.39,37.92-1.67C232.55,495,232.59,502.53,224.38,517Z" transform="translate(-27.55 -239.37)"/><path class="a" d="M324.69,536.44c-15.85-.35-21-7.54-16.45-22,4-12.64,13.29-20.15,24.62-19.7a23.51,23.51,0,0,1,21.34,18.12c1.53,6.49-9.48,31.5-15.24,33.2C330.67,548.58,326.13,543.77,324.69,536.44Z" transform="translate(-27.55 -239.37)"/><path class="a" d="M769.06,256.07c-4.76,19.54-11.2,38.64-14.4,58.55-2.24,14.07-1.5,15.48,10.28,21.86,24.19,13.1,40.5,33.86,55.35,56a321.11,321.11,0,0,1,20.5,37.26c1.94,4,2.84,8.91,8,11.08,11.2-2.2,22-4.23,30.22-15,5.21-6.84,15.23-9.75,22.26-17l16,4.32c2.39,4.92-.37,7-2.72,9.12a188.59,188.59,0,0,1-51.11,34.1c-4.51,2-10.55,3.26-9.22,9.95a11,11,0,0,0,10.72,9.33c11.46.51,16.32,7.62,20.32,17.29a71.47,71.47,0,0,0,36.34,37.56,63.89,63.89,0,0,1,23.76,17.84c6.09,7.6,14,13.75,21.11,20.53-3.94,5.5-8.57,3.83-13,3.12-8.33-1.38-16.83-3.92-22-10.42-15.65-19.66-41.63-26.65-56.51-47a5.19,5.19,0,0,0-7-2.11l-.28.16c-2.71,3.32-.36,7,0,10.37a192,192,0,0,1-7,74.65c-2.36,7.78-1.14,13.56,5.91,17.53s11.22,12,18.22,16.58c6.33,4.13,11.74,4.9,16.39-2.16a24.16,24.16,0,0,1,7.76-7.66c9-5.33,15.23-2.85,19.63,7.68a7.47,7.47,0,0,1-.9,2.63c-21.95,26.32-24.34,26.61-56.85,11.81-7.5-3.45-13.28-11.73-21.69-10.48-9,1.35-10.4,12-15.85,17.93-17.76,19.42-39.22,31.12-65.75,33-15.35,1.11-15.12,1.38-19.48,16.08a78.61,78.61,0,0,1-6.78,15c-3.85,7.12-4.34,12.79,4.4,16.7,7.53,3.37,7.81,9.52,4.75,16.16-2.16,4.37-3.38,10.2-10.06,9.45s-12.58-4-13.57-9.76c-1.85-10.5-5.11-21.85,3.54-31.44a25.42,25.42,0,0,0,5.29-14c2.48-16.09.59-19.54-15.13-23-21.85-4.8-41.39-14.46-60-26.51a42.69,42.69,0,0,0-7.4-3.64c-.72-.36-1.78.07-3.34.19-4.37,4.81-3.91,11.53-5.09,17.53-1.82,9.41-2.47,19.05-4.22,28.57a68.74,68.74,0,0,0,1.9,34.69c3.86,11.89,5.65,24.79.3,37.63a67.56,67.56,0,0,1-23.17-10.63c2.77-11.35,2.43-21.91-6-30.8-3.7-3.87-2.76-8.44-1.37-12.94,7.17-22.88,8.82-46.68,11.43-70.31,1.35-12-1.09-22.66-10.22-31.37A173.31,173.31,0,0,1,589.78,583c-7.43-1.91-12.36,2.06-17.47,4.78-12.06,6.32-23.9,13.54-36.11,19.78-9.64,4.93-11.69,4.56-22.56.37,2-14.34,11.19-22.68,24.3-26.21,14.17-3.89,25.28-12.36,38.54-21.85-10.88-27.68-22.85-55.43-24.09-86.48-25.92-4.5-51.79-3.07-76.66-10.88a45.62,45.62,0,0,1,8.76-18.64c11.89-1.86,23.1.9,34.37,2.23s22.52,3.68,34.17-.19c5.64-23.12,13-45.05,27.54-64.06,6.76-8.93,13.33-17.95,22.4-23.93,36-23.83,73.62-42.9,118.95-35.61,9,1.38,13-3.16,14.46-10.68,2-10.36,5.77-20.23,7.35-30.7,1.74-11.43,5.67-22.27,15.47-29.7ZM764,559.68c6.63.48,10.35-2.35,14.2-4.68a292.13,292.13,0,0,0,48.78-37.46c13.42-12.24,16-27.08,11.79-43.81a214,214,0,0,0-29.91-66c-2.18-3.28-3-8-7.86-8.93-15.88,6.18-25.79,4.08-36.3-8.18-6.67-7.79-11.56-16.4-11.07-27.28.19-3.92,1.45-9.15-2.37-11.59-13.21-8.47-27.36-16.19-43.49-13-10.22,2.07-20.52,4.32-30.92,6.21a183.46,183.46,0,0,0-67.72,25.46c-10.91,6.88-11.83,10-6.91,22.16,3,2.76,7.52-.22,11,4,.61,9.89-5.5,17.76-10.29,25.79-22.16-.26-22.16-.26-25.64-13.47a6.47,6.47,0,0,0-2.36.95,15.89,15.89,0,0,0-2.36,3.34c-10.57,18.33-8,38-5.39,57.51.59,4.58,3.8,7.14,6.81,6.82a8.23,8.23,0,0,0,6.55-5.08,7.83,7.83,0,0,1,6.84-3.86c12.16,9.34,18.37,17.88,19.26,28.44,1.42,16.7-5.62,30-19.33,41.38C595.48,549.17,597.57,563,609,571c4.9-3.71,4.07-8.69,5.19-13a35.79,35.79,0,0,1,9.87-17.72c10.88-10.14,23.06-9.1,31.45,2.91a76.22,76.22,0,0,0,8.86,12.12c9,8.4,14.74,17.17,7,28.61a7.7,7.7,0,0,0,7.11,2.8c20.93.39,40.65-5.92,60.65-11.11,12.25-3.16,14.06-7.38,7.73-18.84A315.8,315.8,0,0,1,728.42,514c-8.72-23.34-14.4-48.88-39.19-62.24-2.47-1.21-4.44-3.44-6.79-4.88a27.14,27.14,0,0,1-13.94-25.26c.79-10.92-4.29-18.21-9.75-25.86a172.69,172.69,0,0,0-13.84-17c-5.13-6-2.34-11.48,1.84-15.86,4.78-5,9.24-1.2,12.88,2.49,2.56,2.58,4.38,6,7.07,8.36,4.65,4.1,6.33,11.58,13.9,12.4,25.92-16.1,38-17.66,57.95,5a31.62,31.62,0,0,1,7.68,24.16c-1.31,18.45-17,23.18-32.3,31C734.66,483.26,745.68,523.45,764,559.68Z" transform="translate(-27.55 -239.37)"/><path class="a" d="M764.37,483.17c2.64-9.09,11.77-14.49,18.22-22a7.77,7.77,0,0,1,8.74-2.31,28.24,28.24,0,0,1,19.44,34.88,27.89,27.89,0,0,1-1.71,4.51A59.19,59.19,0,0,1,803.13,509c-9.3,13.22-25.73,14.9-37.76,3.85C757.48,505.61,757,498.11,764.37,483.17Z" transform="translate(-27.55 -239.37)"/><path class="a" d="M663.11,469.54c15.85-.56,21.41,6.32,17.68,21-3.27,12.85-12.11,20.88-23.45,21.08A23.5,23.5,0,0,1,635,494.73c-1.9-6.4,7.66-32,13.31-34C656.45,457.76,661.25,462.31,663.11,469.54Z" transform="translate(-27.55 -239.37)"/></svg>