<svg xmlns="http://www.w3.org/2000/svg" viewBox="0 0 638.52 618.3"><defs><style>.a{fill:#fff;}</style></defs><title>face_10</title><path class="a" d="M519.64,649.92c-12.59,4.92-25.58,8.75-37.76,14.67-8.61,4.19-9.09,5.15-8.06,14.09,2.13,18.36-3,35.34-9.45,52.06a215,215,0,0,1-12.58,25.64c-1.46,2.62-3.8,5-3,8.68,5.53,5.31,10.82,10.47,19.9,10.84,5.77.22,11.24,4.61,18,5.66L490.43,792c-1.78,3.21-4,2.48-6.06,2a126.84,126.84,0,0,1-38.48-14.95c-2.84-1.71-5.86-4.55-9-1.23a7.38,7.38,0,0,0-1,9.49c4.15,6.5,2.11,11.92-1.66,17.85a48,48,0,0,0-6.64,34.48,42.86,42.86,0,0,1-.64,20c-1.83,6.28-2.15,13-3.14,19.53-4.55,0-5.42-3.23-6.74-5.94-2.45-5.12-4.34-10.77-2.76-16.12,4.78-16.19-1.4-33.18,4.06-49.22a3.49,3.49,0,0,0-1.56-4.68l-.19-.09c-2.88-.21-4,2.48-5.72,4a128.86,128.86,0,0,1-43.73,25c-5.19,1.7-7.9,4.6-7.36,10s-2.27,10.79-2.09,16.41c.17,5.08,1.83,8.35,7.51,8.18a16.36,16.36,0,0,1,7.21,1.31c6.39,2.88,7.44,7.28,3.35,13.76a4.92,4.92,0,0,1-1.79.52c-23-1.92-24-3.11-28.44-26.71-1-5.45,1.33-11.83-2.6-16-4.2-4.42-10.6-1.11-16-1.81-17.53-2.27-32.25-9.56-43.54-23.42-6.53-8-6.58-7.78-16.36-4.51A51.61,51.61,0,0,1,256.16,812c-5.39.63-8.7,2.55-7.48,8.86,1,5.45-2.23,8-7.06,8.85-3.23.5-6.91,2.08-9.08-1.88s-2.65-8.46.13-11.23c5.07-5.07,10.05-11.24,18.66-10.18a17.07,17.07,0,0,0,9.71-2.48c9.81-4.85,11-7.21,6.8-17.18-5.8-13.87-8-28.35-8.57-43.21a28.28,28.28,0,0,0-.85-5.48c-.08-.53-.72-.95-1.39-1.76-4.33-.55-7.85,2.3-11.61,4-5.87,2.63-11.43,6-17.34,8.71a46.19,46.19,0,0,0-18.34,14.43c-5.05,6.71-11.46,12.67-20.58,14.68a45.5,45.5,0,0,1-3.1-16.84c7.31-2.85,13-7.12,14.61-15.2.71-3.53,3.58-4.78,6.59-5.75,15.35-4.88,29.08-13.16,43.08-20.84,7.12-3.89,12-9.35,13.31-17.73a116.78,116.78,0,0,1,7-24.22c-1.81-4.82-5.9-6-9.37-7.76-8.13-4.2-16.67-7.92-24.81-12.23-6.43-3.4-7-4.67-8.91-12.26,8.66-4.45,16.79-2.61,23.79,3.24,7.61,6.3,16.56,9.14,26.89,12.77,11-16.66,21.67-34,38.27-46.62-7.52-16-18.3-29.66-23.59-46.36a30.59,30.59,0,0,1,13.63-2.37c5.61,5.82,8.41,13,12,19.76s6.66,13.81,13.29,18.72c14.89-5.82,29.8-10.22,45.86-9.57,7.52.27,15,.4,21.8,3.08,27,10.59,52,23.94,65.48,51.68,2.72,5.49,6.75,5.93,11.45,3.83,6.49-2.87,13.36-4.63,19.73-7.8,7-3.45,14.44-5.47,22.3-3ZM350.69,764.26c2.29,3.83,5.28,4.79,8.05,6a196.54,196.54,0,0,0,39.42,12.38c11.91,2.66,21.07-1.64,28.65-10.42a144.06,144.06,0,0,0,24.77-41.93c1-2.47,3.23-4.71,1.88-7.77-9.53-6.35-12.2-12.61-9.51-23.12,1.71-6.68,4.56-12.69,10.73-16.61,2.23-1.42,5.59-2.74,5.46-5.78-.44-10.53-1.66-21.3-9.62-28.94-5.09-4.82-10.3-9.62-15.35-14.61A123.41,123.41,0,0,0,395,606c-8-3.34-10.07-2.64-14.85,4.75-.36,2.71,3,4.05,2,7.57-5.21,4.16-11.89,3.83-18.16,4.29-8.4-12.28-8.4-12.28-2.48-19.29-.46-.32-.92-.85-1.44-.94a11.5,11.5,0,0,0-2.75,0c-14.15,1.26-23.95,10.27-33.7,19.22-2.3,2.1-2.47,4.85-1.13,6.38a5.54,5.54,0,0,0,5.32,1.64,5.29,5.29,0,0,1,4.77,2.27c-.45,10.3-2.75,17-8.21,21.57-8.64,7.23-18.7,8.51-30.22,5.34-2.74,8.71-9.51,15.17-9.52,24.56,3.93,1.26,6.35-1.12,9.13-2.15a24.06,24.06,0,0,1,13.55-1.41c9.78,2.08,13.91,9.18,10.54,18.43a50,50,0,0,0-3.25,9.55c-1.16,8.16-3.75,14.72-13,14.87a5.17,5.17,0,0,0,1.21,5c7.86,11.66,18.94,20.08,29.51,29.07,6.46,5.52,9.48,4.89,13.34-3a213,213,0,0,1,16.43-26.64c9.47-13.8,21.32-26.78,19.1-45.57-.28-1.82.19-3.77.07-5.62a18.23,18.23,0,0,1,8.51-17.41c6.31-3.78,8.36-9.39,10.46-15.34a115,115,0,0,0,4-14.17c1.32-5.14,5.42-5.72,9.44-5.1,4.57.71,4.22,4.61,3.6,8-.44,2.41-1.59,4.72-1.87,7.12-.46,4.14-3.93,8-1.46,12.43,18.85,8,24.39,14.1,19.63,33.79a21.24,21.24,0,0,1-10.33,13.54c-10.65,6.4-19.29-.39-29.51-5.79C381.41,718.66,363.56,740.23,350.69,764.26Z" transform="translate(-186.06 -263.99)"/><path class="a" d="M392.93,735c6-2.05,12.5.88,19.14,1.52a5.21,5.21,0,0,1,4.65,3.91,19,19,0,0,1-14.82,25,39.88,39.88,0,0,1-8.22.9c-10.86,0-18.12-8.4-16.69-19.28C377.92,739.84,381.87,736.68,392.93,735Z" transform="translate(-186.06 -263.99)"/><path class="a" d="M361.35,674c6.42,8.5,4.78,14.21-4.71,17.81-8.34,3.16-16.16,1.4-20.65-4.76a15.79,15.79,0,0,1,.66-18.79c2.78-3.52,20.55-8.14,23.85-5.81C365.26,665.81,364.61,670.21,361.35,674Z" transform="translate(-186.06 -263.99)"/><path class="a" d="M722.77,563.43c-4.52,12.07-10.07,23.74-13.63,36.17-2.5,8.78-2.13,9.73,4.88,14.7,14.4,10.17,23.2,24.63,31,39.86a205.5,205.5,0,0,1,10.21,25.28c.92,2.71,1.13,5.89,4.24,7.66,7.3-.54,14.33-1,20.38-7.23,3.83-4,10.43-5,15.46-9.15l9.84,4c1.15,3.31-.76,4.4-2.42,5.59a120.9,120.9,0,0,1-35.13,17.82c-3,.93-7,1.26-6.63,5.63a7,7,0,0,0,6.11,6.75c7.26,1.2,9.81,6.09,11.62,12.55a45.84,45.84,0,0,0,20.27,26.68,40.79,40.79,0,0,1,13.76,13.17c3.3,5.3,7.89,9.82,11.88,14.67-2.93,3.2-5.75,1.79-8.51,1-5.2-1.51-10.42-3.77-13.21-8.3-8.46-13.71-24.47-20.14-32.39-34.23a3.33,3.33,0,0,0-4.32-1.88l-.18.08c-2,1.91-.77,4.4-.81,6.6a122.92,122.92,0,0,1-10.11,47c-2.1,4.78-1.76,8.55,2.43,11.62s6.23,8.49,10.33,11.94c3.72,3.11,7.1,4,10.6-.13a15.51,15.51,0,0,1,5.52-4.28c6.12-2.71,9.91-.66,11.91,6.38a4.74,4.74,0,0,1-.77,1.6C779.09,830,777.55,830,758,818.11c-4.51-2.76-7.56-8.47-13-8.32-5.81.17-7.54,6.83-11.46,10.21-12.78,11-27.33,16.81-44.37,16-9.85-.47-9.72-.28-13.62,8.75a50.83,50.83,0,0,1-5.46,9.06c-3,4.24-3.74,7.81,1.52,11,4.54,2.72,4.25,6.66,1.8,10.65-1.71,2.62-2.93,6.24-7.12,5.25s-7.71-3.5-7.9-7.24c-.37-6.83-1.58-14.3,4.65-19.75a16.34,16.34,0,0,0,4.43-8.47c2.8-10.06,1.86-12.4-7.88-15.77C646,824.73,634.32,817.09,623.41,808a27,27,0,0,0-4.43-2.89c-.43-.28-1.14-.09-2.14-.13-3.14,2.73-3.36,7-4.57,10.77-1.88,5.85-3,11.94-4.87,17.87A44.11,44.11,0,0,0,606,855.85c1.55,7.86,1.71,16.21-2.67,24a43.39,43.39,0,0,1-13.94-8.53c2.63-7,3.22-13.76-1.49-20.07-2.06-2.75-1.12-5.58.11-8.34,6.31-14,9.17-29,12.63-43.88,1.77-7.53,1-14.51-4.11-20.75a110.77,110.77,0,0,1-12.75-20.41c-4.58-1.78-8,.37-11.48,1.72-8.16,3.1-16.24,6.79-24.49,9.83-6.51,2.41-7.79,2-14.39-1.48,2.36-9,8.85-13.59,17.46-14.83,9.32-1.4,17-6,26.2-11-4.81-18.44-10.32-37-8.75-56.88-16.15-4.84-32.73-5.89-48-12.76a29.2,29.2,0,0,1,7-11.2c7.71-.28,14.63,2.34,21.7,4s14.05,4.06,21.77,2.48c5.35-14.29,11.71-27.68,22.4-38.68,5-5.16,9.85-10.41,16.09-13.52,24.7-12.43,50.13-21.7,78.42-13.6,5.63,1.56,8.51-1,10-5.7,2.1-6.44,5.22-12.44,7-19,2-7.15,5.31-13.75,12.11-17.73ZM696.39,756.29c4.18.81,6.77-.71,9.4-1.9a187.24,187.24,0,0,0,33.9-20.13c9.47-6.76,12.26-16,10.84-27a137.45,137.45,0,0,0-14-44.31c-1.14-2.25-1.28-5.29-4.32-6.28-10.58,2.72-16.73.63-22.48-8-3.66-5.47-6.11-11.32-5-18.21.42-2.48,1.62-5.72-.63-7.56-7.76-6.4-16.18-12.39-26.69-11.59-6.66.54-13.39,1.18-20.15,1.59a117.62,117.62,0,0,0-45,11c-7.46,3.55-8.29,5.47-6.08,13.58,1.69,2,4.8.43,6.66,3.39-.36,6.34-4.86,10.88-8.51,15.63-14.09-1.85-14.09-1.85-15.3-10.52a4.09,4.09,0,0,0-1.57.42,10.19,10.19,0,0,0-1.76,2c-8.12,10.86-8,23.56-7.81,36.19,0,3,1.87,4.84,3.81,4.86a5.29,5.29,0,0,0,4.56-2.73,5,5,0,0,1,4.65-1.94c7,6.87,10.33,12.78,10.09,19.57-.36,10.74-5.87,18.7-15.45,24.87,4.43,7.49,4.72,16.42,11.38,22.4,3.4-2,3.25-5.22,4.29-7.84a22.91,22.91,0,0,1,7.63-10.53c7.7-5.63,15.38-4,19.8,4.25a48.75,48.75,0,0,0,4.72,8.39c5,6,8.07,12,2.26,18.74a5,5,0,0,0,4.31,2.32c13.3,1.84,26.33-.67,39.45-2.45,8-1.08,9.52-3.63,6.36-11.41a200.65,200.65,0,0,1-8.46-28.64c-3.78-15.51-5.45-32.2-20.21-42.6-1.48-1-2.56-2.52-3.95-3.62a17.42,17.42,0,0,1-7-17.14c1.33-6.89-1.34-11.92-4.23-17.2a110.28,110.28,0,0,0-7.52-11.88c-2.81-4.2-.61-7.48,2.38-9.95,3.42-2.8,6-.06,8,2.56,1.43,1.84,2.34,4.13,3.86,5.86,2.65,3,3.15,7.86,7.9,9,17.73-8.26,25.56-8.34,36.52,7.58a20.34,20.34,0,0,1,3,16c-2.24,11.64-12.57,13.45-22.92,17.27C683.57,705.42,687.52,731.84,696.39,756.29Z" transform="translate(-186.06 -263.99)"/><path class="a" d="M702.49,707.62c2.37-5.58,8.59-8.32,13.27-12.64a5,5,0,0,1,5.74-.8,18.1,18.1,0,0,1,9.72,23.68,18.76,18.76,0,0,1-1.43,2.74,38.24,38.24,0,0,1-4.6,6.41c-6.93,7.7-17.51,7.52-24.33-.43C696.39,721.38,696.66,716.57,702.49,707.62Z" transform="translate(-186.06 -263.99)"/><path class="a" d="M639.07,691.23c10.13.85,13.14,5.65,9.65,14.7-3.06,7.93-9.29,12.37-16.53,11.63a15.09,15.09,0,0,1-12.93-12.44c-.72-4.21,7.31-19.78,11.06-20.64C635.73,683.23,638.44,686.49,639.07,691.23Z" transform="translate(-186.06 -263.99)"/><path class="a" d="M451.64,264c2.52,5.58,5.13,11.11,7.55,16.75,3.92,9.14,7,19.31,21.91,12.53l0,2.49a53.53,53.53,0,0,1-5.41,7.55c-12.32,12.28-24.87,24.36-37.24,36.61-6.67,6.61-5.91,10.05,3.09,13.1a44.35,44.35,0,0,0,11.7,2.22c12.13.64,11.25.27,14.12-11.42,2.67-10.92,8.67-20.62,18.13-30.28,2.88,11,4.9,20.12,7.77,28.94,1,3,4.07,5.21,6.2,7.79,2.19-2.3,4.51-4.47,6.5-6.9a11,11,0,0,0,1.46-4c2.44-9.06,7-18.62-8.49-24.08,10.06-5.21,17.91-4.09,23.07.75,7.65,7.16,13.32,16.41,20,24.62A13.57,13.57,0,0,0,548,345.4,51.76,51.76,0,0,0,560.67,347c2.3,0,4.64-1.13,7-1.76-.65-2.26-.7-5-2.08-6.72-7.55-9.3-15.55-18.26-23.2-27.46-8.15-9.76-8.07-10.41-1-20.55,4.57-6.52,9-13.13,13.57-19.67.11-.14.54,0,1.31-.15-.48,5.37-.94,10.68-1.59,18.26l15-8.22,1.72,1.11c-2.81,4.89-5.81,9.69-8.33,14.71-.91,1.84-1.68,4.86-.75,6.21s4.06,1.68,6,1.24c9.24-1.78,18.45-3.69,27.58-5.91,10.54-2.56,11.4-1.79,9.55,9.2q-1.09,6.78-2,13.55c-.81,6.35,1.78,9.45,8.43,9.88,19.57,1.29,19.45,1.41,10.58,19.44-1.69,3.34-2.07,7.26-3.08,10.92a77.64,77.64,0,0,0,11.39-1c6.21-1.46,12.28-3.51,18.4-5.4l1.25,2.11c-5.85,6.9-11.08,14.3-17.65,20.34-17.4,15.91-24.27,36.47-28.25,58.7a127.42,127.42,0,0,1-5.17,18.06c-3.57,10.64-2.75,12.76,7.63,17.95a25.71,25.71,0,0,1,3.61,2.22c.4.29.54.94,1.15,2.08-11.14,2.29-9.83,8.64-6.33,17,2.93,7,3.85,14.86,5.46,22.37,2,9.12,3.69,18.29,5.61,27.78-8.09-7.77-15.93-16.13-24.65-23.44-8-6.69-16.9-12.25-25.44-18.31-.45-.32-1.13-.4-1.5-.8-9-9.51-18.73-16.57-32.62-9.8-16.43-11.19-33.08,4.89-49.77-.39a60.54,60.54,0,0,0-20.09-2,17.51,17.51,0,0,0-10.71,4.57c-15.57,15.37-30.82,31-45.94,46.87-5,5.18-9.43,11-14.12,16.53l-2.56-1c1.53-12,3.26-24,4.46-36,.5-5.14-.48-10.55-.52-15.84,0-1.85,1.18-3.73,1.13-5.58a89.18,89.18,0,0,0-1.13-9.5c-.36-2.69-1-5.36-1.11-8.06,0-1,.89-2.06,1.5-3,8-12.82,9.37-26.1,4.86-40.72-2.38-7.76-2.39-16.33-2.92-24.56-.5-7.71-3.3-13.47-10.06-17.7-9.1-5.68-17.79-12-28.62-19.41l21.64-7c9.18-2.95,9.41-3.88,4.87-12.52-3.6-6.83-6.73-13.93-10.06-20.9l2.24-2.28c6.18,1.67,12.31,3.34,18.52,4.78a26.69,26.69,0,0,0,6.44-.13c0-2.14.38-4.51-.39-6.37-3.71-9.11-7.76-18.08-11.69-27.08l1.85-2,26.08,13.24,2.66-2.14-17.39-37.92c6.47,1.67,10.72,2.4,14.71,3.83,8,2.91,16,6.12,23.89,9.38,4.74,2,7,.38,7.47-4.56.68-6.38,1.53-12.74,2.29-19.12Zm69.81,133c2,4,4.3,10.36,8,15.81,7.08,10.39,30.78,12.35,38.57,3.32,7.14-8.22,14.12-16.61,20.68-25.31a8.85,8.85,0,0,0,.66-8,99.5,99.5,0,0,0-13-16.92c-8.53-8.72-18.14-9.47-28.5-3.24-3.41,2-7,3.92-10.48,5.8C527.1,373.93,522.9,383.09,521.45,397ZM440.14,421.1c13.32-1.19,26.88-6.69,36.16-20.26,3.89-5.68,5.78-11.6,2.39-18.43-4.08-8.2-24.38-18.68-33.26-16.91a7.17,7.17,0,0,0-2.43.76c-10.1,6.92-20.71,13.09-25.34,25.58C411.88,407.43,421.17,421.3,440.14,421.1Z" transform="translate(-186.06 -263.99)"/></svg>