<svg xmlns="http://www.w3.org/2000/svg" viewBox="0 0 967.1 956.25"><defs><style>.a{fill:#fff;}</style></defs><title>face_11</title><path class="a" d="M971.91,610c-10.88-9.09-21-19.12-32.56-27.35-8.2-5.8-9.32-5.77-17-.31-15.82,11.23-34,15.08-52.68,17.58a227.07,227.07,0,0,1-30,1.36c-3.15,0-6.52-1-9.5,1.6-2.09,7.77-4.18,15.24.07,23.79,2.7,5.43,1.42,12.67,3.85,19.39l-7.72,8.76c-3.85,0-4.29-2.4-4.92-4.55a133,133,0,0,1-5.65-43c.13-3.48,1.23-7.69-3.42-8.93a7.77,7.77,0,0,0-9.25,3.87c-3.89,7.1-9.9,8-17.26,7.48A50.41,50.41,0,0,0,750.79,621a45,45,0,0,1-18.69,9.47c-6.7,1.48-13.07,4.59-19.56,7-2.25-4.2.25-6.61,2.08-9.2,3.47-4.84,7.72-9.42,13.44-10.66,17.31-3.78,29.83-18,47.34-21.11a3.65,3.65,0,0,0,3.53-3.8c0-.07,0-.15,0-.22-1.26-2.75-4.29-2.4-6.56-3.25a135.3,135.3,0,0,1-45.06-27.65c-4.18-3.92-8.23-4.94-12.93-1.72s-11.09,3.36-16.17,6.36c-4.58,2.72-6.76,5.9-3.74,11a17,17,0,0,1,2.43,7.3c.58,7.34-2.94,10.53-11,10a5.21,5.21,0,0,1-1.38-1.39c-9.82-22.09-9.26-23.69,10.23-39.65,4.52-3.67,11.56-4.75,13.39-10.45,1.94-6.1-4.34-10.32-6.41-15.62-6.75-17.28-7.47-34.5-.41-51.88,4.08-10.06,3.84-10-4.1-17.34a54.88,54.88,0,0,1-7.41-9c-3.31-4.65-6.74-6.73-11.93-2.42-4.49,3.71-8.46,2-11.71-2-2.09-2.72-5.4-5.31-2.85-9.31s6.45-6.72,10.41-5.55c7.21,2.11,15.41,3.58,18.79,12a17.93,17.93,0,0,0,7.17,7.69c9.41,6.58,12.18,6.46,19.25-2.42,9.84-12.33,22-21.68,35.45-29.68A30.41,30.41,0,0,0,759,414c.44-.34.51-1.15.92-2.17-1.69-4.26-6.08-6.07-9.51-8.69-5.38-4.07-11.28-7.49-16.76-11.56a48.39,48.39,0,0,0-22.54-9.6c-8.72-1.27-17.44-4.15-23.9-11.54a47.92,47.92,0,0,1,13.94-11.35c6.32,5.29,13.11,8.37,21.37,5.79,3.6-1.14,6.2.88,8.61,3.16,12.24,11.66,26.78,20.12,40.92,29.13,7.17,4.59,14.68,6.38,23,3.31a122.33,122.33,0,0,1,25.83-5.77c3.53-4.1,2.55-8.46,2.42-12.54-.24-9.6-1.12-19.34-1.26-29-.12-7.63.75-8.82,6.79-14.39,8.46,5.73,10.87,14.15,9,23.54-2,10.18-.06,19.85,1.82,31.19,20.89,1.74,42.18,2.82,62.21,11.7,10.92-15,18.07-31.81,30.76-45.11a32.12,32.12,0,0,1,9.07,11.35c-2.53,8.1-7.77,14.33-12.12,21s-9.34,13.1-10.52,21.68c12.87,10.77,24.44,22.26,32,37.38,3.54,7.05,7.2,14,8.16,21.62,3.87,30.18,4.2,59.95-14.53,86.35-3.68,5.27-2.05,9.2,2.25,12.47,5.92,4.52,11,10,17.14,14.22,6.69,4.66,12.32,10.53,14,19ZM781.42,512.2c-2.37,4-1.74,7.28-1.46,10.44a206,206,0,0,0,8.5,42.53c3.56,12.31,12.14,18.57,24,21.11a150.93,150.93,0,0,0,51.09,1.64c2.76-.35,6,.6,8.1-2.18,1-12,5.46-17.6,16.49-20.42,7-1.8,14-2.21,20.7,1.49,2.43,1.34,5.35,3.77,8.08,2.11,9.47-5.71,18.76-12.27,21.78-23.46,1.87-7.11,3.65-14.33,5.7-21.5a129.35,129.35,0,0,0,5-50.77c-1-9.05-2.65-10.61-11.87-11.28-2.68,1-2.21,4.83-5.95,5.68-6.45-2.7-9.52-9-13.11-14.54,7.06-13.94,7.06-13.94,16.5-12a4.44,4.44,0,0,0,.14-1.79,11.49,11.49,0,0,0-1.38-2.53c-8.31-12.4-21.55-16.87-34.7-21.33-3.09-1.05-5.71.18-6.44,2.19a5.8,5.8,0,0,0,1.17,5.72,5.5,5.5,0,0,1,.31,5.53c-9.69,4.79-17,6.05-24,3.33-11-4.3-17.26-12.92-20.16-25.12-9.4,1.87-18.77-1.1-27.41,3.63.83,4.25,4.23,5.28,6.58,7.32a25.22,25.22,0,0,1,8.14,11.76c3,10-1.43,17.43-11.64,19a54.26,54.26,0,0,0-10.43,1.83c-8.1,3.05-15.45,4-20.27-4.49a5.43,5.43,0,0,0-4,3.63c-6.76,13.12-8.92,27.56-11.86,41.83-1.82,8.73.29,11.19,9.51,10.75A222.12,222.12,0,0,1,821.39,504c17.48,1.74,35.41,6.11,51.58-5.42,1.54-1.18,3.56-1.73,5.21-2.77a19.13,19.13,0,0,1,20.32-.95c6.66,3.9,12.86,2.95,19.4,1.89A122.33,122.33,0,0,0,933,493.25c5.4-1.38,8,2.1,9.46,6.1,1.66,4.57-2.11,6.22-5.58,7.37-2.43.82-5.14.92-7.49,1.87-4.05,1.67-9.3.4-12.18,4.93,2.11,21.42-.67,29.57-21.2,35.12A22.35,22.35,0,0,1,878.29,546c-11.26-6.58-9.37-18-9.55-30.09C838.89,517.47,810,511.92,781.42,512.2Z" transform="translate(-10.96 -24.46)"/><path class="a" d="M829.69,536.3c4.93,4.5,5.5,12,8.27,18.39a5.47,5.47,0,0,1-1.26,6.25,19.91,19.91,0,0,1-28.12,1.44,20.19,20.19,0,0,1-2.32-2.49,42.23,42.23,0,0,1-5-7.11c-5.46-10-1.41-20.92,9.33-25.09C817.65,525,822.54,527,829.69,536.3Z" transform="translate(-10.96 -24.46)"/><path class="a" d="M869.86,476.48c-4.58,10.2-10.67,11.58-18.77,4.65-7.12-6.07-9.44-14.16-6-21.4a16.58,16.58,0,0,1,17.63-8.88c4.64.79,17.86,14.81,17.38,19C879.39,475.94,875,477.56,869.86,476.48Z" transform="translate(-10.96 -24.46)"/><path class="a" d="M480.94,737.17c-2.15-5.51,0-9.85.35-14.27.81-11.29-1.94-21.17-11.17-28.44-6.88-5.43-14.4-4.64-19,2.73A43.69,43.69,0,0,0,447,736.27c1.93,5.41,7.29,6.89,12.44,8,6.17,1.26,12.14-.33,18.67-1.94,6.92,10.18,10.59,21.64,13.05,33.11,2.67,12.63,8.55,20.05,21.87,21.47,6.59.69,11.41-.43,14.3-6.75a72,72,0,0,0,6.59-21.17c1.3-11,5.82-21.15,7.93-31.89.74-3.53,3.41-4.36,6-5.66,13.57-6.92,25.61-16.19,38-25A55,55,0,0,0,598.21,693a7.12,7.12,0,0,0,1.16-7.21c-7-18.49.33-32.7,19-39.72,8.61-3.24,16.19-.76,23.4,2.17,6.07,2.48,9.69,1.07,13.57-3a22.23,22.23,0,0,1,2.19-1.93c4-3.24,8.37-7.76,13.45-2.89s1.94,10-2.07,14.32c-11.3,12.24-25.07,21.93-36,35.17.58,4.19,4.11,4.59,7.75,4.34,12.86-.85,25.61,2.27,38.6.12,8.2-1.34,8.78,0,8.76,9.5-7,.73-13.24,4-19.58,7.07-9.81,4.75-20,.41-28-3.43-16.05-7.75-28-4.22-41.91,5.35C587.33,720.69,579,729.26,574,741.6c-.69,1.77-1.94,3.46-.62,5.49,1.84,1.75,3.57.47,5.22-.41,6.26-3.29,12.87-5.66,19-.67,6.91,5.56,10.55,13.06,9,22.21a56.76,56.76,0,0,1-22.93,36.84c-6.28,4.63-8.59,9.82-7.91,17.27.85,9.34,1.51,18.69,4.84,27.57,2.39,6.33,1.69,11.78-3.1,16.92-6.38,6.84-8.93,14.73-5.41,24.06a9.81,9.81,0,0,1-1,10.18,92.22,92.22,0,0,0-19.87,41.38c-4-10.54,6.26-22-2.19-33-5.65,5.81-3.07,12.56-3.53,18.55-.29,3.72,1.24,7.76-3.47,10.12a8.61,8.61,0,0,1-11.25-2.5c-2.3-2.66-6.39-3.55-7.54-1.22-4.07,8.2-13.67,11.79-18.38,22.85,16.19-1.64,30.36-2.19,44.15-6.63,4.14,16.11-1.13,25.89-16.87,29.45-13.94,3.16-29.87-6.67-32.51-21-3.63-19.7-11.13-38.87-24.64-54.67a10.27,10.27,0,0,1-2.77-7.89,38.58,38.58,0,0,0-6.38-23.93,15.18,15.18,0,0,1-.64-15.5,57.86,57.86,0,0,0,3.1-9.14c2.17-8.08-.75-13.78-8.28-17.44-5.23-2.48-10.5-4.93-15.51-7.89a39.46,39.46,0,0,1-9.88-59.62c3.87-4.51,2.77-7.5-1.94-9.86a85,85,0,0,1-30-26.37,36.32,36.32,0,0,0-23.87-15,221.26,221.26,0,0,1-58.7-19.25c-1.06-5.18,4-4.38,5.1-7.39-2.27-4.24-8.84-3.76-10.91-10.66,10.78,2.81,20.39,5.82,27.62,13.1A24.48,24.48,0,0,0,355,694.79c8.51,1.74,16.94,4,25.47,5.7,6.24,1.24,12.17.11,18.57-5.08a70.23,70.23,0,0,1-15.89-28.73c-2.85-9.79-11.25-18.75-5.82-31.25,5,3.25,7.1,8.66,13.34,8.08,3.43-.33,3.53,3.88,4.15,6.73,5.27,24.15,17.23,45,31.83,64.57,2.81,3.76,2.89,3.71,8.78,5.61,1.3-15.88,4.85-30.46,24.17-32.61,11-1.28,21.48,5.17,26.62,15.72A30.26,30.26,0,0,1,480.94,737.17Zm86.77,61.62c4.91-13.35,12.91-20.41,25.48-23.26,7-1.57,6.2-9,5.71-14.71-.36-4-1-8.79-6.68-9.06-8.46-.4-16.42.16-22.78,7.33a66.44,66.44,0,0,0-15.18,26.52c-1.18,4.29-3,9.09.41,14.42,3.93-3.43,7.83-5.42,13-1.24ZM450.25,818c-3.08-4.85-1.12-10.53-2.42-14.52-3.26-10.14,1.36-11.44,9.11-13.26,13.26-3.14-2.35-15.65,6.16-21.17,1.38-.9-1.43-3.88-3.29-5.12a6.13,6.13,0,0,0-1.8-.68c-11.07-3.35-18.17.56-21.17,11.63A46,46,0,0,0,435.21,795C436.84,804.75,440.07,813.59,450.25,818ZM617.86,682.44c10.78,0,16.19-2.91,21.91-7.91,6.48-5.64.85-10.57.27-15.74-1.12-9.91-8.84-14-17.79-10.12-9.29,4.05-14.43,11.63-18,20.49-2.46,6.16,0,10,5.94,11.88A51,51,0,0,0,617.86,682.44ZM563.27,869.2C551.74,872.79,548.09,880,546,888.14c-1.07,4.21-.68,8.42,5.6,9.7,7.08-7.25,8.14-17.06,11.65-28.64Zm-77.68.35c5.24,4.73,5.45,10.67,5.35,16.79,0,5,2.72,8.2,7.76,7.47,6-.88,5.23-6,4-9.83-2.58-7.7-8.26-12.55-17.06-14.43Zm17.06,69a3.5,3.5,0,0,0,1.36-4.09c-1.34-3.67,1.76-8.57-3-11.25a2.61,2.61,0,0,0-3.6.84,2,2,0,0,0-.27.58c-1.94,4.73.71,8.59,2.85,12.44.33.66,1.51.82,2.65,1.48Zm41.6,24.83c-5.64-5.47-10.44-2.94-17.75-.21,7.21,1.86,11.94,3.8,17.75.21Zm-43.38-59.94c-2.41,4-3.88,6.8-.66,10.18,3.1-2.87,3.72-5.68.66-10.18Z" transform="translate(-10.96 -24.46)"/><path class="a" d="M462.35,732.86c-7.14.14-13-4.17-13.24-9.81s5.21-11,10.95-11.34a12.64,12.64,0,0,1,12.87,11.63C473.09,730.59,468.65,732.82,462.35,732.86Zm1-5.35c2.15-3.88,2.27-7.33-2.12-9.34-1.93-.86-3.7.85-3.87,3-.37,4.07,1.12,6.77,6,6.34Z" transform="translate(-10.96 -24.46)"/><path class="a" d="M630.33,660.26c2.36,5.82-.85,10.22-5,13.28s-9.08,1.59-13.34-.95C615.07,660.3,618.6,658,630.33,660.26Zm-12.08,9.54c5.82.29,8.32-1.07,8-6.38C622.3,663.81,620.4,665.82,618.25,669.8Z" transform="translate(-10.96 -24.46)"/><path class="a" d="M480.94,737.17c-2.15-5.51,0-9.85.35-14.27.81-11.29-1.94-21.17-11.17-28.44-6.88-5.43-14.4-4.64-19,2.73A43.69,43.69,0,0,0,447,736.27c1.93,5.41,7.29,6.89,12.44,8,6.17,1.26,12.14-.33,18.67-1.94,6.92,10.18,10.59,21.64,13.05,33.11,2.67,12.63,8.55,20.05,21.87,21.47,6.59.69,11.41-.43,14.3-6.75a72,72,0,0,0,6.59-21.17c1.3-11,5.82-21.15,7.93-31.89.74-3.53,3.41-4.36,6-5.66,13.57-6.92,25.61-16.19,38-25A55,55,0,0,0,598.21,693a7.12,7.12,0,0,0,1.16-7.21c-7-18.49.33-32.7,19-39.72,8.61-3.24,16.19-.76,23.4,2.17,6.07,2.48,9.69,1.07,13.57-3a22.23,22.23,0,0,1,2.19-1.93c4-3.24,8.37-7.76,13.45-2.89s1.94,10-2.07,14.32c-11.3,12.24-25.07,21.93-36,35.17.58,4.19,4.11,4.59,7.75,4.34,12.86-.85,25.61,2.27,38.6.12,8.2-1.34,8.78,0,8.76,9.5-7,.73-13.24,4-19.58,7.07-9.81,4.75-20,.41-28-3.43-16.05-7.75-28-4.22-41.91,5.35C587.33,720.69,579,729.26,574,741.6c-.69,1.77-1.94,3.46-.62,5.49,1.84,1.75,3.57.47,5.22-.41,6.26-3.29,12.87-5.66,19-.67,6.91,5.56,10.55,13.06,9,22.21a56.76,56.76,0,0,1-22.93,36.84c-6.28,4.63-8.59,9.82-7.91,17.27.85,9.34,1.51,18.69,4.84,27.57,2.39,6.33,1.69,11.78-3.1,16.92-6.38,6.84-8.93,14.73-5.41,24.06a9.81,9.81,0,0,1-1,10.18,92.22,92.22,0,0,0-19.87,41.38c-4-10.54,6.26-22-2.19-33-5.65,5.81-3.07,12.56-3.53,18.55-.29,3.72,1.24,7.76-3.47,10.12a8.61,8.61,0,0,1-11.25-2.5c-2.3-2.66-6.39-3.55-7.54-1.22-4.07,8.2-13.67,11.79-18.38,22.85,16.19-1.64,30.36-2.19,44.15-6.63,4.14,16.11-1.13,25.89-16.87,29.45-13.94,3.16-29.87-6.67-32.51-21-3.63-19.7-11.13-38.87-24.64-54.67a10.27,10.27,0,0,1-2.77-7.89,38.58,38.58,0,0,0-6.38-23.93,15.18,15.18,0,0,1-.64-15.5,57.86,57.86,0,0,0,3.1-9.14c2.17-8.08-.75-13.78-8.28-17.44-5.23-2.48-10.5-4.93-15.51-7.89a39.46,39.46,0,0,1-9.88-59.62c3.87-4.51,2.77-7.5-1.94-9.86a85,85,0,0,1-30-26.37,36.32,36.32,0,0,0-23.87-15,221.26,221.26,0,0,1-58.7-19.25c-1.06-5.18,4-4.38,5.1-7.39-2.27-4.24-8.84-3.76-10.91-10.66,10.78,2.81,20.39,5.82,27.62,13.1A24.48,24.48,0,0,0,355,694.79c8.51,1.74,16.94,4,25.47,5.7,6.24,1.24,12.17.11,18.57-5.08a70.23,70.23,0,0,1-15.89-28.73c-2.85-9.79-11.25-18.75-5.82-31.25,5,3.25,7.1,8.66,13.34,8.08,3.43-.33,3.53,3.88,4.15,6.73,5.27,24.15,17.23,45,31.83,64.57,2.81,3.76,2.89,3.71,8.78,5.61,1.3-15.88,4.85-30.46,24.17-32.61,11-1.28,21.48,5.17,26.62,15.72A30.26,30.26,0,0,1,480.94,737.17Zm86.77,61.62c4.91-13.35,12.91-20.41,25.48-23.26,7-1.57,6.2-9,5.71-14.71-.36-4-1-8.79-6.68-9.06-8.46-.4-16.42.16-22.78,7.33a66.44,66.44,0,0,0-15.18,26.52c-1.18,4.29-3,9.09.41,14.42,3.93-3.43,7.83-5.42,13-1.24ZM450.25,818c-3.08-4.85-1.12-10.53-2.42-14.52-3.26-10.14,1.36-11.44,9.11-13.26,13.26-3.14-2.35-15.65,6.16-21.17,1.38-.9-1.43-3.88-3.29-5.12a6.13,6.13,0,0,0-1.8-.68c-11.07-3.35-18.17.56-21.17,11.63A46,46,0,0,0,435.21,795C436.84,804.75,440.07,813.59,450.25,818ZM617.86,682.44c10.78,0,16.19-2.91,21.91-7.91,6.48-5.64.85-10.57.27-15.74-1.12-9.91-8.84-14-17.79-10.12-9.29,4.05-14.43,11.63-18,20.49-2.46,6.16,0,10,5.94,11.88A51,51,0,0,0,617.86,682.44ZM563.27,869.2C551.74,872.79,548.09,880,546,888.14c-1.07,4.21-.68,8.42,5.6,9.7,7.08-7.25,8.14-17.06,11.65-28.64Zm-77.68.35c5.24,4.73,5.45,10.67,5.35,16.79,0,5,2.72,8.2,7.76,7.47,6-.88,5.23-6,4-9.83-2.58-7.7-8.26-12.55-17.06-14.43Zm17.06,69a3.5,3.5,0,0,0,1.36-4.09c-1.34-3.67,1.76-8.57-3-11.25a2.61,2.61,0,0,0-3.6.84,2,2,0,0,0-.27.58c-1.94,4.73.71,8.59,2.85,12.44.33.66,1.51.82,2.65,1.48Zm41.6,24.83c-5.64-5.47-10.44-2.94-17.75-.21,7.21,1.86,11.94,3.8,17.75.21Zm-43.38-59.94c-2.41,4-3.88,6.8-.66,10.18,3.1-2.87,3.72-5.68.66-10.18Z" transform="translate(-10.96 -24.46)"/><path class="a" d="M462.35,732.86c-7.14.14-13-4.17-13.24-9.81s5.21-11,10.95-11.34a12.64,12.64,0,0,1,12.87,11.63C473.09,730.59,468.65,732.82,462.35,732.86Zm1-5.35c2.15-3.88,2.27-7.33-2.12-9.34-1.93-.86-3.7.85-3.87,3-.37,4.07,1.12,6.77,6,6.34Z" transform="translate(-10.96 -24.46)"/><path class="a" d="M630.33,660.26c2.36,5.82-.85,10.22-5,13.28s-9.08,1.59-13.34-.95C615.07,660.3,618.6,658,630.33,660.26Zm-12.08,9.54c5.82.29,8.32-1.07,8-6.38C622.3,663.81,620.4,665.82,618.25,669.8Z" transform="translate(-10.96 -24.46)"/><path class="a" d="M11,552c6.34-2.81,12.62-5.71,19-8.41,10.37-4.36,21.9-7.75,14.34-24.7h2.82A61.41,61.41,0,0,1,55.65,525c13.8,14,27.37,28.32,41.13,42.41,7.43,7.6,11.32,6.77,14.85-3.39a50.15,50.15,0,0,0,2.6-13.22c.81-13.72.39-12.74-12.81-16.07-12.33-3.1-23.27-10-34.12-20.74,12.48-3.18,22.79-5.39,32.8-8.57,3.35-1.07,5.93-4.58,8.86-7-2.58-2.5-5-5.14-7.76-7.41a12.28,12.28,0,0,0-4.49-1.68c-10.24-2.83-21-8.07-27.32,9.42-5.82-11.42-4.5-20.3,1-26.1,8.16-8.6,18.67-14.94,28-22.46a15.28,15.28,0,0,0,5.39-6.69,58.44,58.44,0,0,0,1.94-14.35c0-2.6-1.24-5.25-1.94-7.89-2.56.72-5.7.76-7.62,2.31-10.58,8.47-20.78,17.45-31.25,26-11.11,9.15-11.84,9.06-23.26.95-7.35-5.21-14.79-10.31-22.16-15.51-.16-.11,0-.6-.16-1.47,6.07.58,12.08,1.15,20.65,1.94l-9.19-17,1.28-1.94c5.51,3.22,10.92,6.65,16.58,9.54,2.07,1,5.48,1.94,7,.89s1.94-4.58,1.46-6.81c-1.94-10.46-4-20.89-6.48-31.25-2.81-11.94-1.94-12.91,10.49-10.74q7.67,1.31,15.32,2.33c7.17,1,10.7-1.94,11.24-9.46,1.61-22.14,1.74-22,22.08-11.83,3.76,1.94,8.2,2.41,12.33,3.57A88.36,88.36,0,0,0,121.07,350c-1.61-7-3.87-13.92-6-20.86l2.41-1.4c7.75,6.67,16.09,12.64,22.87,20.13,17.88,19.81,41.08,27.74,66.21,32.41a146.13,146.13,0,0,1,20.39,6c12,4.13,14.42,3.22,20.38-8.49a29.41,29.41,0,0,1,2.53-4.07c.33-.45,1.07-.6,2.37-1.28,2.5,12.62,9.69,11.19,19.13,7.29,7.95-3.26,16.85-4.25,25.36-6,10.33-2.13,20.72-4,31.48-6.13-8.86,9.1-18.37,17.9-26.71,27.71-7.64,9-14,19-20.92,28.65-.37.5-.46,1.28-.91,1.69-10.84,10.11-18.9,21.07-11.34,36.83-12.79,18.51,5.27,37.47-.83,56.32a68.6,68.6,0,0,0-2.45,22.72,19.81,19.81,0,0,0,5.08,12.15c17.28,17.74,34.9,35.11,52.69,52.34,5.82,5.7,12.39,10.76,18.6,16.11L340.27,625c-13.57-1.82-27.14-3.87-40.71-5.33-5.81-.6-11.94.47-17.93.47-2.09,0-4.21-1.36-6.3-1.32a102,102,0,0,0-10.76,1.2c-3,.39-6.07,1.07-9.13,1.2-1.11,0-2.33-1-3.41-1.72-14.45-9.13-29.47-10.8-46-5.82-8.81,2.64-18.5,2.58-27.82,3.12-8.73.51-15.26,3.63-20.11,11.25-6.49,10.25-13.72,20-22.18,32.24l-7.75-24.55c-3.28-10.41-4.32-10.68-14.13-5.6-7.76,4-15.82,7.5-23.73,11.22l-2.56-2.55c1.94-7,3.88-13.9,5.54-20.92a29.63,29.63,0,0,0-.09-7.29c-2.43,0-5.1-.47-7.21.39-10.34,4.13-20.51,8.64-30.73,13L53,621.88l15.18-29.41-2.4-3-43,19.38c1.94-7.3,2.79-12.11,4.44-16.61,3.35-9.07,7.06-18,10.8-27,2.25-5.35.48-7.87-5.1-8.49-7.21-.81-14.41-1.82-21.62-2.73Zm151-78c4.5-2.19,11.75-4.78,18-8.93,11.81-7.93,14.21-34.74,4-43.62-9.25-8.14-18.69-16.11-28.48-23.59a10,10,0,0,0-9.07-.82,113.11,113.11,0,0,0-19.25,14.54c-9.93,9.58-10.86,20.45-3.88,32.22,2.27,3.88,4.38,7.91,6.48,11.9C135.94,467.41,146.28,472.24,162,474Zm26.67,92.2c-1.24-15.08-7.36-30.47-22.64-41.08-6.4-4.43-13.08-6.63-20.84-2.84-9.3,4.55-21.32,27.45-19.39,37.51a8.06,8.06,0,0,0,.84,2.75c7.75,11.48,14.65,23.53,28.75,28.87C173,598.05,188.73,587.64,188.65,566.18Z" transform="translate(-10.96 -24.46)"/><path class="a" d="M555.58,268c2.15,5.5,0,9.84-.35,14.26-.82,11.29,1.94,21.17,11.16,28.44,6.89,5.43,14.41,4.64,19-2.73a43.72,43.72,0,0,0,4.15-39.08c-1.94-5.41-7.29-6.88-12.45-7.95-6.16-1.26-12.13.33-18.66,1.94-6.93-10.18-10.59-21.64-13.05-33.11-2.68-12.62-8.55-20.05-21.87-21.46-6.59-.7-11.42.42-14.31,6.74a72.28,72.28,0,0,0-6.59,21.17c-1.3,11-5.81,21.15-7.93,31.89-.73,3.53-3.41,4.36-6,5.66-13.57,6.92-25.61,16.19-38,25a55,55,0,0,0-12.47,13.4,7.12,7.12,0,0,0-1.16,7.21c7,18.49-.33,32.7-19,39.72-8.61,3.24-16.19.76-23.4-2.17-6.07-2.48-9.69-1.07-13.57,3a23.72,23.72,0,0,1-2.19,1.94c-4,3.23-8.38,7.75-13.46,2.88s-1.93-10,2.08-14.32c11.3-12.23,25.06-21.93,36-35.17-.58-4.19-4.11-4.59-7.76-4.34-12.85.85-25.61-2.27-38.59-.12-8.2,1.34-8.79,0-8.77-9.5,7-.73,13.24-4,19.58-7.07,9.81-4.75,20-.41,28,3.43,16.05,7.75,28,4.23,41.91-5.35,11.21-7.76,19.58-16.32,24.54-28.67.7-1.77,1.94-3.45.62-5.49-1.84-1.74-3.56-.46-5.21.41-6.26,3.29-12.87,5.66-19,.68-6.9-5.57-10.54-13.07-8.95-22.22a56.72,56.72,0,0,1,22.93-36.83c6.28-4.64,8.59-9.83,7.91-17.28-.85-9.34-1.51-18.69-4.85-27.56-2.38-6.34-1.68-11.79,3.1-16.93,6.38-6.84,8.94-14.73,5.41-24.06a9.81,9.81,0,0,1,1-10.17,92.36,92.36,0,0,0,19.87-41.39c4,10.54-6.26,22,2.19,33,5.64-5.81,3.06-12.56,3.53-18.55.29-3.72-1.24-7.75,3.47-10.12a8.59,8.59,0,0,1,11.24,2.5c2.31,2.66,6.4,3.55,7.54,1.22,4.08-8.2,13.67-11.78,18.38-22.85-16.18,1.64-30.36,2.19-44.14,6.63-4.15-16.11,1.13-25.88,16.87-29.45,13.94-3.16,29.87,6.67,32.51,21,3.62,19.69,11.12,38.86,24.64,54.66a10.31,10.31,0,0,1,2.77,7.89,38.45,38.45,0,0,0,6.38,23.93,15.22,15.22,0,0,1,.64,15.51,56.42,56.42,0,0,0-3.1,9.13c-2.18,8.08.75,13.78,8.27,17.44,5.24,2.49,10.51,4.93,15.51,7.89a39.45,39.45,0,0,1,9.89,59.62c-3.88,4.51-2.77,7.5,1.94,9.86a85.29,85.29,0,0,1,30,26.37,36.32,36.32,0,0,0,23.86,15,221.14,221.14,0,0,1,58.7,19.25c1.07,5.18-4,4.38-5.1,7.39,2.27,4.25,8.84,3.76,10.92,10.66-10.78-2.81-20.4-5.81-27.63-13.1a24.42,24.42,0,0,0-13.12-7.18c-8.51-1.74-16.94-4-25.47-5.7-6.25-1.24-12.18-.11-18.58,5.08a70.14,70.14,0,0,1,15.9,28.73c2.85,9.79,11.24,18.75,5.82,31.25-5-3.25-7.1-8.66-13.34-8.08-3.43.33-3.53-3.88-4.15-6.73-5.27-24.15-17.23-45-31.83-64.57-2.81-3.76-2.89-3.7-8.78-5.6-1.3,15.87-4.85,30.45-24.18,32.6-11,1.28-21.48-5.17-26.62-15.72A30.26,30.26,0,0,1,555.58,268ZM468.8,206.37c-4.9,13.35-12.91,20.41-25.47,23.26-7,1.57-6.2,9-5.72,14.72.37,4,1,8.78,6.69,9.05,8.45.41,16.42-.16,22.78-7.33a66.56,66.56,0,0,0,15.18-26.52c1.18-4.28,3-9.09-.41-14.42-3.93,3.43-7.83,5.43-13.05,1.24Zm117.46-19.18c3.09,4.85,1.13,10.53,2.43,14.52,3.26,10.14-1.36,11.44-9.11,13.27-13.26,3.14,2.34,15.64-6.17,21.16-1.37.9,1.44,3.88,3.3,5.12a6.13,6.13,0,0,0,1.8.68c11.07,3.35,18.17-.56,21.17-11.63a46.17,46.17,0,0,0,1.63-20.16C599.68,200.42,596.44,191.58,586.26,187.19ZM418.65,322.72c-10.78,0-16.18,2.91-21.9,7.91-6.48,5.64-.86,10.57-.28,15.74,1.13,9.91,8.84,14,17.8,10.12,9.29-4.05,14.42-11.63,18-20.49,2.46-6.16,0-10-5.93-11.88A50.85,50.85,0,0,0,418.65,322.72ZM473.24,136c11.54-3.59,15.18-10.76,17.26-18.94,1.06-4.21.68-8.42-5.61-9.7-7.07,7.25-8.14,17.06-11.65,28.64Zm77.68-.35c-5.23-4.73-5.44-10.66-5.35-16.79,0-5-2.71-8.2-7.75-7.46-6,.87-5.24,6-4,9.83,2.58,7.69,8.26,12.54,17.06,14.42Zm-17.06-69a3.51,3.51,0,0,0-1.35,4.09c1.33,3.67-1.77,8.57,3,11.25a2.62,2.62,0,0,0,3.61-.84,2.8,2.8,0,0,0,.27-.58c1.94-4.73-.72-8.59-2.85-12.44-.33-.66-1.51-.82-2.66-1.48Zm-41.6-24.83c5.64,5.47,10.45,2.95,17.76.21-7.21-1.86-11.94-3.8-17.76-.21Zm43.39,59.94c2.4-4,3.87-6.8.66-10.18-3.1,2.87-3.73,5.68-.66,10.18Z" transform="translate(-10.96 -24.46)"/><path class="a" d="M574.17,272.3c7.13-.14,13,4.17,13.24,9.81s-5.22,11.05-10.95,11.34a12.65,12.65,0,0,1-12.88-11.63C563.43,274.57,567.87,272.34,574.17,272.3Zm-1,5.35c-2.15,3.88-2.27,7.33,2.11,9.34,1.94.86,3.71-.85,3.88-3,.37-4.07-1.12-6.77-6-6.34Z" transform="translate(-10.96 -24.46)"/><path class="a" d="M406.19,344.9c-2.37-5.81.85-10.22,5-13.28s9.07-1.59,13.34.95C421.44,344.86,417.92,347.19,406.19,344.9Zm12.07-9.54c-5.81-.29-8.31,1.07-8,6.38C414.21,341.35,416.11,339.34,418.26,335.36Z" transform="translate(-10.96 -24.46)"/><path class="a" d="M555.58,268c2.15,5.5,0,9.84-.35,14.26-.82,11.29,1.94,21.17,11.16,28.44,6.89,5.43,14.41,4.64,19-2.73a43.72,43.72,0,0,0,4.15-39.08c-1.94-5.41-7.29-6.88-12.45-7.95-6.16-1.26-12.13.33-18.66,1.94-6.93-10.18-10.59-21.64-13.05-33.11-2.68-12.62-8.55-20.05-21.87-21.46-6.59-.7-11.42.42-14.31,6.74a72.28,72.28,0,0,0-6.59,21.17c-1.3,11-5.81,21.15-7.93,31.89-.73,3.53-3.41,4.36-6,5.66-13.57,6.92-25.61,16.19-38,25a55,55,0,0,0-12.47,13.4,7.12,7.12,0,0,0-1.16,7.21c7,18.49-.33,32.7-19,39.72-8.61,3.24-16.19.76-23.4-2.17-6.07-2.48-9.69-1.07-13.57,3a23.72,23.72,0,0,1-2.19,1.94c-4,3.23-8.38,7.75-13.46,2.88s-1.93-10,2.08-14.32c11.3-12.23,25.06-21.93,36-35.17-.58-4.19-4.11-4.59-7.76-4.34-12.85.85-25.61-2.27-38.59-.12-8.2,1.34-8.79,0-8.77-9.5,7-.73,13.24-4,19.58-7.07,9.81-4.75,20-.41,28,3.43,16.05,7.75,28,4.23,41.91-5.35,11.21-7.76,19.58-16.32,24.54-28.67.7-1.77,1.94-3.45.62-5.49-1.84-1.74-3.56-.46-5.21.41-6.26,3.29-12.87,5.66-19,.68-6.9-5.57-10.54-13.07-8.95-22.22a56.72,56.72,0,0,1,22.93-36.83c6.28-4.64,8.59-9.83,7.91-17.28-.85-9.34-1.51-18.69-4.85-27.56-2.38-6.34-1.68-11.79,3.1-16.93,6.38-6.84,8.94-14.73,5.41-24.06a9.81,9.81,0,0,1,1-10.17,92.36,92.36,0,0,0,19.87-41.39c4,10.54-6.26,22,2.19,33,5.64-5.81,3.06-12.56,3.53-18.55.29-3.72-1.24-7.75,3.47-10.12a8.59,8.59,0,0,1,11.24,2.5c2.31,2.66,6.4,3.55,7.54,1.22,4.08-8.2,13.67-11.78,18.38-22.85-16.18,1.64-30.36,2.19-44.14,6.63-4.15-16.11,1.13-25.88,16.87-29.45,13.94-3.16,29.87,6.67,32.51,21,3.62,19.69,11.12,38.86,24.64,54.66a10.31,10.31,0,0,1,2.77,7.89,38.45,38.45,0,0,0,6.38,23.93,15.22,15.22,0,0,1,.64,15.51,56.42,56.42,0,0,0-3.1,9.13c-2.18,8.08.75,13.78,8.27,17.44,5.24,2.49,10.51,4.93,15.51,7.89a39.45,39.45,0,0,1,9.89,59.62c-3.88,4.51-2.77,7.5,1.94,9.86a85.29,85.29,0,0,1,30,26.37,36.32,36.32,0,0,0,23.86,15,221.14,221.14,0,0,1,58.7,19.25c1.07,5.18-4,4.38-5.1,7.39,2.27,4.25,8.84,3.76,10.92,10.66-10.78-2.81-20.4-5.81-27.63-13.1a24.42,24.42,0,0,0-13.12-7.18c-8.51-1.74-16.94-4-25.47-5.7-6.25-1.24-12.18-.11-18.58,5.08a70.14,70.14,0,0,1,15.9,28.73c2.85,9.79,11.24,18.75,5.82,31.25-5-3.25-7.1-8.66-13.34-8.08-3.43.33-3.53-3.88-4.15-6.73-5.27-24.15-17.23-45-31.83-64.57-2.81-3.76-2.89-3.7-8.78-5.6-1.3,15.87-4.85,30.45-24.18,32.6-11,1.28-21.48-5.17-26.62-15.72A30.26,30.26,0,0,1,555.58,268ZM468.8,206.37c-4.9,13.35-12.91,20.41-25.47,23.26-7,1.57-6.2,9-5.72,14.72.37,4,1,8.78,6.69,9.05,8.45.41,16.42-.16,22.78-7.33a66.56,66.56,0,0,0,15.18-26.52c1.18-4.28,3-9.09-.41-14.42-3.93,3.43-7.83,5.43-13.05,1.24Zm117.46-19.18c3.09,4.85,1.13,10.53,2.43,14.52,3.26,10.14-1.36,11.44-9.11,13.27-13.26,3.14,2.34,15.64-6.17,21.16-1.37.9,1.44,3.88,3.3,5.12a6.13,6.13,0,0,0,1.8.68c11.07,3.35,18.17-.56,21.17-11.63a46.17,46.17,0,0,0,1.63-20.16C599.68,200.42,596.44,191.58,586.26,187.19ZM418.65,322.72c-10.78,0-16.18,2.91-21.9,7.91-6.48,5.64-.86,10.57-.28,15.74,1.13,9.91,8.84,14,17.8,10.12,9.29-4.05,14.42-11.63,18-20.49,2.46-6.16,0-10-5.93-11.88A50.85,50.85,0,0,0,418.65,322.72ZM473.24,136c11.54-3.59,15.18-10.76,17.26-18.94,1.06-4.21.68-8.42-5.61-9.7-7.07,7.25-8.14,17.06-11.65,28.64Zm77.68-.35c-5.23-4.73-5.44-10.66-5.35-16.79,0-5-2.71-8.2-7.75-7.46-6,.87-5.24,6-4,9.83,2.58,7.69,8.26,12.54,17.06,14.42Zm-17.06-69a3.51,3.51,0,0,0-1.35,4.09c1.33,3.67-1.77,8.57,3,11.25a2.62,2.62,0,0,0,3.61-.84,2.8,2.8,0,0,0,.27-.58c1.94-4.73-.72-8.59-2.85-12.44-.33-.66-1.51-.82-2.66-1.48Zm-41.6-24.83c5.64,5.47,10.45,2.95,17.76.21-7.21-1.86-11.94-3.8-17.76-.21Zm43.39,59.94c2.4-4,3.87-6.8.66-10.18-3.1,2.87-3.73,5.68-.66,10.18Z" transform="translate(-10.96 -24.46)"/><path class="a" d="M574.17,272.3c7.13-.14,13,4.17,13.24,9.81s-5.22,11.05-10.95,11.34a12.65,12.65,0,0,1-12.88-11.63C563.43,274.57,567.87,272.34,574.17,272.3Zm-1,5.35c-2.15,3.88-2.27,7.33,2.11,9.34,1.94.86,3.71-.85,3.88-3,.37-4.07-1.12-6.77-6-6.34Z" transform="translate(-10.96 -24.46)"/><path class="a" d="M406.19,344.9c-2.37-5.81.85-10.22,5-13.28s9.07-1.59,13.34.95C421.44,344.86,417.92,347.19,406.19,344.9Zm12.07-9.54c-5.81-.29-8.31,1.07-8,6.38C414.21,341.35,416.11,339.34,418.26,335.36Z" transform="translate(-10.96 -24.46)"/></svg>