<svg xmlns="http://www.w3.org/2000/svg" viewBox="0 0 506.91 932.18"><defs><style>.a{fill:#fff;}</style></defs><title>face_5</title><path class="a" d="M546,360c2.92,7.47,0,13.36-.47,19.35-1.11,15.3,2.63,28.71,15.14,38.57,9.34,7.37,19.54,6.29,25.8-3.7a59.3,59.3,0,0,0,5.63-53c-2.63-7.34-9.89-9.34-16.88-10.78-8.37-1.71-16.46.44-25.33,2.63-9.38-13.81-14.35-29.35-17.69-44.92-3.63-17.11-11.6-27.18-29.66-29.1-8.94-.95-15.49.58-19.41,9.15a97.82,97.82,0,0,0-8.94,28.71c-1.76,14.94-7.89,28.69-10.75,43.26-1,4.78-4.63,5.91-8.1,7.67-18.41,9.39-34.74,22-51.49,33.87A74.52,74.52,0,0,0,387,419.89a9.66,9.66,0,0,0-1.58,9.78c9.46,25.09-.45,44.36-25.74,53.88-11.68,4.39-22,1-31.74-2.95-8.23-3.36-13.15-1.44-18.41,4a29.69,29.69,0,0,1-3,2.63c-5.47,4.39-11.36,10.52-18.25,3.92s-2.63-13.62,2.82-19.43c15.33-16.59,34-29.74,48.83-47.7-.79-5.68-5.58-6.23-10.52-5.89C312,419.29,294.65,415.05,277,418c-11.12,1.82-11.91,0-11.88-12.88,9.52-1,18-5.39,26.56-9.6,13.3-6.44,27.11-.55,37.94,4.65,21.77,10.52,38,5.74,56.85-7.25,15.2-10.52,26.56-22.14,33.29-38.89.94-2.4,2.63-4.68.84-7.45-2.5-2.36-4.84-.63-7.07.56-8.5,4.47-17.46,7.68-25.82.92-9.37-7.55-14.31-17.73-12.15-30.14a77,77,0,0,1,31.1-50c8.52-6.28,11.65-13.33,10.73-23.42-1.16-12.68-2.05-25.35-6.57-37.4-3.24-8.59-2.29-16,4.21-23,8.65-9.28,12.12-20,7.33-32.63a13.31,13.31,0,0,1,1.4-13.81,125.32,125.32,0,0,0,26.95-56.14c5.39,14.31-8.5,29.82,3,44.7,7.65-7.88,4.15-17,4.78-25.16.4-5.05-1.68-10.52,4.71-13.72a11.67,11.67,0,0,1,15.25,3.39c3.13,3.6,8.68,4.81,10.23,1.65,5.52-11.12,18.54-16,24.93-31-22,2.24-41.18,3-59.88,9-5.62-21.86,1.53-35.11,22.88-39.95,18.91-4.28,40.52,9.05,44.1,28.43,4.91,26.71,15.09,52.72,33.42,74.15a14,14,0,0,1,3.76,10.7,52.2,52.2,0,0,0,8.65,32.45,20.61,20.61,0,0,1,.87,21,77.61,77.61,0,0,0-4.21,12.39c-3,11,1,18.69,11.23,23.66,7.1,3.37,14.25,6.68,21,10.71a53.43,53.43,0,0,1,13.41,80.85c-5.26,6.13-3.76,10.18,2.63,13.39A115.29,115.29,0,0,1,652.18,374a49.27,49.27,0,0,0,32.37,20.4,299.65,299.65,0,0,1,79.62,26.11c1.45,7-5.42,5.94-6.92,10,3.08,5.76,12,5.1,14.81,14.46-14.62-3.81-27.66-7.89-37.47-17.77a33.2,33.2,0,0,0-17.8-9.73c-11.55-2.37-23-5.45-34.56-7.73-8.46-1.69-16.51-.16-25.19,6.89a95.18,95.18,0,0,1,21.57,39c3.86,13.27,15.25,25.42,7.88,42.38-6.75-4.42-9.62-11.75-18.09-11-4.65.44-4.78-5.26-5.62-9.13-7.16-32.76-23.38-61.05-43.18-87.58-3.81-5.11-3.92-5-11.91-7.6-1.76,21.53-6.57,41.31-32.79,44.22-14.86,1.74-29.13-7-36.1-21.32A41,41,0,0,1,546,360ZM428.31,276.43c-6.65,18.11-17.51,27.69-34.55,31.55-9.47,2.13-8.42,12.23-7.76,20,.5,5.44,1.39,11.91,9.07,12.28,11.47.55,22.27-.21,30.9-9.94a90.29,90.29,0,0,0,20.59-36c1.6-5.81,4.07-12.33-.56-19.57-5.33,4.66-10.62,7.37-17.69,1.69Zm159.32-26c4.18,6.58,1.52,14.28,3.28,19.7,4.42,13.75-1.84,15.51-12.35,18-18,4.26,3.18,21.22-8.37,28.72-1.86,1.21,1.95,5.25,4.47,6.94a8.53,8.53,0,0,0,2.45.92c15,4.55,24.64-.76,28.71-15.78A62.52,62.52,0,0,0,608,281.55C605.82,268.35,601.43,256.36,587.63,250.42ZM360.28,434.25c-14.62,0-21.95,3.94-29.71,10.73-8.78,7.65-1.16,14.33-.37,21.35,1.53,13.43,12,19,24.14,13.72,12.6-5.49,19.56-15.77,24.38-27.79,3.34-8.36,0-13.62-8.05-16.12A69,69,0,0,0,360.28,434.25Zm74.05-253.32c15.64-4.87,20.59-14.6,23.4-25.69,1.45-5.71.92-11.42-7.6-13.15-9.6,9.83-11,23.14-15.8,38.84Zm105.36-.48c-7.1-6.41-7.39-14.46-7.26-22.77,0-6.81-3.68-11.12-10.51-10.12-8.18,1.18-7.1,8.12-5.39,13.33,3.49,10.44,11.2,17,23.14,19.56ZM516.55,86.87a4.76,4.76,0,0,0-1.84,5.55c1.82,5-2.39,11.62,4,15.25a3.55,3.55,0,0,0,4.89-1.13,3.35,3.35,0,0,0,.37-.79c2.63-6.42-1-11.65-3.87-16.88-.44-.9-2-1.11-3.6-2ZM460.12,53.19c7.66,7.41,14.18,4,24.09.29-9.78-2.53-16.2-5.16-24.09-.29ZM519,134.49c3.26-5.47,5.26-9.23.9-13.81-4.21,3.9-5,7.71-.9,13.81Z" transform="translate(-265.15 -29.69)"/><path class="a" d="M571.22,365.86c9.68-.19,17.56,5.65,18,13.3s-7.08,15-14.86,15.38a17.14,17.14,0,0,1-17.46-15.77C556.65,368.93,562.67,365.91,571.22,365.86Zm-1.34,7.25c-2.92,5.26-3.08,9.94,2.86,12.68,2.63,1.15,5-1.16,5.26-4.08.5-5.52-1.52-9.18-8.15-8.6Z" transform="translate(-265.15 -29.69)"/><path class="a" d="M343.38,464.33c-3.21-7.89,1.15-13.86,6.75-18s12.31-2.16,18.09,1.29C364.07,464.28,359.28,467.43,343.38,464.33Zm16.38-12.94c-7.89-.39-11.28,1.45-10.86,8.65C354.26,459.52,356.84,456.78,359.76,451.39Z" transform="translate(-265.15 -29.69)"/><path class="a" d="M546,360c2.92,7.47,0,13.36-.47,19.35-1.11,15.3,2.63,28.71,15.14,38.57,9.34,7.37,19.54,6.29,25.8-3.7a59.3,59.3,0,0,0,5.63-53c-2.63-7.34-9.89-9.34-16.88-10.78-8.37-1.71-16.46.44-25.33,2.63-9.38-13.81-14.35-29.35-17.69-44.92-3.63-17.11-11.6-27.18-29.66-29.1-8.94-.95-15.49.58-19.41,9.15a97.82,97.82,0,0,0-8.94,28.71c-1.76,14.94-7.89,28.69-10.75,43.26-1,4.78-4.63,5.91-8.1,7.67-18.41,9.39-34.74,22-51.49,33.87A74.52,74.52,0,0,0,387,419.89a9.66,9.66,0,0,0-1.58,9.78c9.46,25.09-.45,44.36-25.74,53.88-11.68,4.39-22,1-31.74-2.95-8.23-3.36-13.15-1.44-18.41,4a29.69,29.69,0,0,1-3,2.63c-5.47,4.39-11.36,10.52-18.25,3.92s-2.63-13.62,2.82-19.43c15.33-16.59,34-29.74,48.83-47.7-.79-5.68-5.58-6.23-10.52-5.89C312,419.29,294.65,415.05,277,418c-11.12,1.82-11.91,0-11.88-12.88,9.52-1,18-5.39,26.56-9.6,13.3-6.44,27.11-.55,37.94,4.65,21.77,10.52,38,5.74,56.85-7.25,15.2-10.52,26.56-22.14,33.29-38.89.94-2.4,2.63-4.68.84-7.45-2.5-2.36-4.84-.63-7.07.56-8.5,4.47-17.46,7.68-25.82.92-9.37-7.55-14.31-17.73-12.15-30.14a77,77,0,0,1,31.1-50c8.52-6.28,11.65-13.33,10.73-23.42-1.16-12.68-2.05-25.35-6.57-37.4-3.24-8.59-2.29-16,4.21-23,8.65-9.28,12.12-20,7.33-32.63a13.31,13.31,0,0,1,1.4-13.81,125.32,125.32,0,0,0,26.95-56.14c5.39,14.31-8.5,29.82,3,44.7,7.65-7.88,4.15-17,4.78-25.16.4-5.05-1.68-10.52,4.71-13.72a11.67,11.67,0,0,1,15.25,3.39c3.13,3.6,8.68,4.81,10.23,1.65,5.52-11.12,18.54-16,24.93-31-22,2.24-41.18,3-59.88,9-5.62-21.86,1.53-35.11,22.88-39.95,18.91-4.28,40.52,9.05,44.1,28.43,4.91,26.71,15.09,52.72,33.42,74.15a14,14,0,0,1,3.76,10.7,52.2,52.2,0,0,0,8.65,32.45,20.61,20.61,0,0,1,.87,21,77.61,77.61,0,0,0-4.21,12.39c-3,11,1,18.69,11.23,23.66,7.1,3.37,14.25,6.68,21,10.71a53.43,53.43,0,0,1,13.41,80.85c-5.26,6.13-3.76,10.18,2.63,13.39A115.29,115.29,0,0,1,652.18,374a49.27,49.27,0,0,0,32.37,20.4,299.65,299.65,0,0,1,79.62,26.11c1.45,7-5.42,5.94-6.92,10,3.08,5.76,12,5.1,14.81,14.46-14.62-3.81-27.66-7.89-37.47-17.77a33.2,33.2,0,0,0-17.8-9.73c-11.55-2.37-23-5.45-34.56-7.73-8.46-1.69-16.51-.16-25.19,6.89a95.18,95.18,0,0,1,21.57,39c3.86,13.27,15.25,25.42,7.88,42.38-6.75-4.42-9.62-11.75-18.09-11-4.65.44-4.78-5.26-5.62-9.13-7.16-32.76-23.38-61.05-43.18-87.58-3.81-5.11-3.92-5-11.91-7.6-1.76,21.53-6.57,41.31-32.79,44.22-14.86,1.74-29.13-7-36.1-21.32A41,41,0,0,1,546,360ZM428.31,276.43c-6.65,18.11-17.51,27.69-34.55,31.55-9.47,2.13-8.42,12.23-7.76,20,.5,5.44,1.39,11.91,9.07,12.28,11.47.55,22.27-.21,30.9-9.94a90.29,90.29,0,0,0,20.59-36c1.6-5.81,4.07-12.33-.56-19.57-5.33,4.66-10.62,7.37-17.69,1.69Zm159.32-26c4.18,6.58,1.52,14.28,3.28,19.7,4.42,13.75-1.84,15.51-12.35,18-18,4.26,3.18,21.22-8.37,28.72-1.86,1.21,1.95,5.25,4.47,6.94a8.53,8.53,0,0,0,2.45.92c15,4.55,24.64-.76,28.71-15.78A62.52,62.52,0,0,0,608,281.55C605.82,268.35,601.43,256.36,587.63,250.42ZM360.28,434.25c-14.62,0-21.95,3.94-29.71,10.73-8.78,7.65-1.16,14.33-.37,21.35,1.53,13.43,12,19,24.14,13.72,12.6-5.49,19.56-15.77,24.38-27.79,3.34-8.36,0-13.62-8.05-16.12A69,69,0,0,0,360.28,434.25Zm74.05-253.32c15.64-4.87,20.59-14.6,23.4-25.69,1.45-5.71.92-11.42-7.6-13.15-9.6,9.83-11,23.14-15.8,38.84Zm105.36-.48c-7.1-6.41-7.39-14.46-7.26-22.77,0-6.81-3.68-11.12-10.51-10.12-8.18,1.18-7.1,8.12-5.39,13.33,3.49,10.44,11.2,17,23.14,19.56ZM516.55,86.87a4.76,4.76,0,0,0-1.84,5.55c1.82,5-2.39,11.62,4,15.25a3.55,3.55,0,0,0,4.89-1.13,3.35,3.35,0,0,0,.37-.79c2.63-6.42-1-11.65-3.87-16.88-.44-.9-2-1.11-3.6-2ZM460.12,53.19c7.66,7.41,14.18,4,24.09.29-9.78-2.53-16.2-5.16-24.09-.29ZM519,134.49c3.26-5.47,5.26-9.23.9-13.81-4.21,3.9-5,7.71-.9,13.81Z" transform="translate(-265.15 -29.69)"/><path class="a" d="M571.22,365.86c9.68-.19,17.56,5.65,18,13.3s-7.08,15-14.86,15.38a17.14,17.14,0,0,1-17.46-15.77C556.65,368.93,562.67,365.91,571.22,365.86Zm-1.34,7.25c-2.92,5.26-3.08,9.94,2.86,12.68,2.63,1.15,5-1.16,5.26-4.08.5-5.52-1.52-9.18-8.15-8.6Z" transform="translate(-265.15 -29.69)"/><path class="a" d="M343.38,464.33c-3.21-7.89,1.15-13.86,6.75-18s12.31-2.16,18.09,1.29C364.07,464.28,359.28,467.43,343.38,464.33Zm16.38-12.94c-7.89-.39-11.28,1.45-10.86,8.65C354.26,459.52,356.84,456.78,359.76,451.39Z" transform="translate(-265.15 -29.69)"/><path class="a" d="M590.93,961.87c-3.82-8.6-7.76-17.12-11.42-25.79C573.6,922,569,906.36,546,916.62v-3.81a81.93,81.93,0,0,1,8.38-11.55c19-18.72,38.42-37.12,57.54-55.79,10.3-10.07,9.17-15.36-4.61-20.15a68.51,68.51,0,0,0-17.93-3.52c-18.62-1.1-17.27-.52-21.8,17.38-4.2,16.73-13.51,31.56-28.13,46.28-4.31-16.93-7.31-30.92-11.62-44.49-1.45-4.55-6.21-8.05-9.44-12-3.4,3.5-7,6.81-10,10.52a17,17,0,0,0-2.29,6.1c-3.84,13.88-10.93,28.5,12.78,37-15.48,7.89-27.53,6.1-35.39-1.39-11.67-11.07-20.27-25.32-30.48-38a20.62,20.62,0,0,0-9.07-7.31,79.33,79.33,0,0,0-19.45-2.63c-3.53,0-7.13,1.68-10.71,2.63,1,3.47,1,7.73,3.13,10.33,11.49,14.36,23.67,28.19,35.32,42.39,12.41,15.07,12.28,16.07,1.28,31.56-7.07,10-14,20.06-21,30-.16.21-.82,0-2,.21.79-8.23,1.55-16.38,2.63-28L410,934.92l-2.63-1.74c4.36-7.46,9-14.8,12.94-22.48,1.42-2.81,2.63-7.44,1.21-9.52s-6.21-2.63-9.23-2c-14.2,2.63-28.35,5.47-42.39,8.78-16.2,3.82-17.51,2.63-14.57-14.22q1.77-10.39,3.16-20.77c1.31-9.73-2.63-14.52-12.83-15.25-30-2.19-29.85-2.37-16-30,2.63-5.11,3.26-11.13,4.83-16.73A120.4,120.4,0,0,0,317,812.52c-9.55,2.18-18.88,5.26-28.29,8.1l-1.9-3.26c9.05-10.52,17.15-21.83,27.3-31,26.87-24.24,37.62-55.72,44-89.8a197.43,197.43,0,0,1,8.13-27.66c5.6-16.3,4.36-19.56-11.52-27.63a39.84,39.84,0,0,1-5.52-3.45c-.61-.45-.82-1.45-1.74-3.21,17.12-3.39,15.17-13.14,9.89-26-4.42-10.78-5.76-22.85-8.15-34.39-2.9-14-5.47-28.11-8.31-42.71,12.33,12,24.27,24.93,37.57,36.24,12.18,10.36,25.82,19,38.87,28.37.68.5,1.73.63,2.28,1.24,13.73,14.69,28.59,25.63,50,15.38,25.12,17.35,50.83-7.15,76.39,1.13a93,93,0,0,0,30.82,3.31,26.84,26.84,0,0,0,16.48-6.89c24.06-23.43,47.62-47.33,71-71.47,7.73-7.88,14.59-16.8,21.85-25.21l3.92,1.58c-2.47,18.4-5.26,36.81-7.23,55.21-.82,7.89.63,16.2.63,24.33,0,2.84-1.84,5.7-1.79,8.54a137.82,137.82,0,0,0,1.63,14.6c.53,4.12,1.45,8.23,1.63,12.38,0,1.5-1.39,3.16-2.34,4.63-12.38,19.59-14.65,40-7.89,62.45,3.58,11.94,3.5,25.08,4.24,37.73.68,11.83,4.91,20.7,15.25,27.27C708,771.16,721.3,781,737.83,792.43L704.55,803c-14.12,4.44-14.49,5.86-7.6,19.17,5.44,10.51,10.17,21.45,15.22,32.18l-3.47,3.47c-9.47-2.63-18.85-5.26-28.37-7.52a40.41,40.41,0,0,0-9.89.13c0,3.29-.63,6.92.53,9.78,5.6,14,11.72,27.82,17.67,41.68l-2.87,3.08-39.89-20.59-4.1,3.26L668.07,946c-9.91-2.63-16.43-3.78-22.53-6-12.31-4.55-24.45-9.57-36.58-14.64-7.25-3-10.67-.66-11.51,6.91-1.11,9.78-2.47,19.54-3.71,29.32ZM485.17,757c-3-6.1-6.5-15.94-12.12-24.35-10.76-16-47.12-19.28-59.17-5.5-11,12.55-21.85,25.35-32,38.63a13.61,13.61,0,0,0-1.1,12.31,153.21,153.21,0,0,0,19.72,26.11c13,13.46,27.74,14.72,43.7,5.25,5.26-3.07,10.73-5.94,16.15-8.78C476.26,792.35,482.8,778.34,485.17,757Zm125.06-36.18c-20.46,1.68-41.34,10-55.72,30.71-6,8.68-9,17.75-3.87,28.26,6.18,12.63,37.24,28.93,50.88,26.3a10.89,10.89,0,0,0,3.74-1.13c15.56-10.52,31.92-19.88,39.15-39C653.45,742.13,639.33,720.75,610.23,720.86Z" transform="translate(-265.15 -29.69)"/></svg>