<svg xmlns="http://www.w3.org/2000/svg" viewBox="0 0 540.73 99.74"><defs><style>.a{fill:#fff;}.b{fill:none;stroke:#fff;stroke-miterlimit:10;stroke-width:3px;}</style></defs><title>rules-broken</title><path class="a" d="M30.79,79.55a15.14,15.14,0,0,1-11.93-3.47Q14,71.9,13.25,64.44q-.81-7.95,3.14-13.21t11.44-6A14.59,14.59,0,0,1,39.51,48.7Q44.22,52.9,45,60.46a22.23,22.23,0,0,1-.59,8.38,13.4,13.4,0,0,1-3.62,6.21l6.35,4.08-3.57,4.45-7.31-5.31a19.82,19.82,0,0,1-2.61.79A21.27,21.27,0,0,1,30.79,79.55ZM28.1,50.19A9.25,9.25,0,0,0,21,54.31a13.41,13.41,0,0,0-1.91,9.16A13.46,13.46,0,0,0,22.78,72a9,9,0,0,0,7.58,2.6,9.11,9.11,0,0,0,7-3.94q2.32-3.47,1.75-9.16-.6-5.87-3.5-8.83A8.76,8.76,0,0,0,28.1,50.19Z" transform="translate(-5.1 -2.67)"/><path class="a" d="M77.5,60.19q.73,7.25-2.21,11.18T65.71,76q-6.37.66-9.93-2.51t-4.26-10.2l-2-19.71L55.13,43l2,19.66q.45,4.56,2.57,6.66A6.87,6.87,0,0,0,65.56,71a6.65,6.65,0,0,0,5.24-2.77c1.06-1.61,1.44-3.88,1.14-6.83l-2-19.93,5.62-.58Z" transform="translate(-5.1 -2.67)"/><path class="a" d="M105.81,71.35l-18.69,1.9L83.74,40.09l18-1.83.49,4.76L89.85,44.28l.94,9.25,11.45-1.17.48,4.75L91.27,58.27l1,9.67,13.07-1.33Z" transform="translate(-5.1 -2.67)"/><path class="a" d="M112.15,70.71l-3.38-33.17,10.73-1.09q4.91-.51,7.85,1.29a6.83,6.83,0,0,1,3.33,5.47,7.71,7.71,0,0,1-1.06,4.93,8.26,8.26,0,0,1-3.85,3.3v.09a8.2,8.2,0,0,1,5.5,2,7.71,7.71,0,0,1,2.5,5.18,8.8,8.8,0,0,1-2.44,7.37,12.55,12.55,0,0,1-8,3.49Zm2.7-29.26,1,9.44,3.67-.37a6.62,6.62,0,0,0,4.19-1.77,4.56,4.56,0,0,0,1.22-3.86,3.89,3.89,0,0,0-1.82-3.18,7.55,7.55,0,0,0-4.55-.63Zm1.41,13.93,1,10.27,4.69-.48a7.18,7.18,0,0,0,4.57-1.9,4.83,4.83,0,0,0,1.28-4.05,4.34,4.34,0,0,0-2.11-3.51,8.41,8.41,0,0,0-5.18-.77Z" transform="translate(-5.1 -2.67)"/><path class="a" d="M166.52,65.17l-6.48.66-6-8.3a12,12,0,0,0-2.77-3,4.32,4.32,0,0,0-2.71-.67l-2.94.3L147,67.16l-5.62.57L138,34.57l10.82-1.11q5.19-.52,8.37,1.49t3.65,6.59a9.17,9.17,0,0,1-1.29,6,11,11,0,0,1-4.82,4v.09a6.76,6.76,0,0,1,2.45,1.4,14.56,14.56,0,0,1,2.19,2.43ZM144.06,38.55l1.13,11.08,4.28-.44a6,6,0,0,0,4.19-2.11,5.7,5.7,0,0,0,1.27-4.4A5,5,0,0,0,153,39a6.48,6.48,0,0,0-4.58-.91Z" transform="translate(-5.1 -2.67)"/><path class="a" d="M167.61,65.06l9-34.43L183,30l15.68,31.91-6.2.63-3.58-7.65-13.25,1.35-1.9,8.21Zm9-13.59,10.27-1L181.05,37.8c-.14-.33-.28-.66-.4-1s-.24-.76-.37-1.26h-.14c0,.46-.07.87-.12,1.24a9.36,9.36,0,0,1-.18,1.08Z" transform="translate(-5.1 -2.67)"/><path class="a" d="M228.85,58.82l-6.47.66-6-8.3a11.81,11.81,0,0,0-2.77-3,4.3,4.3,0,0,0-2.71-.67l-2.94.3,1.32,13-5.62.57-3.38-33.16,10.83-1.1c3.45-.36,6.24.14,8.36,1.48s3.34,3.54,3.65,6.59a9.17,9.17,0,0,1-1.29,6,10.83,10.83,0,0,1-4.82,4v.09a6.82,6.82,0,0,1,2.45,1.4,15,15,0,0,1,2.2,2.43ZM206.4,32.2l1.12,11.08,4.28-.44a6,6,0,0,0,4.19-2.1,5.7,5.7,0,0,0,1.27-4.41,4.9,4.9,0,0,0-1.89-3.66,6.43,6.43,0,0,0-4.58-.92Z" transform="translate(-5.1 -2.67)"/><path class="b" d="M231.78,64.22,240,61.77l-3.31,17.5L24.79,100.85A12,12,0,0,1,11.64,90.12l-5-48.84A12,12,0,0,1,17.39,28.12L228.71,6.6q-.59,10.07-1.15,20.1,4.47-1.65,8.94-3.33Q234.15,43.8,231.78,64.22Z" transform="translate(-5.1 -2.67)"/><path class="a" d="M288.85,59l-6.49-.51L278,49.3a11.89,11.89,0,0,0-2.21-3.41,4.29,4.29,0,0,0-2.54-1.14l-2.95-.23-1,13-5.63-.44,2.62-33.23,10.85.85c3.46.28,6.11,1.26,8,3s2.65,4.08,2.41,7.14a9.08,9.08,0,0,1-2.35,5.67,10.86,10.86,0,0,1-5.45,3.09v.09a6.83,6.83,0,0,1,2.15,1.82,14.83,14.83,0,0,1,1.73,2.78ZM271.53,28.83l-.87,11.1,4.28.34a6,6,0,0,0,4.5-1.33,5.65,5.65,0,0,0,2-4.1,4.93,4.93,0,0,0-1.2-4,6.46,6.46,0,0,0-4.34-1.72Z" transform="translate(-5.1 -2.67)"/><path class="a" d="M312.38,60.9l-18.73-1.48,2.62-33.23,18,1.42-.38,4.77-12.35-1-.73,9.26,11.47.91-.38,4.75-11.47-.9-.76,9.68,13.09,1Z" transform="translate(-5.1 -2.67)"/><path class="a" d="M332.42,63a15.1,15.1,0,0,1-11.11-5.55q-4-5-3.44-12.46.63-8,5.46-12.43t12.34-3.86a14.54,14.54,0,0,1,10.86,5.52q3.89,5,3.29,12.55A22.36,22.36,0,0,1,347.73,55a13.42,13.42,0,0,1-4.67,5.46l5.51,5.14-4.3,3.74L338,62.76a20.28,20.28,0,0,1-2.71.31A19.82,19.82,0,0,1,332.42,63Zm2.63-29.36a9.25,9.25,0,0,0-7.7,2.78,13.54,13.54,0,0,0-3.52,8.67,13.51,13.51,0,0,0,2.06,9.07,9.85,9.85,0,0,0,14.62,1.29q2.91-3,3.37-8.68.45-5.89-1.87-9.33A8.73,8.73,0,0,0,335.05,33.68Z" transform="translate(-5.1 -2.67)"/><path class="a" d="M381.84,52.37q-.57,7.26-4.17,10.61t-10.25,2.83q-6.39-.51-9.32-4.26t-2.36-10.8L357.3,31l5.63.44-1.56,19.7q-.36,4.56,1.34,7a6.88,6.88,0,0,0,5.45,2.74,6.68,6.68,0,0,0,5.65-1.8c1.33-1.38,2.12-3.55,2.35-6.5l1.58-20,5.63.44Z" transform="translate(-5.1 -2.67)"/><path class="a" d="M394.65,67.4,389,67l2.63-33.23,5.65.44Z" transform="translate(-5.1 -2.67)"/><path class="a" d="M400.82,65.43l2.85-4.15a17.87,17.87,0,0,0,4.07,2.36,14.69,14.69,0,0,0,4.27.93,7.34,7.34,0,0,0,4.58-.87,4.63,4.63,0,0,0,.82-6.78A13,13,0,0,0,413,54.36a18.74,18.74,0,0,1-7.22-4.31,7.91,7.91,0,0,1-1.9-6.25,8.81,8.81,0,0,1,3.63-6.63q3.31-2.51,8.64-2.08a19.68,19.68,0,0,1,4.57.9A19.15,19.15,0,0,1,425,38l-2.55,4.27A16.16,16.16,0,0,0,419,40.53a13.64,13.64,0,0,0-3.5-.73,6.57,6.57,0,0,0-4.2.82,3.84,3.84,0,0,0-1.75,3.11,3.48,3.48,0,0,0,1.13,3,15.87,15.87,0,0,0,4.57,2.47q5.09,1.92,7.19,4.44a8.81,8.81,0,0,1,1.78,6.58,9.26,9.26,0,0,1-3.69,6.94q-3.33,2.55-9.11,2.1a21,21,0,0,1-5.58-1.2A19.85,19.85,0,0,1,400.82,65.43Z" transform="translate(-5.1 -2.67)"/><path class="a" d="M435.49,70.62l-5.66-.45,2.63-33.23,5.65.45Z" transform="translate(-5.1 -2.67)"/><path class="a" d="M467.79,44.54l-9.55-.76L456,72.24l-5.64-.44,2.25-28.46-9.52-.75.37-4.78,24.71,1.95Z" transform="translate(-5.1 -2.67)"/><path class="a" d="M482.37,74.88a15.07,15.07,0,0,1-11.12-5.55q-4-5-3.41-12.45.63-8,5.46-12.42t12.32-3.88a14.74,14.74,0,0,1,10.93,5.54q3.93,5,3.33,12.54-.63,8-5.43,12.4A15.28,15.28,0,0,1,482.37,74.88Zm.46-4.93a9.22,9.22,0,0,0,7.67-2.6q3-3,3.42-8.69.45-5.89-1.93-9.33a8.86,8.86,0,0,0-7-3.81,9.21,9.21,0,0,0-7.68,2.79,13.47,13.47,0,0,0-3.5,8.66q-.45,5.56,2.05,9.1A9,9,0,0,0,482.83,70Z" transform="translate(-5.1 -2.67)"/><path class="a" d="M502.56,73.47l2.85-4.16a17.35,17.35,0,0,0,4.07,2.36,15,15,0,0,0,4.27.94,7.37,7.37,0,0,0,4.59-.88,4.64,4.64,0,0,0,.81-6.78,12.77,12.77,0,0,0-4.45-2.55,18.49,18.49,0,0,1-7.21-4.32,7.89,7.89,0,0,1-1.91-6.24,8.82,8.82,0,0,1,3.63-6.63q3.32-2.51,8.65-2.08a20.31,20.31,0,0,1,4.57.89,19.74,19.74,0,0,1,4.31,2l-2.55,4.28a16.69,16.69,0,0,0-3.49-1.74,14.54,14.54,0,0,0-3.5-.73,6.59,6.59,0,0,0-4.2.83,3.83,3.83,0,0,0-1.75,3.11,3.47,3.47,0,0,0,1.14,3A16.14,16.14,0,0,0,517,57.26c3.4,1.28,5.79,2.76,7.19,4.44a8.79,8.79,0,0,1,1.78,6.57,9.26,9.26,0,0,1-3.68,6.94q-3.35,2.57-9.11,2.1a21.51,21.51,0,0,1-5.59-1.19A19.85,19.85,0,0,1,502.56,73.47Z" transform="translate(-5.1 -2.67)"/><path class="b" d="M544.3,39.13l-3.87,48.94a12,12,0,0,1-12.91,11L250.13,77.18l6.4-16.61c-2.85.3-5.7.62-8.54.93q6-19.66,12-39.34l-9.4,1.67q2.37-9.78,4.73-19.57l278,22A12,12,0,0,1,544.3,39.13Z" transform="translate(-5.1 -2.67)"/></svg>