<svg xmlns="http://www.w3.org/2000/svg" viewBox="0 0 391.69 634.75"><defs><style>.a{fill:#fff;}</style></defs><title>face_7</title><path class="a" d="M312.36,741c14.8,3.72,29.26,8.71,44.35,11.24,10.66,1.78,11.73,1.22,16.64-7.68,10.06-18.28,25.9-30.55,42.79-41.7a244.06,244.06,0,0,1,28.38-15.34c3.07-1.46,6.78-2.11,8.45-6-1.61-8.51-3.09-16.72-11.2-23-5.16-4-7.32-11.6-12.81-17l3.36-12.1c3.75-1.78,5.28.32,6.9,2.11a143.09,143.09,0,0,1,25.61,39c1.49,3.44,2.41,8,7.5,7.06a8.34,8.34,0,0,0,7.13-8.09c.45-8.69,5.87-12.34,13.23-15.32a54.26,54.26,0,0,0,28.69-27.38,48.42,48.42,0,0,1,13.67-17.92c5.8-4.58,10.51-10.58,15.68-15.91,4.16,3,2.87,6.52,2.3,9.88-1.09,6.31-3.06,12.75-8,16.63-15,11.77-20.44,31.44-36,42.62a3.94,3.94,0,0,0-1.64,5.33l.12.21c2.5,2.07,5.28.32,7.87.08A145.4,145.4,0,0,1,572,673.39c5.9,1.83,10.29.94,13.34-4.39s9.16-8.45,12.68-13.74c3.17-4.78,3.78-8.88-1.55-12.44a18.26,18.26,0,0,1-5.77-5.93c-4-6.84-2.09-11.57,5.93-14.85a5.68,5.68,0,0,1,2,.69c19.85,16.8,20.06,18.61,8.66,43.2-2.66,5.67-9,10-8.07,16.4,1,6.81,9,8,13.52,12.12,14.63,13.58,23.39,29.93,24.7,50.07.76,11.65,1,11.47,12.09,14.87a58.93,58.93,0,0,1,11.39,5.22c5.37,2.95,9.67,3.36,12.69-3.25,2.6-5.69,7.26-5.87,12.29-3.52,3.3,1.66,7.72,2.62,7.11,7.68s-3.1,9.53-7.48,10.25c-8,1.34-16.6,3.76-23.83-2.86a19.22,19.22,0,0,0-10.56-4.08c-12.2-2-14.82-.56-17.5,11.35-3.76,16.55-11.2,31.33-20.43,45.36a31.79,31.79,0,0,0-2.81,5.59c-.27.55,0,1.36.13,2.54,3.62,3.34,8.72,3,13.27,4,7.13,1.43,14.44,2,21.66,3.35a52.1,52.1,0,0,0,26.32-1.26c9-2.86,18.84-4.15,28.56,0a51.5,51.5,0,0,1-8.19,17.52c-8.6-2.16-16.61-2-23.4,4.41-3,2.79-6.42,2-9.83,1-17.32-5.56-35.37-6.94-53.28-9.05-9.1-1.08-17.2.7-23.86,7.59a131.84,131.84,0,0,1-22.32,17.69c-1.49,5.62,1.5,9.38,3.54,13.28,4.72,9.18,10.14,18.2,14.81,27.5,3.69,7.34,3.4,8.89.16,17.12-10.88-1.59-17.15-8.61-19.76-18.58-2.87-10.77-9.24-19.24-16.37-29.36-21.06,8.11-42.18,17-65.75,17.82-3.55,19.64-2.6,39.27-8.66,58.1A34.43,34.43,0,0,1,453.3,958c-1.35-9,.81-17.52,1.88-26.06s2.92-17.07,0-25.93c-17.51-4.4-34.11-10.12-48.46-21.24-6.73-5.18-13.55-10.2-18-17.12-17.89-27.42-32.16-56.09-26.38-90.44,1.09-6.83-2.33-9.87-8-11-7.86-1.61-15.32-4.49-23.26-5.74-8.66-1.39-16.87-4.43-22.45-11.9Zm230.33,5.51c.4-5-1.72-7.87-3.47-10.8a222.24,222.24,0,0,0-28.17-37.21c-9.21-10.25-20.45-12.3-33.17-9.18a162.53,162.53,0,0,0-50.26,22.34c-2.5,1.64-6.05,2.21-6.82,5.91,4.6,12.09,3,19.6-6.4,27.5-5.95,5-12.5,8.69-20.76,8.25-3-.16-6.93-1.14-8.8,1.75-6.5,10-12.43,20.67-10.11,32.92,1.52,7.76,3.17,15.59,4.55,23.49a139.16,139.16,0,0,0,19,51.52c5.17,8.31,7.53,9,16.77,5.36,2.12-2.25-.12-5.71,3.11-8.29,7.51-.41,13.45,4.28,19.51,7.95-.31,16.81-.31,16.81-10.35,19.38a4.82,4.82,0,0,0,.71,1.8,12.06,12.06,0,0,0,2.52,1.8c13.85,8.12,28.77,6.25,43.6,4.41,3.48-.43,5.45-2.85,5.22-5.14a6.26,6.26,0,0,0-3.82-5,5.93,5.93,0,0,1-2.89-5.21c7.15-9.18,13.66-13.84,21.68-14.46,12.68-1,22.77,4.42,31.29,14.88,8.23-6.21,18.69-7.72,24.85-16.35-2.8-3.74-6.58-3.14-9.8-4a27.09,27.09,0,0,1-13.4-7.58c-7.63-8.32-6.78-17.55,2.38-23.85a58.17,58.17,0,0,0,9.25-6.66c6.41-6.74,13.1-11.09,21.74-5.14a5.85,5.85,0,0,0,2.16-5.38c.41-15.88-4.27-30.87-8.1-46.07-2.33-9.32-5.53-10.71-14.26-6a238.53,238.53,0,0,1-32.56,13.74c-17.75,6.5-37.16,10.66-47.43,29.41-.94,1.86-2.64,3.34-3.74,5.12a20.6,20.6,0,0,1-19.24,10.44c-8.28-.66-13.84,3.16-19.68,7.26a131,131,0,0,0-13,10.41c-4.57,3.86-8.72,1.71-12-1.49-3.74-3.65-.87-7,1.95-9.75,2-1.93,4.55-3.3,6.38-5.32,3.14-3.51,8.83-4.74,9.49-10.48-12.07-19.75-13.2-29,4.08-43.94a24,24,0,0,1,18.38-5.7c14,1.1,17.49,13,23.35,24.67C484.55,768.37,515.1,760.22,542.69,746.55Z" transform="translate(-308.62 -329.96)"/><path class="a" d="M484.64,745.82c-6.88-2.05-10.93-9-16.62-13.94a5.89,5.89,0,0,1-1.71-6.64,21.43,21.43,0,0,1,26.57-14.57A22.21,22.21,0,0,1,496.3,712a45.41,45.41,0,0,1,8.14,4.55c10,7.13,11.17,19.61,2.72,28.67C501.63,751.17,495.94,751.49,484.64,745.82Z" transform="translate(-308.62 -329.96)"/><path class="a" d="M473.75,822.58c-.33-12,4.92-16.21,16-13.3,9.74,2.55,15.78,9.29,15.87,17.9A17.84,17.84,0,0,1,492.71,844c-4.86,1.41-24.23-6-25.74-10.28C464.78,827.57,468.26,824,473.75,822.58Z" transform="translate(-308.62 -329.96)"/><path class="a" d="M640.73,487.14c-10.24-2.76-20.22-6.39-30.68-8.33-7.38-1.36-8.13-1-11.65,5.14-7.2,12.58-18.35,20.91-30.21,28.46a169.6,169.6,0,0,1-19.89,10.33c-2.15,1-4.73,1.38-5.94,4.07,1,5.93,1.95,11.65,7.51,16.12,3.54,2.83,4.94,8.14,8.7,11.94l-2.48,8.37c-2.62,1.19-3.66-.29-4.77-1.55A99.41,99.41,0,0,1,534,534.32c-1-2.4-1.58-5.6-5.12-5a5.8,5.8,0,0,0-5.06,5.53c-.4,6-4.22,8.5-9.36,10.49A37.67,37.67,0,0,0,494.2,564a33.72,33.72,0,0,1-9.7,12.29c-4.09,3.11-7.43,7.22-11.09,10.86-2.85-2.14-1.91-4.56-1.48-6.89.83-4.37,2.28-8.81,5.77-11.45,10.56-8,14.57-21.6,25.49-29.19a2.74,2.74,0,0,0,1.2-3.68l-.08-.15c-1.72-1.47-3.67-.28-5.47-.14a101.11,101.11,0,0,1-39.24-4.6c-4.08-1.35-7.14-.78-9.32,2.89s-6.46,5.76-9,9.39c-2.25,3.28-2.73,6.12.93,8.66a12.63,12.63,0,0,1,3.94,4.19c2.7,4.79,1.31,8.06-4.29,10.25a4.12,4.12,0,0,1-1.37-.51c-13.6-11.9-13.72-13.16-5.51-30.11,1.91-3.9,6.35-6.85,5.79-11.29-.59-4.75-6.17-5.64-9.24-8.59-10-9.6-15.9-21.05-16.57-35.06-.39-8.1-.54-8-8.23-10.47a41,41,0,0,1-7.85-3.76c-3.7-2.12-6.68-2.45-8.85,2.11-1.87,3.92-5.11,4-8.58,2.29-2.27-1.18-5.33-1.9-4.85-5.41s2.27-6.58,5.32-7c5.55-.84,11.58-2.42,16.52,2.26a13.29,13.29,0,0,0,7.28,3c8.45,1.51,10.29.56,12.3-7.68,2.8-11.45,8.14-21.63,14.72-31.27a22,22,0,0,0,2-3.85c.2-.37,0-.94,0-1.76-2.48-2.36-6-2.21-9.18-2.91-4.93-1.07-10-1.53-15-2.58a36.16,36.16,0,0,0-18.3.57c-6.32,1.88-13.14,2.66-19.84-.32a35.58,35.58,0,0,1,5.9-12.08c5.94,1.61,11.51,1.56,16.3-2.78,2.09-1.9,4.49-1.35,6.84-.57,12,4.07,24.49,5.24,36.91,6.92,6.3.86,11.95-.29,16.65-5a91.66,91.66,0,0,1,15.71-12c1.11-3.89-.93-6.54-2.29-9.26-3.18-6.44-6.83-12.77-10-19.28-2.48-5.14-2.26-6.22.09-11.89,7.53,1.23,11.81,6.18,13.51,13.13,1.87,7.52,6.19,13.48,11,20.59,14.73-5.38,29.5-11.34,45.88-11.6,2.7-13.6,2.27-27.25,6.7-40.26a23.85,23.85,0,0,1,9.71,4.85c.83,6.29-.77,12.16-1.61,18.08s-2.22,11.82-.33,18c12.11,3.27,23.57,7.43,33.41,15.32,4.62,3.68,9.29,7.25,12.33,12.11,12.1,19.25,21.67,39.34,17.26,63.13-.84,4.73,1.5,6.88,5.44,7.75,5.44,1.21,10.59,3.3,16.09,4.26,6,1.07,11.66,3.28,15.45,8.53ZM480.8,480.61c-.33,3.49,1.11,5.48,2.29,7.54a154.88,154.88,0,0,0,19.12,26.18c6.28,7.22,14.07,8.78,22.94,6.77a113,113,0,0,0,35.17-14.93c1.76-1.11,4.23-1.47,4.8-4-3-8.45-1.82-13.64,4.77-19,4.2-3.41,8.79-5.88,14.52-5.48,2.06.14,4.81.87,6.14-1.11,4.63-6.85,8.87-14.21,7.4-22.75-1-5.41-2-10.87-2.88-16.37a96.53,96.53,0,0,0-12.56-36c-3.49-5.83-5.13-6.36-11.59-3.92-1.49,1.54,0,4-2.25,5.72-5.22.2-9.29-3.13-13.46-5.75.41-11.67.41-11.67,7.42-13.34a3.51,3.51,0,0,0-.47-1.26,8.4,8.4,0,0,0-1.74-1.28c-9.52-5.8-19.9-4.68-30.23-3.57-2.42.25-3.81,1.91-3.68,3.5A4.34,4.34,0,0,0,529.1,385a4.12,4.12,0,0,1,1.95,3.65c-5.07,6.29-9.66,9.46-15.23,9.79-8.82.54-15.77-3.34-21.56-10.7-5.79,4.21-13.08,5.14-17.45,11.06,1.9,2.63,4.53,2.26,6.76,2.9a18.82,18.82,0,0,1,9.21,5.43c5.21,5.86,4.51,12.26-1.93,16.53a40,40,0,0,0-6.5,4.52c-4.54,4.61-9.23,7.55-15.16,3.32a4.06,4.06,0,0,0-1.57,3.71c-.46,11,2.61,21.49,5.09,32.1,1.51,6.49,3.71,7.5,9.83,4.31a167.27,167.27,0,0,1,22.78-9.17c12.41-4.3,25.94-7,33.29-19.86.68-1.29,1.87-2.3,2.66-3.52a14.32,14.32,0,0,1,13.49-7c5.74.55,9.65-2,13.75-4.81a91.84,91.84,0,0,0,9.13-7.08c3.23-2.63,6.08-1.09,8.34,1.17,2.55,2.58.51,4.88-1.48,6.75-1.39,1.32-3.19,2.24-4.49,3.62-2.22,2.4-6.18,3.19-6.71,7.17,8.15,13.86,8.82,20.26-3.35,30.48a16.7,16.7,0,0,1-12.83,3.73c-9.71-.92-12-9.23-15.93-17.41C521.44,466.14,500.12,471.44,480.8,480.61Z" transform="translate(-308.62 -329.96)"/><path class="a" d="M521.11,481.8c4.76,1.5,7.49,6.38,11.39,9.88a4.07,4.07,0,0,1,1.1,4.63,14.87,14.87,0,0,1-18.62,9.8,15.52,15.52,0,0,1-2.36-.95,32,32,0,0,1-5.6-3.26c-6.85-5.08-7.53-13.75-1.55-19.95C509.38,477.88,513.33,477.73,521.11,481.8Z" transform="translate(-308.62 -329.96)"/><path class="a" d="M529.58,428.61c.09,8.36-3.6,11.2-11.28,9.05-6.73-1.89-10.85-6.64-10.81-12.62a12.39,12.39,0,0,1,9.17-11.56c3.39-.92,16.76,4.44,17.76,7.44C535.87,425.25,533.41,427.72,529.58,428.61Z" transform="translate(-308.62 -329.96)"/></svg>