<svg xmlns="http://www.w3.org/2000/svg" viewBox="0 0 429.33 716.71"><defs><style>.a{fill:#fff;}</style></defs><title>face_8</title><path class="a" d="M467.5,581.32c-1.5-13.09-1.86-26.29-4.4-39.24-1.8-9.16-2.58-9.85-11.26-11.12-17.84-2.57-32.55-11.64-46.7-21.89a212.19,212.19,0,0,1-21-18.26c-2.1-2-3.76-4.84-7.42-5-6.38,3.88-12.57,7.57-15.18,16-1.66,5.38-7.15,9.44-9.82,15.51l-10.8,1c-2.58-2.48-1.35-4.36-.4-6.22a123.65,123.65,0,0,1,23.7-32.52c2.32-2.25,5.75-4.39,3.42-8.2a7.2,7.2,0,0,0-8.7-3.31c-7.16,2.28-11.76-1-16.4-6a46.9,46.9,0,0,0-30.84-14.86,41.67,41.67,0,0,1-18.63-5.59c-5.46-3.29-11.73-5.27-17.62-7.83,1.18-4.28,4.4-4.3,7.28-4.86,5.44-1,11.23-1.41,15.88,1.42,14.06,8.55,31.61,7,45.36,16.11a3.4,3.4,0,0,0,4.8-.3l.14-.16c.91-2.65-1.35-4.36-2.33-6.38a125.43,125.43,0,0,1-12.62-47.44c-.31-5.32-2.37-8.6-7.6-9.44s-9.61-4.84-14.95-6.07c-4.82-1.11-8.33-.35-9.58,5a15.88,15.88,0,0,1-3,6.47c-4.31,5.3-8.71,5.2-13.8-.28a4.79,4.79,0,0,1,0-1.81c7.53-21.15,8.93-21.87,32.26-20.13,5.39.43,10.82,4.2,15.7,1.53,5.21-2.85,3.69-9.71,5.69-14.6,6.52-16,17.06-28,32.93-35.17,9.19-4.15,9-4.27,8.34-14.29a50.6,50.6,0,0,1,.76-10.78c.75-5.24-.23-8.84-6.48-9.27-5.39-.37-7-4.08-6.58-8.86.34-3.17-.23-7,4-8.08s8.64-.39,10.55,2.93c3.51,6,8.08,12.27,4.94,20.12a16.6,16.6,0,0,0-.09,9.77c2.11,10.45,4.05,12.14,14.49,10.69,14.51-2,28.71-.48,42.85,2.72a28.55,28.55,0,0,0,5.37.57c.52.05,1.08-.45,2-.88,1.6-3.94-.2-8-.84-11.92-1-6.19-2.79-12.27-3.87-18.52A44.94,44.94,0,0,0,438,261c-5.05-6.44-9.07-14-8.69-23.06a44.26,44.26,0,0,1,16.64,1.29c.86,7.6,3.46,14,10.67,17.56,3.15,1.55,3.61,4.57,3.78,7.64.76,15.69,5.14,30.69,8.88,45.8,1.89,7.68,5.79,13.68,13.38,17a113.43,113.43,0,0,1,21.07,12.65c5-.5,7.13-4.06,9.65-6.89,6-6.61,11.63-13.73,17.72-20.32,4.8-5.22,6.15-5.45,13.78-5.34,2,9.27-1.74,16.47-9,21.61-7.83,5.6-12.74,13.32-18.74,22.15,12.94,14.55,26.58,28.89,34.37,47.69,16.94-3.09,32.52-9.83,49.57-10.65a29.82,29.82,0,0,1-1.17,13.43c-6.89,3.84-14.4,4.67-21.62,6.41s-14.67,2.83-21,7.85c1.77,15.48,2.19,30.63-2.43,45.6-2.14,7-4.13,14-8.35,19.77-16.71,22.78-35.54,43-65,48.79-5.85,1.19-7.27,4.88-6.47,9.84,1.08,6.83,1,13.74,2.42,20.53,1.52,7.42,1.55,15-2.78,21.75ZM401.94,393.58c-4.18,1.2-5.83,3.78-7.66,6.08a191.66,191.66,0,0,0-21.51,34.06c-5.47,10.56-3.71,20.27,2.67,29.6a140,140,0,0,0,33.32,33.8c2.08,1.53,3.63,4.22,6.85,3.71,8.37-7.39,14.93-8.34,24.16-3.18,5.86,3.28,10.81,7.46,13,14.26.78,2.45,1.19,5.95,4.09,6.58,10,2.22,20.47,3.76,29.66-1.84,5.81-3.58,11.64-7.3,17.6-10.81a120.18,120.18,0,0,0,35.86-31c5.14-6.7,5-8.83-.77-15.18-2.46-1-4.57,1.84-7.64,0-2.61-5.94-.63-12.16.49-18.18,13.68-4.85,13.68-4.85,18.8,2.48.42-.36,1-.66,1.24-1.12a10.54,10.54,0,0,0,.69-2.59c2.35-13.65-3.69-25.14-9.69-36.56-1.4-2.68-4-3.53-5.73-2.65a5.38,5.38,0,0,0-2.88,4.6,5.11,5.11,0,0,1-3.33,3.92c-9.58-3-15.33-6.83-18.27-13.12-4.65-9.94-3.34-19.74,2.52-29.8-7.52-4.76-11.93-12.76-20.77-15.1-2.16,3.39-.53,6.26-.25,9.13a23.48,23.48,0,0,1-2.06,13.13c-4.4,8.69-12.11,10.81-20,5.32a49.69,49.69,0,0,0-8.18-5.44c-7.4-3.14-12.95-7.22-10.77-16a5,5,0,0,0-5-.11c-12.95,4.49-23.64,12.83-34.76,20.55-6.81,4.71-7,7.71-.48,13.32a207.06,207.06,0,0,1,21,22.13C444.75,426,454,440.39,472.28,443c1.79.19,3.51,1.11,5.28,1.46a17.81,17.81,0,0,1,14.28,12.37c2,6.89,6.76,10.22,11.84,13.69A112,112,0,0,0,516,477.83c4.51,2.52,4,6.52,2.46,10.16-1.82,4.13-5.41,2.83-8.48,1.39-2.15-1-4-2.68-6.23-3.54-3.79-1.47-6.51-5.69-11.35-4.48-12.29,15.76-19.38,19.46-36.74,10.06a20.74,20.74,0,0,1-10.18-13.12c-3.37-11.63,5.18-18.08,12.83-26.35C437.24,433.91,421.37,411.71,401.94,393.58Z" transform="translate(-233.4 -237.66)"/><path class="a" d="M419,440.69c.43,6.18-4,11.57-6.22,17.66a5.06,5.06,0,0,1-4.84,3.4,18.49,18.49,0,0,1-19.81-20.19,39.06,39.06,0,0,1,1.2-8c2.73-10.23,12.45-15,22.34-10.91C418.16,425.34,420.14,429.84,419,440.69Z" transform="translate(-233.4 -237.66)"/><path class="a" d="M484.31,426.16c-9.61,3.93-14.59,1-15.61-8.89-.9-8.64,2.71-15.57,9.64-18.26a15.38,15.38,0,0,1,17.54,5.31c2.62,3.5,2.54,21.39-.48,23.92C491.07,431.89,487.09,430.18,484.31,426.16Z" transform="translate(-233.4 -237.66)"/><path class="a" d="M431.21,682.74c-3.16-6-1.26-11.22-1.43-16.29-.52-13-4.92-23.86-16.36-31-8.53-5.3-17-3.43-21.31,5.55a50.13,50.13,0,0,0,.29,45c2.9,5.91,9.18,6.9,15.19,7.45,7.18.65,13.78-1.93,21-4.6,9.18,10.71,14.82,23.28,19.1,36,4.66,14,12.3,21.73,27.65,21.63,7.59-.05,12.95-2,15.43-9.52a82.67,82.67,0,0,0,4.79-25c.07-12.7,3.91-24.83,4.94-37.33.39-4.11,3.33-5.4,6.07-7.21,14.57-9.62,27.09-21.71,40-33.29a62.76,62.76,0,0,0,12.47-16.86,8.15,8.15,0,0,0,.4-8.36c-10.31-20.16-3.81-37.28,16.53-47.66,9.38-4.79,18.33-2.94,26.92-.53,7.23,2.05,11.17,0,15.07-5.09a26.61,26.61,0,0,1,2.25-2.49c4.18-4.2,8.54-9.9,15-5s3.49,11.18-.53,16.58c-11.3,15.37-25.73,28.18-36.48,44.65,1.2,4.7,5.27,4.71,9.38,4,14.53-2.61,29.45-.69,44-4.81,9.17-2.57,10-1.13,11.19,9.69-7.89,1.74-14.56,6.23-21.38,10.57-10.57,6.67-22.71,3-32.3-.32-19.27-6.77-32.46-1.22-47,11.46-11.76,10.27-20.2,21.1-24.27,35.8-.57,2.1-1.77,4.18,0,6.32,2.32,1.75,4.12.08,5.88-1.13,6.71-4.55,13.93-8.09,21.59-3.21,8.57,5.45,13.69,13.53,13,24.15a65,65,0,0,1-21.4,44.88c-6.55,6.08-8.52,12.29-6.79,20.68,2.17,10.53,4.12,21.09,9,30.77,3.53,6.92,3.43,13.21-1.36,19.67-6.39,8.61-8.29,17.92-3.08,28.09a11.23,11.23,0,0,1,.14,11.72,105.86,105.86,0,0,0-17.32,49.68c-5.88-11.5,4.31-25.84-6.72-37.25-5.68,7.35-1.88,14.7-1.64,21.58.14,4.27,2.4,8.67-2.66,12a9.86,9.86,0,0,1-13.12-1.41c-3-2.73-7.74-3.22-8.74-.42-3.59,9.86-14.06,15.17-18,28.38,18.22-4,34.29-6.39,49.41-13.21,6.79,17.81,2,29.62-15.43,35.69-15.46,5.39-34.87-3.76-39.7-19.69-6.66-22-17.66-42.84-35.07-59.1a11.77,11.77,0,0,1-4.16-8.62A44.11,44.11,0,0,0,431.34,839a17.41,17.41,0,0,1-2.72-17.58A65.09,65.09,0,0,0,431,810.61c1.44-9.48-2.63-15.6-11.66-18.81-6.28-2.15-12.6-4.26-18.67-7a45.19,45.19,0,0,1-22.75-59.72,45.67,45.67,0,0,1,3.85-6.9c3.84-5.64,2.2-8.9-3.47-11A97.44,97.44,0,0,1,340.75,681,41.64,41.64,0,0,0,311.65,667a252.77,252.77,0,0,1-69.31-14.39c-1.88-5.76,4-5.5,4.86-9.07-3.13-4.54-10.55-3.15-13.8-10.74,12.64,1.82,24,4,33.14,11.38a28,28,0,0,0,15.86,6.49c9.92.9,19.81,2.4,29.74,3.22,7.27.62,13.88-1.42,20.5-8.16A80.42,80.42,0,0,1,310.85,615c-4.5-10.78-15.2-19.9-10.62-34.84,6.09,3.07,9.19,9,16.22,7.5,3.86-.82,4.51,4,5.58,7.13,9.11,26.83,25.4,49.05,44.53,69.45,3.68,3.92,3.76,3.85,10.72,5.25-.56-18.24,1.61-35.3,23.34-40.22,12.31-2.87,25.13,3.14,32.33,14.49A34.67,34.67,0,0,1,431.21,682.74Zm106.71,59c3.87-15.83,12.08-24.9,26-29.75,7.75-2.68,5.91-11.06,4.63-17.49-.94-4.52-2.3-9.87-8.78-9.45-9.68.62-18.68,2.28-25,11.26a76.25,76.25,0,0,0-13.88,32.15c-.8,5-2.26,10.73,2.31,16.37,4-4.41,8.22-7.19,14.7-3.09Zm-131.3,36.89c-4.13-5.12-2.63-11.84-4.62-16.22-5-11.13.08-13.2,8.68-16.27,14.69-5.28-4.68-17.52,4.3-24.9,1.46-1.19-2.13-4.23-4.41-5.4a6.61,6.61,0,0,0-2.14-.54c-13-2.4-20.61,3-22.61,15.95a53,53,0,0,0,.73,23.17C389.65,765.34,394.47,775,406.62,778.68ZM580.11,602.87c12.28-1.38,18.06-5.38,23.93-11.81,6.65-7.26-.38-12.14-1.71-18-2.55-11.14-11.86-14.85-21.56-9.24-10,5.8-14.93,15.09-17.83,25.63-2,7.34,1.28,11.44,8.27,12.77A57.63,57.63,0,0,0,580.11,602.87ZM541.88,822.54c-12.67,5.56-15.9,14.2-17.21,23.78-.68,4.92.3,9.66,7.62,10.32,7.13-9.17,7.08-20.47,9.59-34.1Zm-88.4,10.35c6.56,4.72,7.56,11.44,8.24,18.43.64,5.72,4.14,9,9.79,7.51,6.75-1.77,5.19-7.49,3.26-11.7-3.92-8.44-11-13.23-21.27-14.24Zm28.26,76.38a4,4,0,0,0,1-4.83c-2-4,.92-10-4.84-12.42a3,3,0,0,0-4,1.41,3.19,3.19,0,0,0-.23.7c-1.6,5.63,1.92,9.68,4.84,13.8.46.71,1.83.74,3.21,1.34Zm50.56,23c-7.13-5.51-12.28-2-20.25,2,8.45,1.19,14.09,2.8,20.25-2Zm-57.09-62.7c-2.22,4.9-3.54,8.25.56,11.67,3.16-3.66,3.51-6.94-.56-11.67Z" transform="translate(-233.4 -237.66)"/><path class="a" d="M409.49,680.22c-8.11,1.07-15.28-3.09-16.34-9.47s4.53-13.25,11-14.32A14.48,14.48,0,0,1,420.32,668C421.43,676.26,416.66,679.37,409.49,680.22Zm.44-6.22c1.95-4.69,1.64-8.63-3.6-10.37-2.32-.72-4.11,1.45-4,3.92.1,4.68,2.14,7.56,7.65,6.45Z" transform="translate(-233.4 -237.66)"/><path class="a" d="M591.46,576c3.44,6.32.34,11.74-4,15.76s-10.13,3-15.31.63C574.1,578,577.82,574.92,591.46,576Zm-12.53,12.41c6.66-.41,9.34-2.28,8.3-8.29C582.78,581.09,580.87,583.63,578.93,588.43Z" transform="translate(-233.4 -237.66)"/></svg>