<svg xmlns="http://www.w3.org/2000/svg" viewBox="0 0 914.67 935.23"><defs><style>.a{fill:#fff;}</style></defs><title>face_5</title><path class="a" d="M339,392.35c3.13,8,0,14.29-.5,20.7-1.18,16.37,2.81,30.71,16.2,41.26,10,7.87,20.89,6.72,27.59-4a63.42,63.42,0,0,0,6-56.7c-2.81-7.84-10.57-10-18.05-11.53-8.94-1.83-17.61.48-27.08,2.81-10-14.76-15.36-31.38-18.93-48-3.88-18.31-12.4-29.08-31.72-31.13-9.57-1-16.57.61-20.76,9.78a104.55,104.55,0,0,0-9.56,30.71c-1.89,16-8.44,30.69-11.5,46.27-1.07,5.12-4.95,6.33-8.67,8.21-19.68,10-37.15,23.48-55.06,36.22a79.66,79.66,0,0,0-18.09,19.44,10.32,10.32,0,0,0-1.68,10.46c10.12,26.83-.48,47.44-27.54,57.62-12.48,4.7-23.48,1.1-33.94-3.15-8.81-3.6-14.06-1.54-19.69,4.28a34,34,0,0,1-3.18,2.81c-5.85,4.7-12.15,11.25-19.51,4.19s-2.82-14.57,3-20.78c16.4-17.75,36.37-31.81,52.23-51-.84-6.07-6-6.66-11.25-6.3-18.65,1.24-37.15-3.29-56-.17-11.9,1.94-12.74,0-12.72-13.78,10.19-1.07,19.21-5.76,28.41-10.26,14.23-6.89,29-.59,40.58,5,23.29,11.25,40.67,6.13,60.81-7.77,16.25-11.25,28.4-23.68,35.6-41.59,1-2.56,2.81-5,.9-8-2.67-2.53-5.17-.68-7.57.59-9.08,4.78-18.67,8.21-27.61,1-10-8.07-15.3-18.95-13-32.23A82.39,82.39,0,0,1,190,293.86c9.12-6.72,12.46-14.26,11.48-25.06-1.24-13.55-2.19-27.11-7-40-3.46-9.2-2.45-17.1,4.5-24.55,9.25-9.93,13-21.38,7.84-34.9a14.26,14.26,0,0,1,1.49-14.77,134,134,0,0,0,28.83-60c5.77,15.3-9.08,31.89,3.18,47.81,8.18-8.44,4.44-18.23,5.12-26.92.42-5.4-1.8-11.25,5-14.68a12.49,12.49,0,0,1,16.31,3.63c3.35,3.85,9.28,5.15,10.94,1.77,5.91-11.89,19.83-17.1,26.67-33.16-23.49,2.39-44.05,3.18-64,9.62-6-23.37,1.63-37.54,24.47-42.72C285,35.32,308.15,49.58,312,70.3c5.26,28.58,16.14,56.39,35.74,79.31a15,15,0,0,1,4,11.45,55.78,55.78,0,0,0,9.25,34.7,22.07,22.07,0,0,1,.93,22.5,82.71,82.71,0,0,0-4.5,13.25c-3.15,11.73,1.09,20,12,25.31,7.59,3.6,15.24,7.14,22.49,11.45a57.22,57.22,0,0,1,14.35,86.48c-5.63,6.55-4,10.88,2.81,14.31a123.54,123.54,0,0,1,43.51,38.25,52.68,52.68,0,0,0,34.62,21.82,320.83,320.83,0,0,1,85.16,27.93c1.54,7.51-5.8,6.36-7.4,10.72,3.29,6.16,12.82,5.45,15.83,15.46-15.63-4.07-29.58-8.43-40.07-19a35.5,35.5,0,0,0-19-10.4c-12.35-2.53-24.58-5.82-37-8.27-9.05-1.8-17.66-.17-26.94,7.37a101.81,101.81,0,0,1,23.06,41.68c4.14,14.2,16.31,27.19,8.44,45.33-7.23-4.72-10.29-12.57-19.35-11.73-5,.48-5.12-5.62-6-9.75-7.65-35.05-25-65.31-46.18-93.68-4.08-5.46-4.19-5.38-12.74-8.13-1.88,23-7,44.18-35.07,47.3-15.89,1.86-31.16-7.51-38.61-22.81A43.89,43.89,0,0,1,339,392.35ZM213.15,302.94c-7.11,19.38-18.73,29.62-37,33.75-10.13,2.28-9,13.08-8.3,21.35.54,5.82,1.49,12.74,9.7,13.13,12.27.59,23.82-.22,33.05-10.63a96.6,96.6,0,0,0,22-38.47c1.72-6.22,4.36-13.19-.59-20.93-5.71,5-11.36,7.88-18.93,1.8Zm170.4-27.81c4.47,7,1.63,15.27,3.52,21.06,4.72,14.71-2,16.6-13.22,19.24-19.24,4.56,3.4,22.7-8.94,30.71-2,1.3,2.08,5.63,4.78,7.43a9.05,9.05,0,0,0,2.61,1c16.06,4.87,26.36-.81,30.71-16.87a66.91,66.91,0,0,0,2.37-29.25C403,294.31,398.32,281.49,383.55,275.13ZM140.4,471.74c-15.64,0-23.49,4.22-31.78,11.48-9.4,8.18-1.24,15.32-.4,22.83,1.63,14.37,12.83,20.36,25.82,14.68,13.47-5.87,20.92-16.87,26.07-29.72,3.57-8.95,0-14.57-8.61-17.24A73.45,73.45,0,0,0,140.4,471.74ZM219.59,200.8c16.74-5.2,22-15.61,25-27.48,1.55-6.1,1-12.2-8.13-14.06-10.26,10.52-11.81,24.75-16.9,41.54Zm112.69-.51c-7.59-6.86-7.9-15.47-7.76-24.35,0-7.29-3.94-11.9-11.25-10.83-8.74,1.27-7.59,8.69-5.76,14.26,3.74,11.16,12,18.19,24.75,20.92ZM307.53,100.2a5.09,5.09,0,0,0-2,5.93c1.94,5.32-2.56,12.43,4.33,16.32a3.79,3.79,0,0,0,5.23-1.21,3.84,3.84,0,0,0,.39-.85c2.81-6.86-1-12.46-4.13-18-.48-1-2.2-1.18-3.86-2.14Zm-60.35-36c8.19,7.93,15.16,4.28,25.76.31-10.46-2.7-17.32-5.51-25.76-.31Zm62.94,87c3.49-5.85,5.63-9.87,1-14.76-4.5,4.16-5.4,8.24-1,14.76Z" transform="translate(-38.64 -39.04)"/><path class="a" d="M366,398.59c10.35-.19,18.79,6.05,19.21,14.23s-7.56,16-15.89,16.46a18.35,18.35,0,0,1-18.67-16.88C350.42,401.88,356.86,398.65,366,398.59Zm-1.43,7.76c-3.12,5.63-3.29,10.64,3.07,13.56,2.81,1.24,5.37-1.24,5.62-4.36.53-5.91-1.63-9.81-8.72-9.2Z" transform="translate(-38.64 -39.04)"/><path class="a" d="M122.31,503.92c-3.43-8.44,1.24-14.83,7.23-19.27s13.16-2.31,19.35,1.38C144.45,503.86,139.33,507.23,122.31,503.92Zm17.52-13.84c-8.43-.42-12.06,1.55-11.61,9.25C134,498.77,136.71,495.84,139.83,490.08Z" transform="translate(-38.64 -39.04)"/><path class="a" d="M339,392.35c3.13,8,0,14.29-.5,20.7-1.18,16.37,2.81,30.71,16.2,41.26,10,7.87,20.89,6.72,27.59-4a63.42,63.42,0,0,0,6-56.7c-2.81-7.84-10.57-10-18.05-11.53-8.94-1.83-17.61.48-27.08,2.81-10-14.76-15.36-31.38-18.93-48-3.88-18.31-12.4-29.08-31.72-31.13-9.57-1-16.57.61-20.76,9.78a104.55,104.55,0,0,0-9.56,30.71c-1.89,16-8.44,30.69-11.5,46.27-1.07,5.12-4.95,6.33-8.67,8.21-19.68,10-37.15,23.48-55.06,36.22a79.66,79.66,0,0,0-18.09,19.44,10.32,10.32,0,0,0-1.68,10.46c10.12,26.83-.48,47.44-27.54,57.62-12.48,4.7-23.48,1.1-33.94-3.15-8.81-3.6-14.06-1.54-19.69,4.28a34,34,0,0,1-3.18,2.81c-5.85,4.7-12.15,11.25-19.51,4.19s-2.82-14.57,3-20.78c16.4-17.75,36.37-31.81,52.23-51-.84-6.07-6-6.66-11.25-6.3-18.65,1.24-37.15-3.29-56-.17-11.9,1.94-12.74,0-12.72-13.78,10.19-1.07,19.21-5.76,28.41-10.26,14.23-6.89,29-.59,40.58,5,23.29,11.25,40.67,6.13,60.81-7.77,16.25-11.25,28.4-23.68,35.6-41.59,1-2.56,2.81-5,.9-8-2.67-2.53-5.17-.68-7.57.59-9.08,4.78-18.67,8.21-27.61,1-10-8.07-15.3-18.95-13-32.23A82.39,82.39,0,0,1,190,293.86c9.12-6.72,12.46-14.26,11.48-25.06-1.24-13.55-2.19-27.11-7-40-3.46-9.2-2.45-17.1,4.5-24.55,9.25-9.93,13-21.38,7.84-34.9a14.26,14.26,0,0,1,1.49-14.77,134,134,0,0,0,28.83-60c5.77,15.3-9.08,31.89,3.18,47.81,8.18-8.44,4.44-18.23,5.12-26.92.42-5.4-1.8-11.25,5-14.68a12.49,12.49,0,0,1,16.31,3.63c3.35,3.85,9.28,5.15,10.94,1.77,5.91-11.89,19.83-17.1,26.67-33.16-23.49,2.39-44.05,3.18-64,9.62-6-23.37,1.63-37.54,24.47-42.72C285,35.32,308.15,49.58,312,70.3c5.26,28.58,16.14,56.39,35.74,79.31a15,15,0,0,1,4,11.45,55.78,55.78,0,0,0,9.25,34.7,22.07,22.07,0,0,1,.93,22.5,82.71,82.71,0,0,0-4.5,13.25c-3.15,11.73,1.09,20,12,25.31,7.59,3.6,15.24,7.14,22.49,11.45a57.22,57.22,0,0,1,14.35,86.48c-5.63,6.55-4,10.88,2.81,14.31a123.54,123.54,0,0,1,43.51,38.25,52.68,52.68,0,0,0,34.62,21.82,320.83,320.83,0,0,1,85.16,27.93c1.54,7.51-5.8,6.36-7.4,10.72,3.29,6.16,12.82,5.45,15.83,15.46-15.63-4.07-29.58-8.43-40.07-19a35.5,35.5,0,0,0-19-10.4c-12.35-2.53-24.58-5.82-37-8.27-9.05-1.8-17.66-.17-26.94,7.37a101.81,101.81,0,0,1,23.06,41.68c4.14,14.2,16.31,27.19,8.44,45.33-7.23-4.72-10.29-12.57-19.35-11.73-5,.48-5.12-5.62-6-9.75-7.65-35.05-25-65.31-46.18-93.68-4.08-5.46-4.19-5.38-12.74-8.13-1.88,23-7,44.18-35.07,47.3-15.89,1.86-31.16-7.51-38.61-22.81A43.89,43.89,0,0,1,339,392.35ZM213.15,302.94c-7.11,19.38-18.73,29.62-37,33.75-10.13,2.28-9,13.08-8.3,21.35.54,5.82,1.49,12.74,9.7,13.13,12.27.59,23.82-.22,33.05-10.63a96.6,96.6,0,0,0,22-38.47c1.72-6.22,4.36-13.19-.59-20.93-5.71,5-11.36,7.88-18.93,1.8Zm170.4-27.81c4.47,7,1.63,15.27,3.52,21.06,4.72,14.71-2,16.6-13.22,19.24-19.24,4.56,3.4,22.7-8.94,30.71-2,1.3,2.08,5.63,4.78,7.43a9.05,9.05,0,0,0,2.61,1c16.06,4.87,26.36-.81,30.71-16.87a66.91,66.91,0,0,0,2.37-29.25C403,294.31,398.32,281.49,383.55,275.13ZM140.4,471.74c-15.64,0-23.49,4.22-31.78,11.48-9.4,8.18-1.24,15.32-.4,22.83,1.63,14.37,12.83,20.36,25.82,14.68,13.47-5.87,20.92-16.87,26.07-29.72,3.57-8.95,0-14.57-8.61-17.24A73.45,73.45,0,0,0,140.4,471.74ZM219.59,200.8c16.74-5.2,22-15.61,25-27.48,1.55-6.1,1-12.2-8.13-14.06-10.26,10.52-11.81,24.75-16.9,41.54Zm112.69-.51c-7.59-6.86-7.9-15.47-7.76-24.35,0-7.29-3.94-11.9-11.25-10.83-8.74,1.27-7.59,8.69-5.76,14.26,3.74,11.16,12,18.19,24.75,20.92ZM307.53,100.2a5.09,5.09,0,0,0-2,5.93c1.94,5.32-2.56,12.43,4.33,16.32a3.79,3.79,0,0,0,5.23-1.21,3.84,3.84,0,0,0,.39-.85c2.81-6.86-1-12.46-4.13-18-.48-1-2.2-1.18-3.86-2.14Zm-60.35-36c8.19,7.93,15.16,4.28,25.76.31-10.46-2.7-17.32-5.51-25.76-.31Zm62.94,87c3.49-5.85,5.63-9.87,1-14.76-4.5,4.16-5.4,8.24-1,14.76Z" transform="translate(-38.64 -39.04)"/><path class="a" d="M366,398.59c10.35-.19,18.79,6.05,19.21,14.23s-7.56,16-15.89,16.46a18.35,18.35,0,0,1-18.67-16.88C350.42,401.88,356.86,398.65,366,398.59Zm-1.43,7.76c-3.12,5.63-3.29,10.64,3.07,13.56,2.81,1.24,5.37-1.24,5.62-4.36.53-5.91-1.63-9.81-8.72-9.2Z" transform="translate(-38.64 -39.04)"/><path class="a" d="M122.31,503.92c-3.43-8.44,1.24-14.83,7.23-19.27s13.16-2.31,19.35,1.38C144.45,503.86,139.33,507.23,122.31,503.92Zm17.52-13.84c-8.43-.42-12.06,1.55-11.61,9.25C134,498.77,136.71,495.84,139.83,490.08Z" transform="translate(-38.64 -39.04)"/><path class="a" d="M796.19,974.28c-4.08-9.2-8.3-18.31-12.21-27.59-6.33-15.05-11.25-31.78-35.83-20.81V921.8a88.41,88.41,0,0,1,9-12.35c20.37-20,41.09-39.71,61.54-59.68,11-10.77,9.81-16.42-4.92-21.54a73.05,73.05,0,0,0-19.18-3.77c-19.92-1.18-18.48-.56-23.32,18.59-4.5,17.89-14.45,33.75-30.09,49.5-4.61-18.11-7.82-33.07-12.43-47.59-1.55-4.86-6.64-8.6-10.1-12.85-3.63,3.74-7.45,7.29-10.74,11.25a18,18,0,0,0-2.45,6.53c-4.1,14.84-11.7,30.48,13.67,39.62C702.54,898,689.66,896,681.25,888c-12.49-11.84-21.69-27.08-32.6-40.64a22.17,22.17,0,0,0-9.7-7.82,85.09,85.09,0,0,0-20.81-2.81c-3.77,0-7.62,1.8-11.45,2.81,1,3.72,1.1,8.27,3.35,11.06C622.33,866,635.35,880.77,647.81,896c13.27,16.12,13.13,17.19,1.38,33.75-7.57,10.66-15,21.46-22.5,32.15-.17.22-.88,0-2.14.22.84-8.8,1.66-17.52,2.81-30L602.7,945.45l-2.82-1.86c4.67-8,9.65-15.83,13.84-24,1.52-3,2.81-8,1.29-10.18s-6.63-2.82-9.87-2.11c-15.18,2.81-30.31,5.85-45.33,9.39-17.33,4.08-18.73,2.81-15.58-15.21q1.88-11.12,3.37-22.22c1.41-10.41-2.81-15.53-13.72-16.31-32.12-2.34-31.92-2.53-17.16-32,2.81-5.45,3.49-11.89,5.18-17.88a128.77,128.77,0,0,0-18.71,1.54c-10.2,2.34-20.19,5.63-30.26,8.67l-2-3.49c9.67-11.25,18.34-23.34,29.19-33.19,28.74-25.93,40.25-59.59,47-96a211.63,211.63,0,0,1,8.69-29.59c6-17.43,4.67-20.92-12.31-29.55a42.36,42.36,0,0,1-5.91-3.69c-.65-.48-.87-1.54-1.86-3.43,18.31-3.63,16.23-14.06,10.58-27.76-4.73-11.53-6.16-24.44-8.72-36.78-3.09-15-5.85-30.07-8.89-45.68,13.19,12.86,26,26.67,40.19,38.76,13,11.08,27.62,20.3,41.57,30.34.73.54,1.85.68,2.45,1.33,14.68,15.72,30.57,27.42,53.43,16.45,26.86,18.56,54.36-7.65,81.7,1.21a99.65,99.65,0,0,0,33,3.54,28.67,28.67,0,0,0,17.63-7.37c25.74-25.06,50.94-50.62,75.94-76.44,8.27-8.43,15.61-18,23.37-27l4.19,1.69c-2.64,19.69-5.63,39.37-7.73,59.06-.88,8.44.67,17.32.67,26,0,3-2,6.11-1.91,9.14a146.12,146.12,0,0,0,1.74,15.61c.56,4.42,1.55,8.81,1.75,13.25,0,1.6-1.5,3.37-2.51,4.95-13.24,21-15.66,42.75-8.43,66.79,3.82,12.77,3.74,26.83,4.52,40.36.73,12.66,5.26,22.13,16.32,29.16,14.87,9.43,29.07,19.92,46.76,32.18l-35.6,11.25c-15.1,4.75-15.5,6.27-8.13,20.5,5.82,11.25,10.89,23,16.29,34.42l-3.72,3.71c-10.12-2.81-20.16-5.62-30.34-8a43.06,43.06,0,0,0-10.58.14c0,3.52-.67,7.4.57,10.46,6,15,12.54,29.76,18.9,44.58l-3.07,3.29-42.66-22-4.39,3.49,28.12,62.43c-10.6-2.81-17.57-4-24.1-6.44-13.16-4.86-26.15-10.24-39.12-15.66-7.76-3.27-11.42-.71-12.32,7.39-1.18,10.47-2.64,20.9-4,31.36ZM683.07,755.19c-3.17-6.52-6.94-17-13-26-11.5-17.13-50.4-20.61-63.28-5.88-11.81,13.42-23.37,27.11-34.23,41.32a14.56,14.56,0,0,0-1.18,13.16,163.84,163.84,0,0,0,21.1,27.93c13.89,14.39,29.67,15.74,46.74,5.62,5.62-3.29,11.47-6.36,17.27-9.39C673.54,793,680.54,778,683.07,755.19Zm133.76-38.7c-21.88,1.8-44.21,10.69-59.59,32.85-6.44,9.28-9.62,19-4.14,30.24,6.61,13.5,39.83,30.93,54.42,28.12a11.62,11.62,0,0,0,4-1.21c16.65-11.25,34.15-21.26,41.88-41.71C863.07,739.25,848,716.38,816.83,716.49Z" transform="translate(-38.64 -39.04)"/></svg>