<svg xmlns="http://www.w3.org/2000/svg" viewBox="0 0 701.25 702.89"><defs><style>.a{fill:#fff;}</style></defs><title>face_3-4</title><path class="a" d="M636.85,836.73c-6.36-13.2-12.93-26.28-19.06-39.61-9.91-21.61-17.86-45.75-53.14-28.63l-.19-5.94A128.07,128.07,0,0,1,577,744.15c28.71-30.11,58-59.74,86.82-89.77,15.55-16.2,13.53-24.38-8.17-31.15a106.39,106.39,0,0,0-28.11-4.59c-29-.79-26.93,0-33.08,28.16-5.72,26.26-19.48,49.82-41.52,73.48-7.56-26.16-12.92-47.8-20.32-68.71-2.48-7-10.06-12.23-15.3-18.25-5.11,5.62-10.51,11-15.12,16.88a26.33,26.33,0,0,0-3.26,9.62c-5.28,21.82-15.61,44.94,21.75,57.07-23.72,13.06-42.57,10.87-55.19-.41-18.74-16.66-32.84-38.43-49.36-57.66a32.17,32.17,0,0,0-14.49-10.93,123.24,123.24,0,0,0-30.44-3.12c-5.49.17-11,3-16.54,4.63,1.69,5.35,2,12,5.39,15.93,18.61,21.79,38.26,42.73,57.12,64.26,20.08,22.85,19.92,24.41,3.58,49.08-10.52,15.88-20.79,32-31.27,47.86-.23.34-1.27,0-3.1.43.82-12.86,1.6-25.59,2.7-43.75l-35.3,20.56-4.18-2.57c6.43-11.85,13.31-23.5,19-35.66,2.07-4.45,3.72-11.72,1.41-14.88s-9.8-3.79-14.47-2.62c-22,4.81-43.88,9.94-65.59,15.8-25,6.74-27.14,5-23.39-21.43q2.22-16.27,3.87-32.51c1.57-15.22-4.81-22.48-20.74-23.12-46.88-1.9-46.6-2.19-26.48-45.84,3.84-8.08,4.53-17.49,6.7-26.29a187.94,187.94,0,0,0-27.16,3.12c-14.76,3.88-29.14,9.14-43.66,14l-3.11-5c13.56-16.83,25.61-34.84,41-49.68,40.65-39.1,55.83-88.66,64-142.06a308,308,0,0,1,11.27-43.49c7.91-25.67,5.82-30.68-19.31-42.46a61.33,61.33,0,0,1-8.78-5.09c-1-.67-1.34-2.22-2.86-4.91,26.49-6.14,23-21.24,14.1-40.92-7.41-16.57-10.1-35.3-14.41-53.16-5.2-21.68-9.92-43.51-15.07-66.1,19.81,18.11,39.05,37.62,60.33,54.57,19.48,15.52,41.17,28.28,61.95,42.25,1.09.74,2.73.89,3.62,1.81,22.11,22.21,45.8,38.5,78.58,21.46,40,25.78,78.81-13.67,119-2a145.17,145.17,0,0,0,48.17,3.63,41.88,41.88,0,0,0,25.33-11.56c36.31-37.69,71.81-76.09,107-114.85,11.65-12.67,21.89-26.9,32.78-40.37l6.18,2.27c-2.93,28.79-6.36,57.59-8.51,86.36-.88,12.33,1.79,25.2,2.2,37.85.14,4.43-2.59,9-2.36,13.4a211.17,211.17,0,0,0,3.27,22.65c1,6.4,2.66,12.75,3.15,19.21.08,2.33-2,5-3.41,7.32-18.31,31.13-20.82,63-9.17,97.66,6.16,18.42,6.7,38.9,8.47,58.56,1.66,18.4,8.69,32,25.12,41.71,22.1,13,43.27,27.64,69.6,44.67l-51.32,18c-21.77,7.63-22.27,9.86-10.88,30.24,9,16.11,16.92,32.91,25.32,49.37l-5.23,5.58c-14.88-3.63-29.63-7.25-44.57-10.3a62.46,62.46,0,0,0-15.39.7c.16,5.12-.64,10.8,1.31,15.21,9.42,21.54,19.65,42.74,29.6,64l-4.31,4.93-63.16-30.08-6.23,5.29,43.87,89.6c-15.57-3.6-25.78-5.07-35.4-8.25-19.39-6.47-38.56-13.69-57.7-21-11.45-4.39-16.66-.49-17.59,11.35-1.23,15.29-2.87,30.55-4.31,45.85ZM461.92,523c-4.93-9.35-10.91-24.49-20.1-37.32C424.27,461.25,367.47,458,349.4,480c-16.57,20.09-32.77,40.57-47.91,61.76A21.18,21.18,0,0,0,300.38,561a238.29,238.29,0,0,0,32,39.69c20.9,20.32,43.94,21.55,68.33,6,8-5.06,16.41-9.79,24.71-14.49C449.8,578.42,459.29,556.26,461.92,523Zm193-62.59C623.11,464,591,478,569.64,511c-8.94,13.82-13.12,28.1-4.61,44.22,10.26,19.35,59.44,43.19,80.56,38.42a17.08,17.08,0,0,0,5.76-2c23.72-17.16,48.73-32.55,59-62.69C723.28,491.35,700.22,458.76,654.89,460.38Z" transform="translate(-155.97 -133.83)"/></svg>