<svg xmlns="http://www.w3.org/2000/svg" viewBox="0 0 753.25 903.59"><defs><style>.a{fill:#fff;}</style></defs><title>face_9</title><path class="a" d="M767.18,591.5c-4,14.13-9.23,27.89-12.11,42.34-2,10.2-1.52,11.25,6.9,16.24,17.3,10.21,28.63,25.81,38.87,42.39a233.57,233.57,0,0,1,13.93,27.75c1.31,3,1.83,6.58,5.53,8.31,8.24-1.3,16.18-2.49,22.47-10.11,4-4.85,11.38-6.7,16.71-11.83l11.54,3.6c1.61,3.65-.46,5.07-2.23,6.57a137.63,137.63,0,0,1-38.24,23.5c-3.34,1.33-7.79,2.08-7,7a8,8,0,0,0,7.57,7.11c8.35.68,11.7,6,14.36,13.17A52.16,52.16,0,0,0,871,796a46.63,46.63,0,0,1,16.85,13.67c4.24,5.71,9.86,10.42,14.85,15.56-3,3.91-6.37,2.56-9.58,1.92-6-1.24-12.17-3.32-15.76-8.2-10.89-14.79-29.66-20.6-40-35.86a3.79,3.79,0,0,0-5.08-1.74l-.2.11c-2.07,2.35-.46,5.07-.31,7.57a139.92,139.92,0,0,1-7.11,54.29c-1.94,5.61-1.2,9.87,3.84,13s7.85,9.06,12.84,12.6c4.5,3.19,8.43,3.9,12-1.13a17.71,17.71,0,0,1,5.88-5.38c6.69-3.64,11.19-1.66,14.12,6.14a5.64,5.64,0,0,1-.73,1.9c-16.75,18.6-18.49,18.75-41.82,7.06-5.37-2.72-9.37-8.92-15.54-8.24-6.58.73-7.92,8.45-12.06,12.65-13.49,13.68-29.47,21.63-48.89,22.3-11.23.39-11.07.59-14.66,11.2a56.59,56.59,0,0,1-5.36,10.8c-3,5.09-3.51,9.21,2.76,12.3,5.4,2.67,5.44,7.17,3,11.93-1.69,3.13-2.74,7.35-7.6,6.62s-9.07-3.26-9.64-7.49c-1.05-7.72-3.12-16.09,3.45-22.85a18.55,18.55,0,0,0,4.24-10c2.25-11.68,1-14.24-10.41-17.17-15.82-4.1-29.81-11.69-43-21a31.5,31.5,0,0,0-5.3-2.86c-.51-.28-1.31,0-2.45,0-3.31,3.38-3.16,8.3-4.19,12.65-1.59,6.82-2.32,13.84-3.86,20.74a50.1,50.1,0,0,0,.44,25.36c2.48,8.79,3.44,18.25-.82,27.48a49.56,49.56,0,0,1-16.62-8.39c2.34-8.21,2.38-15.93-3.55-22.65-2.59-2.93-1.79-6.24-.65-9.48,5.86-16.5,7.72-33.83,10.27-51,1.31-8.72-.17-16.57-6.6-23.17a127.4,127.4,0,0,1-16.37-22c-5.36-1.6-9.07,1.16-12.88,3-9,4.27-17.81,9.22-26.89,13.44-7.17,3.34-8.66,3-16.47-.35,1.84-10.41,8.78-16.25,18.45-18.46,10.45-2.45,18.78-8.33,28.72-14.89-7.18-20.5-15.15-41.08-15.21-63.78-18.79-4-37.71-3.65-55.64-10a33.15,33.15,0,0,1,6.9-13.36c8.73-1,16.83,1.29,25,2.57s16.33,3.3,24.94.79c4.75-16.71,10.73-32.51,21.85-46,5.18-6.33,10.22-12.74,17-16.85,26.9-16.41,54.91-29.3,87.78-22.73,6.54,1.25,9.57-1.95,10.85-7.4,1.77-7.51,4.77-14.61,6.2-22.2,1.59-8.3,4.76-16.1,12.11-21.26Zm-12,221.44c4.82.53,7.62-1.43,10.49-3a213.23,213.23,0,0,0,36.63-26c10.12-8.56,12.43-19.32,9.8-31.65a156.45,156.45,0,0,0-20-49c-1.5-2.45-1.95-5.89-5.49-6.73-11.76,4.07-18.94,2.27-26.27-7-4.65-5.87-8-12.29-7.33-20.22.24-2.85,1.31-6.64-1.42-8.52-9.4-6.54-19.52-12.56-31.38-10.69-7.51,1.24-15.09,2.59-22.73,3.69a134.09,134.09,0,0,0-50.13,16.72c-8.14,4.73-8.91,7-5.64,16,2.1,2.1,5.49.05,7.88,3.24.17,7.24-4.51,12.81-8.22,18.54-16.16-.8-16.16-.8-18.34-10.53-.58.19-1.34.23-1.75.63a11.9,11.9,0,0,0-1.81,2.37c-8.22,13.09-6.86,27.5-5.52,41.82.31,3.36,2.58,5.32,4.79,5.17a6,6,0,0,0,4.92-3.53,5.73,5.73,0,0,1,5.09-2.63c8.62,7.15,12.92,13.56,13.28,21.28.58,12.23-4.92,21.78-15.23,29.67,5.73,8.1,6.88,18.22,15,24.39,3.68-2.58,3.21-6.23,4.14-9.31A26.07,26.07,0,0,1,653.57,795c8.22-7.11,17.08-6,22.88,3a55.7,55.7,0,0,0,6.13,9.09c6.3,6.37,10.29,12.93,4.31,21.07a5.64,5.64,0,0,0,5.12,2.24c15.26.85,29.82-3.21,44.56-6.45,9-2,10.46-5,6.15-13.54a231.08,231.08,0,0,1-12.26-31.73c-5.73-17.27-9.17-36.07-26.9-46.5-1.77-1-3.14-2.63-4.82-3.74a19.83,19.83,0,0,1-9.48-18.82c.87-8-2.64-13.41-6.41-19.14a126.49,126.49,0,0,0-9.63-12.79c-3.59-4.51-1.4-8.44,1.78-11.52,3.62-3.5,6.77-.63,9.32,2.17,1.8,2,3,4.47,4.93,6.29,3.29,3.12,4.31,8.62,9.81,9.43,19.36-11,28.24-11.85,42.16,5.22a23.12,23.12,0,0,1,4.94,17.84c-1.47,13.43-13,16.45-24.42,21.74C735.85,756.37,742.79,786,755.14,812.94Z" transform="translate(-149.42 -58.26)"/><path class="a" d="M757.54,757.11c2.18-6.56,9-10.25,13.9-15.58a5.67,5.67,0,0,1,6.44-1.45,20.65,20.65,0,0,1,11.86,29.24,43.53,43.53,0,0,1-4.62,7.7c-7.15,9.39-19.19,10.17-27.66,1.78C751.89,773.3,751.75,767.82,757.54,757.11Z" transform="translate(-149.42 -58.26)"/><path class="a" d="M684,744.39c11.58,0,15.45,5.2,12.33,15.79-2.74,9.29-9.41,14.91-17.69,14.74A17.15,17.15,0,0,1,662.81,762c-1.22-4.72,6.46-23.14,10.64-24.46C679.47,735.61,682.85,739.06,684,744.39Z" transform="translate(-149.42 -58.26)"/><path class="a" d="M287.66,928.47c.67-6.71,1.23-13.41,2-20.1,1.3-10.86,4-22.23-14-24l1.35-2.37a57.76,57.76,0,0,1,9.31-4.22c18.48-4.92,37.06-9.53,55.57-14.39,10-2.62,11.15-6.31,4.27-14.17a49,49,0,0,0-9.92-8.54c-11.2-7.28-10.57-6.44-19.73,3.11-8.54,8.92-19.58,14.86-33.9,18.86,3.31-12.07,6.39-21.84,8.51-31.82.71-3.34-1-7.21-1.63-10.82-3.35,1-6.75,1.77-10,3a12,12,0,0,0-3.59,3c-7.3,7.29-16.9,13.88-5.15,27.59-12.44-.56-19.31-5.94-21.55-13.39-3.35-11-3.66-22.94-5.53-34.45a14.86,14.86,0,0,0-3.06-7.76,56.62,56.62,0,0,0-11.19-8.53c-2.19-1.24-5-1.47-7.59-2.15-.63,2.51-2.1,5.18-1.71,7.55,2.07,13,4.76,25.93,7,38.89,2.39,13.78,2,14.35-10.37,20.11-7.93,3.7-15.81,7.54-23.74,11.27-.17.07-.51-.29-1.32-.58,3.41-4.84,6.77-9.65,11.55-16.51l-18.77-.4-1-2c5.36-3.1,10.85-6,16-9.42,1.88-1.25,4.27-3.7,4.12-5.5s-2.93-3.83-5.05-4.49c-9.77-3.39-19.58-6.63-29.5-9.54-11.44-3.36-11.84-4.56-4-14q4.77-5.85,9.32-11.82c4.26-5.6,3.5-10-2.59-14-17.93-12-17.75-12,.61-24.33,3.44-2.25,6-5.77,8.93-8.7a86,86,0,0,0-11.4-5.29c-6.72-2-13.62-3.41-20.49-5l0-2.7c9.35-3.35,18.4-7.52,28-9.66,25.31-5.59,43.15-21.38,59.16-40.36a140.74,140.74,0,0,1,14.85-14.35c9.26-8.17,9.64-10.64,2.61-21.29a28.42,28.42,0,0,1-2.22-4.1c-.22-.49,0-1.19.06-2.61,11.86,3.95,14.1-2.82,15.34-12.66,1.06-8.28,4.5-16.27,7.1-24.31,3.15-9.75,6.54-19.44,9.94-29.53,3.42,11.85,6.29,24.11,10.57,35.86,3.91,10.77,9.36,21,14.16,31.43.25.55.86,1,1,1.58,3.34,14,8.72,26.08,25.66,27.26,9.5,19.7,34.19,13.54,47.17,27.74a66.76,66.76,0,0,0,18,13,19.26,19.26,0,0,0,12.71,1.55c23.27-6.08,46.4-12.62,69.51-19.38,7.6-2.18,15-5.3,22.53-8l1.88,2.37c-8.05,10.59-16.3,21.06-24.05,31.83-3.3,4.62-5.34,10.31-8.21,15.37-1,1.76-3.17,2.9-4.14,4.69a96.83,96.83,0,0,0-4.15,9.66c-1.14,2.76-2,5.64-3.37,8.29-.53.93-2,1.47-3.1,2-14.64,7.82-23.26,19.71-27,36.1-2,8.7-6.7,16.86-10.72,25-3.76,7.61-4.26,14.63-.15,22.38,5.54,10.41,10.34,21.21,16.58,34.21l-24.45-5.24c-10.37-2.23-11.1-1.47-11.52,9.25-.33,8.48-1.26,17-1.91,25.43l-3.39.94c-5-5-9.88-10-15-14.73a28.83,28.83,0,0,0-6.2-3.42c-1.16,2.05-2.84,4.09-3.14,6.28-1.47,10.71-2.54,21.48-3.74,32.21l-2.88.9-17.55-26.94-3.71.58-4.29,45.66c-5.24-5.15-8.89-8.18-11.9-11.73-6.05-7.19-11.84-14.61-17.59-22.06-3.44-4.47-6.42-4.19-9.62.23-4.15,5.7-8.46,11.29-12.69,16.94Zm6.64-165c.31-4.85,1.6-12.23,1.07-19.46-1-13.78-22.52-28.68-34.9-24.36-11.31,3.9-22.58,8.05-33.6,12.73a9.72,9.72,0,0,0-5,7.27,109.67,109.67,0,0,0,3,23.24c3.32,13,12.06,19,25.35,18.74,4.37,0,8.79.1,13.16.25C276.25,782.31,285.29,775.9,294.3,763.48ZM385,785.21c-13.34-6.19-29.28-8.41-45.57-.6-6.82,3.28-11.89,7.87-12.41,16.24-.62,10,12.94,31.19,22.37,34.38a7.81,7.81,0,0,0,2.73.62c13.42-1,26.91-1.08,38.18-10.43C404.38,813.76,403.15,795.45,385,785.21Z" transform="translate(-149.42 -58.26)"/><path class="a" d="M551.31,412.05c2.5,8.12-1,14.11-2,20.41-2.36,16.07.54,30.53,13,41.91,9.29,8.5,20.15,8.16,27.54-1.91a62.84,62.84,0,0,0,10.06-55.55c-2.21-8-9.72-10.62-17-12.69-8.7-2.46-17.42-.81-26.95.8-8.84-15.3-12.88-32.1-15.2-48.8-2.5-18.36-10.13-29.62-29.06-33.05-9.37-1.69-16.41-.59-21.21,8.16A103.35,103.35,0,0,0,478.82,361c-3,15.64-10.56,29.68-14.72,44.85-1.43,5-5.35,5.88-9.15,7.47-20.17,8.49-38.39,20.49-57,31.77a78.76,78.76,0,0,0-19.26,17.88,10.23,10.23,0,0,0-2.43,10.21c8.05,27.22-3.92,46.81-31.37,54.9-12.68,3.73-23.27-.63-33.29-5.58-8.43-4.19-13.78-2.55-19.75,2.79a33.22,33.22,0,0,1-3.35,2.55c-6.11,4.21-12.81,10.22-19.57,2.72s-1.72-14.59,4.48-20.31c17.48-16.33,38.22-28.76,55.27-46.58-.39-6.06-5.4-7-10.65-7-18.5-.14-36.44-6-55.28-4.24-11.88,1.05-12.58-.92-11.55-14.53,10.13-.32,19.39-4.3,28.8-8.07,14.55-5.77,28.67,1.52,39.71,7.86,22.17,12.8,39.71,9,60.6-3.25,16.87-9.92,29.77-21.32,38.18-38.48,1.19-2.46,3.14-4.74,1.47-7.8-2.46-2.69-5.06-1-7.52,0-9.31,4.06-19,6.75-27.34-1-9.3-8.69-13.73-19.83-10.49-32.77A81.54,81.54,0,0,1,411.34,304c9.48-6,13.34-13.18,13.15-23.91-.24-13.48-.2-26.93-4-40-2.75-9.33-1.17-17.06,6.23-23.92C436.54,207,441,196,437,182.26a14.08,14.08,0,0,1,2.55-14.47,132.63,132.63,0,0,0,32.82-57.2c4.58,15.53-11.28,30.83-.33,47.44,8.69-7.73,5.71-17.67,7-26.2.81-5.3-1-11.24,6-14.13a12.37,12.37,0,0,1,15.85,4.77c3,4,8.79,5.75,10.67,2.54,6.7-11.32,20.82-15.44,28.74-30.8-23.37.65-43.72-.07-63.94,4.84-4.24-23.51,4.34-36.95,27.27-40.41,20.3-3,42.09,12.71,44.36,33.45,3.12,28.6,11.84,56.85,29.53,80.91a14.75,14.75,0,0,1,3.14,11.59,55.36,55.36,0,0,0,6.62,34.95,21.82,21.82,0,0,1-.72,22.28,83.06,83.06,0,0,0-5.4,12.75c-4,11.35-.37,19.83,10,25.87,7.23,4.1,14.53,8.16,21.38,12.93a56.63,56.63,0,0,1,7.88,86.44c-6,6.06-4.76,10.45,1.74,14.34a122.2,122.2,0,0,1,40.18,40.93A52.17,52.17,0,0,0,695,459.14,317.24,317.24,0,0,1,777,492.9c1,7.53-6.18,5.86-8.08,10.05,2.8,6.32,12.26,6.32,14.51,16.42-15.15-5.16-28.6-10.48-38.19-21.68a35.12,35.12,0,0,0-18-11.66c-12-3.4-23.85-7.53-35.89-10.85-8.81-2.44-17.43-1.45-27.14,5.32a100.81,100.81,0,0,1,19.75,42.83c3.05,14.32,14.13,28,5,45.38-6.79-5.19-9.25-13.16-18.25-13-5,.11-4.65-5.92-5.23-10.07-5-35.16-20-66.3-38.8-95.86-3.63-5.68-3.74-5.61-12-9C611.16,463.45,604.54,484,576.63,485c-15.83.68-30.23-9.68-36.47-25.32A43.47,43.47,0,0,1,551.31,412.05Zm-117.8-97.42c-8.44,18.61-20.65,27.88-38.95,30.64-10.16,1.51-9.83,12.26-9.74,20.47.11,5.79.55,12.69,8.63,13.68,12.06,1.47,23.53,1.5,33.4-8.1a95.62,95.62,0,0,0,24.54-36.39c2.14-6,5.26-12.71.94-20.71-6,4.51-11.8,7-18.83.41Zm170.28-15.09c3.9,7.27.5,15.2,1.94,21.06,3.59,14.86-3.15,16.24-14.45,18-19.33,3.1,1.71,22.66-11.06,29.68-2.07,1.13,1.64,5.7,4.18,7.68a8.83,8.83,0,0,0,2.51,1.16c15.5,6,26.08,1.11,31.55-14.43A66.4,66.4,0,0,0,622.92,334C621.61,319.89,617.9,306.89,603.79,299.54ZM349.4,476c-15.44-1.14-23.49,2.46-32.21,9-9.87,7.4-2.34,15-2.05,22.52.57,14.31,11.18,21,24.43,16.37,13.72-4.82,21.88-15.14,27.9-27.46,4.17-8.57,1.06-14.38-7.25-17.64A73.51,73.51,0,0,0,349.4,476Zm97.88-261.79c16.91-3.92,22.88-13.81,26.72-25.31,2-5.91,1.86-12-7-14.48-10.9,9.64-13.46,23.58-19.71,39.79Zm111.32,7.69c-7-7.33-6.68-15.85-5.9-24.61.53-7.2-3-12-10.32-11.51-8.73.61-8.13,8-6.73,13.66,2.88,11.3,10.51,18.84,22.92,22.46ZM541.43,121.29a5,5,0,0,0-2.37,5.71c1.53,5.39-3.43,12.09,3.09,16.43a3.76,3.76,0,0,0,5.25-.82,4.2,4.2,0,0,0,.45-.8c3.28-6.57-.12-12.38-2.77-18.13-.4-1-2.08-1.33-3.65-2.39Zm-57-40c7.51,8.43,14.66,5.32,25.42,2.18-10.14-3.43-16.71-6.7-25.42-2.18Zm55.84,90.44c3.86-5.53,6.27-9.34,2-14.51-4.74,3.78-5.93,7.74-2,14.51Z" transform="translate(-149.42 -58.26)"/><path class="a" d="M577.49,420.18c10.23.56,18.11,7.33,17.93,15.45s-8.63,15.27-16.88,15.09a18.16,18.16,0,0,1-17.22-18C561.86,422.3,568.46,419.57,577.49,420.18Zm-2,7.56c-3.49,5.33-4,10.26,2,13.61,2.69,1.42,5.39-.84,5.87-3.9,1-5.79-.9-9.81-7.94-9.71Z" transform="translate(-149.42 -58.26)"/><path class="a" d="M329.21,506.47c-2.78-8.58,2.3-14.54,8.53-18.49s13.17-1.32,19,2.76C351.07,508,345.77,511,329.21,506.47Zm18.3-12.39c-8.3-1-12,.66-12.14,8.3C341.08,502.24,344,499.55,347.51,494.08Z" transform="translate(-149.42 -58.26)"/></svg>